<svg xmlns="http://www.w3.org/2000/svg" xmlns:xlink="http://www.w3.org/1999/xlink" viewBox="0 0 233.646 234.073">
    <defs>
        <circle id="a" cx="116.823" cy="117.25" r="116.823" />
    </defs>
    <clipPath id="b">
        <use xlink:href="#a" overflow="visible" />
    </clipPath>
    <g clip-path="url(#b)">
        <circle fill="none" cx="116.823" cy="116.823" r="116.823" />
        <path fill="#D8EBE5" d="M0 0h722.203v233.646H0z" />
        <path opacity=".8" fill="#FFF"
              d="M67.378 77.249c-.919-17.137-15.104-30.75-32.471-30.75-11.62 0-21.809 6.101-27.561 15.268a20.797 20.797 0 00-5.675-.785c-9.271 0-17.134 6.047-19.857 14.412h-.791c-7.833 0-14.242 6.249-14.242 13.886s6.409 13.886 14.242 13.886h8.744a20.494 20.494 0 0014.756 6.241c4.385 0 8.447-1.376 11.786-3.713a32.343 32.343 0 0018.598 5.849c8.38 0 16.019-3.171 21.784-8.377h3.615c7.833 0 14.239-6.249 14.239-13.886.004-5.134-2.895-9.627-7.167-12.031zm183.393 62.187c-.714-13.32-11.739-23.902-25.239-23.902-9.032 0-16.952 4.74-21.423 11.865a16.187 16.187 0 00-4.408-.61c-7.209 0-13.318 4.701-15.438 11.202h-.615c-6.089 0-11.07 4.857-11.07 10.794 0 5.938 4.981 10.793 11.07 10.793h6.797a15.946 15.946 0 0011.47 4.854c3.408 0 6.566-1.069 9.161-2.889a25.15 25.15 0 0014.456 4.546 25.181 25.181 0 0016.933-6.512h2.813c6.089 0 11.07-4.854 11.07-10.793-.002-3.988-2.256-7.479-5.577-9.348z" />
    </g>
</svg>
