<svg xmlns="http://www.w3.org/2000/svg" xmlns:xlink="http://www.w3.org/1999/xlink" viewBox="0 0 1920 700">
    <circle opacity=".1" fill="#A1CDE2" cx="-82.834" cy="320.846" r="177.091" />
    <circle fill="#95DEF4" cx="-82.834" cy="320.847" r="158.803" />
    <path fill="#B8EEFF"
          d="M-82.834 480.15c-87.84 0-159.303-71.463-159.303-159.304 0-87.84 71.463-159.303 159.303-159.303 87.839 0 159.302 71.463 159.302 159.303 0 87.842-71.463 159.304-159.302 159.304zm0-317.606c-87.289 0-158.303 71.014-158.303 158.303s71.014 158.304 158.303 158.304c87.288 0 158.302-71.015 158.302-158.304S4.454 162.544-82.834 162.544z" />
    <defs>
        <circle id="a" cx="-82.834" cy="320.847" r="158.803" />
    </defs>
    <clipPath id="b">
        <use xlink:href="#a" overflow="visible" />
    </clipPath>
    <g clip-path="url(#b)" fill="#65B069">
        <path d="M56.112 233.372s1.149-.784 4.703-2.3c3.501-1.515 12.28.418 13.168.418.94.053 7.629 2.717 7.629 2.717.418-1.045.784-2.09 1.202-3.136 2.09.627 4.181 1.203 6.323 1.83 0 0 3.71 3.031 2.247 3.814-1.463.731-2.09 4.494.94 5.173 3.031.627 2.039-3.135 2.926-3.396.889-.261 4.756 1.515 4.756 1.515s5.434-.888 5.643-1.672c.209-.784 2.979-3.345 4.912-2.456 1.934.888 3.606 4.65 3.606 4.65s-1.882-5.539 4.232-2.822c6.166 2.717 10.503 5.591 10.503 5.591 1.567.052 3.083.105 4.651.209 1.358 1.776 2.717 3.553 4.023 5.382 0 0-2.351.94.261 2.09 2.613 1.149 3.972-2.717 6.167-2.666 2.142.105 6.166.262 7.577 1.359 1.359 1.097 5.382 3.606 5.382 3.606-.104-1.045-.261-2.09-.418-3.136 0 0 5.278.471 6.166.261.889-.208 9.719 6.062 9.719 6.062 1.202 1.567 2.456 3.188 3.658 4.755 0 0 4.129 3.449 3.553 4.232-.522.731-6.218-.209-6.218-.209-1.202-1.567-2.404-3.188-3.605-4.755-.209 1.045-.366 2.038-.575 3.083.052.626.157 1.253.209 1.881-1.673-.052-3.345-.104-4.965-.156l1.568 3.605s3.397 3.188 2.874 4.232c-.522.993-7.786-.209-7.786-.209L157.067 277s-3.135.209-4.703-.104c-1.567-.314-1.776 1.516-3.344 1.516l-1.568-.053-3.292 2.822s2.352 2.664 2.404 3.709c.052 1.046-3.24 4.703-3.24 4.703a1164.556 1164.556 0 01-7.89 8.623s-1.359-4.232-1.829-7.943c-.47-3.709.418-5.277 2.508-7.107 2.09-1.828 8.57-7.994 8.57-7.994s5.173-5.905 1.202-4.964c-3.971.941-2.247 3.345-4.703 3.815-2.456.47 2.195-4.181-2.717-2.979-4.912 1.203-4.232 1.725-5.591 4.599-1.359 2.873 3.083 4.808-1.254 5.016-4.389.209-7.577-.939-8.831-1.776-1.306-.836-5.434-1.725-6.323-.888-.889.783-8.256 3.866-10.921 7.055-2.717 3.188-1.986 5.382-1.986 5.329 0 0 2.195-.261 5.382 1.149 3.188 1.359 3.867 3.814 2.979 6.48-.888 2.664-2.665 10.973-6.479 12.593-3.762 1.62-7.838 1.306-8.779 1.725-.94.418 1.882 3.396-.993 4.755-2.822 1.359-4.755 2.195-4.755 2.195s3.083 4.337 2.77 5.382c-.313 1.098-1.985 3.815-1.985 3.815s-4.599-4.285-4.599-6.219c.052-1.881-.889-3.814-.889-3.814-1.045.47-2.089.889-3.135 1.358 0 0 1.62-3.815-.627-2.718-2.195 1.098-7.264 3.293-6.636 4.129.627.836 4.39 1.619 4.39 1.619s3.814-2.194 2.821 0c-.992 2.195-2.874 3.814-2.874 3.814s-.993 3.293 1.463 4.338c2.509 1.045 4.703.209 2.404 3.24-2.299 3.03-4.599 6.009-5.905 6.845-1.307.836-.731 2.979-6.428 4.181-5.695 1.148-11.287.156-12.906 2.09-1.62 1.934-2.143 6.322-2.143 6.322s6.532.158 6.062 3.449c-.47 3.293-1.516 4.39-3.188 6.375-1.673 1.934-5.069 1.725-5.069 1.725-1.358-1.829-2.717-3.605-4.075-5.434-.889.836-1.725 1.672-2.613 2.508-.053.992-.104 2.037-.157 3.031 0 0 3.136 4.598 4.651 4.859 1.516.262 1.254 4.076 1.254 4.076s-4.912-.732-6.271-3.449c-1.359-2.718-3.448-10.138-3.448-10.974.052-.837.261-5.8.261-5.8-1.411.73-2.77 1.516-4.18 2.246 0 0-1.358-5.226-1.307-6.062.053-.836 2.352-5.017-2.038-4.964-4.39.052-12.124 6.531-12.124 6.531l-6.427 4.547s.313 8.047-2.247 9.197c-2.508 1.148-5.591-7.421-5.644-7.421 0 0-1.149-3.345-1.724-5.278-.575-1.933.157-5.277.157-5.277-1.567-.156-3.135-.365-4.703-.522 0 0-2.717-4.702-7.42-5.278-4.703-.521-4.703 1.412-8.779-.209l-4.023-1.672s-12.124-8.1-13.43-5.539c-1.254 2.509-2.247 6.48-.052 6.741 2.194.261 3.396 3.919 5.278 3.919s4.128-2.822 5.644-1.985c1.567.836 7.159 3.605 5.853 4.703-1.254 1.149-3.501 3.396-3.501 3.396s-10.608 7.628-14.893 7.942c-4.285.313-8.57-6.428-8.57-6.428s-3.083-2.82-2.77-3.918c.314-1.15-4.598-9.25-5.173-14.318-.575-5.068-.888-7.576.053-8.988.94-1.41 3.239-3.971-.575-2.508-3.815 1.41-11.026.836-12.593 1.149-1.568.261 0-2.821 0-4.808 0-1.985.94-3.658.94-3.658s-5.016-1.41-6.584 1.986c-1.567 3.396.94 4.494-1.567 4.808-2.508.261-2.822-5.644-3.763-6.794-.94-1.148-6.583-2.821-7.838-4.494-1.254-1.672-4.703-3.971-4.703-3.971s-1.567 3.083 0 3.971c1.567.836 8.779 5.645 9.406 7.055.627 1.412.627 3.658-1.567 4.233s-3.449-2.821-4.076-4.233c-.626-1.41-8.779-8.727-8.779-8.727s.314 3.031-2.194 2.927-3.762-1.307-5.644 0c-1.88 1.306-.94 4.128-2.194 4.964-1.254.836-3.135 4.808-5.017 5.645-1.881.836-10.66 3.657-11.652-.837-.941-4.493 0-7.891 0-7.891s.627-1.776 3.762-1.881 6.898 2.665 7.524 0c.627-2.665.941-4.599.941-5.748s-4.389-4.599-4.389-4.599 9.719-1.307 10.085-3.031c.313-1.672 4.232-10.137 4.232-10.137s3.972 3.396 3.972.836.313-6.793.313-6.793c.627-.68 1.307-1.307 1.934-1.986 0 0 2.769 5.645 3.709 3.658.941-1.986-1.567-8.727-1.567-8.727s-4.076 3.396-6.271 3.396c-2.194 0-5.33-5.382-3.448-8.465 1.881-3.083 9.667-9.615 9.667-9.615s.941-2.561 1.881-4.495c.94-1.985 3.396-5.643 3.396-5.643s3.71-7.055 6.48-8.727c2.769-1.672 10.764-5.331 14.161-3.867 3.396 1.411-.836 4.494 1.62 5.643 2.508 1.15 3.71 1.15 7.473 1.725 3.709.575 6.584 3.972 7.838 5.958 1.306 1.985.731 4.807-.836 4.755-1.568 0-9.72-4.86-9.667-3.136 0 1.673 2.561 4.808 2.561 4.808s.366 4.494 2.561 5.644c2.194 1.149 5.591.052 5.591.052s.262-4.232 1.777-5.068c1.515-.836 4.336-1.359 5.277-1.098.941.262 2.404-3.344 2.404-3.344s7.524-8.36 8.517-5.54c.993 2.822-3.292 4.181 1.986 4.495 5.278.313 1.463-3.658 5.486-3.867 4.023-.209 7.786.941 7.786.941s-4.807-5.121-2.665-5.069c2.143.052 9.092 3.5 9.092 3.5 1.149.576 2.299 1.15 3.501 1.725l.157-3.919s-4.755-3.135-3.658-6.218c1.098-3.031 2.926-9.458 2.926-9.458s5.121-1.829 5.278.94c.157 2.77-.627 5.853-.522 7.264.052 1.411.261 5.853.627 7.002.366 1.097 2.038 4.494.575 6.428-1.463 1.933-5.173 2.142-5.173 3.292.052 1.097.68 2.247 3.188 2.561 2.509.313 4.337-.784 4.599-2.195.261-1.411 2.665-2.77 2.665-3.606-.052-.836-1.463-4.494-1.463-4.494.366-.47.783-.94 1.149-1.359 0 0-2.247-1.411-2.351-3.658-.105-2.247 0-6.427 0-6.427s.993-4.442 3.814-3.24c2.822 1.15 5.382 2.352 6.375 3.449.993 1.15 1.516 4.494 1.567 5.591.053 1.097 3.868 2.874 4.076 1.463.261-1.359.47-7.734-1.202-9.197-1.62-1.411-4.703-1.202-4.285-4.232.418-3.031 4.964-3.762 4.964-3.762 1.254.783 2.56 1.567 3.814 2.299 0 0 .575-.261.47-2.194-.156-1.934-3.971-.366-1.202-3.919 2.769-3.501 2.404-4.337 3.867-4.859 1.463-.523 5.487.157 5.487.157h6.95c-.366-1.464-.68-2.979-1.045-4.442 2.404.104 4.86.157 7.264.262 0 0-6.427-3.815-3.606-5.331 2.822-1.515 7.264.261 7.264.261.627 1.098 1.254 2.247 1.881 3.345.104 1.097.262 2.194.366 3.292 0 0-.366-3.292 3.396-2.038 3.762 1.253 5.8 3.239 6.01 5.121.208 1.934-1.725 3.448-2.561 4.285-.836.783-2.979 3.448-3.554 4.232-.522.784-3.658 3.449-3.658 3.449.207-.046-2.354 1.782 1.357 2.723zm7.054 178.032c-2.822-1.516 5.069-7.264 5.069-7.264 3.135-.836 6.27-1.725 9.406-2.561.836-1.045 1.672-2.037 2.508-3.082 0 0 4.023-5.854 5.8-5.383 1.776.471 2.142 2.352 3.71 2.299 1.516-.053-.418-4.284 3.396-5.539 3.814-1.201 7.629.209 7.472 1.307-.156 1.098-3.187 3.605-.522 4.285s3.605 4.807 5.277 3.711c1.724-1.098 1.881-11.967 4.442-10.348 2.56 1.568 2.926 5.539 2.926 5.539s1.567 1.777 1.202 4.338 3.397 3.396 4.599 5.434c1.149 2.037 1.306 3.084 2.247 4.338.993 1.254 2.456 2.979.261 6.793-2.194 3.814-4.859 6.898-5.591 9.039-.731 2.143-4.912 2.457-4.912 2.457s-2.717 1.777-5.068 1.934c-2.352.156-5.801-3.344-5.853-4.912 0-1.568-1.045-2.352-.94-3.135.157-.785-3.135 2.873-3.135 2.873-1.307-1.357-2.613-2.666-3.919-4.023 0 0-2.926-1.15-6.584-.418s-4.86 2.664-5.853 3.293c-.993.574-7.159.104-7.159.104s-1.098 3.291-3.345 2.613c-2.247-.68-2.089-3.973-2.089-3.973-.106-.051-.523-8.203-3.345-9.719z" />
        <path d="M40.801 370.438s4.337.208 5.696 2.611c1.411 2.457 3.71 4.86 4.86 5.645 1.202.783 4.39 2.926 4.39 2.926s2.194 2.926-.261 3.292c-2.456.366-5.331-6.427-8.047-7.212-2.667-.731-8.258-5.591-6.638-7.262zm18.916 15.727c-1.829-.522 4.704-.679 5.382-.157.68.523 6.584-.209 6.584-.209 1.516.053 3.083.053 4.599.105 0 0-1.463 2.246-4.495 2.352-3.082.103-7.89-.836-12.07-2.091zm.732-13.116c.888-1.254 5.173 1.516 5.748-.156.575-1.672 5.069-3.972 6.062-4.808.992-.836 5.695-1.516 5.695-1.516s1.306 2.979-.209 2.979c-1.567.052-2.874.889-2.926 1.725s1.149 1.044.418 2.455c-.732 1.359-.418 4.912-2.717 6.322-2.299 1.412-6.95.21-6.95.21.052 0-6.846-4.702-5.121-7.211zm17.035 7.472c-.993-.156-.418-4.65.47-5.486.94-.836 2.509-1.359 5.33-1.62 2.822-.261 2.926-1.881 2.822-.261-.156 1.619-4.65 3.658-4.65 3.658.522 1.201 1.045 2.351 1.516 3.553-.731 1.254-1.463 2.561-2.195 3.814a217.177 217.177 0 00-.993-5.748c-.001.001-.419 2.352-2.3 2.09zm2.873 7.421c1.045-.993 2.039-1.985 3.083-2.979 0 0 4.337-.313 5.225-.156.889.104 5.382 1.098 4.442 1.201-.94.157-8.465 1.777-8.465 1.777-1.41.053-2.821.105-4.285.157zm16.147-10.085s-.575-2.875.261-2.875c.836-.052 2.561 1.359 2.561 1.359.941-.053 1.881-.105 2.77-.157 1.881.418 3.814.889 5.695 1.306l7.211 1.725c.731 1.464 1.516 2.927 2.247 4.442 1.202.888 2.403 1.829 3.605 2.717.313.627.68 1.202.993 1.829 0 0-7.838-3.24-8.779-2.874s-1.672.94-4.494 1.567-5.8-2.611-5.8-2.611a44.07 44.07 0 00-.366-2.404s-2.822.783-3.71.156c-.836-.627-4.86-2.037-4.86-2.037.942-.732 1.83-1.412 2.666-2.143zm-.836-45.462s-1.149-4.337.104-4.337c1.254 0 3.919-4.075 3.919-4.075h2.456s2.509.262 3.501-1.359c.992-1.619 2.561-4.337 3.814-4.337 1.254 0 2.77-3.501 2.77-3.501s-1.045.731 0-2.561c1.045-3.344-.731-3.867 0-4.65.731-.784 2.926-2.404 2.926-2.404v4.024c1.463.992 2.926 2.038 4.389 3.03 1.149-.941 2.299-1.828 3.449-2.77 0 0-1.254 2.926-2.822 4.546s-4.389 1.882-4.389 1.882 0 1.045-.366 2.822c-.313 1.724-1.202 4.703-3.344 5.225-2.09.575-4.964.836-4.964.836s-.053 1.62-.993 2.717c-.993 1.098-6.637 3.815-6.637 3.815.055 0-1.931 2.456-3.813 1.097zm-214.924 4.808s3.396-8.1 6.846-8.988c3.449-.836 6.271 1.149 7.211 0 .941-1.149 7.473-3.396 11.13-3.658s8.988 3.658 8.988 3.658-1.881 1.934 0 2.664c1.88.732 2.822 3.293 5.644 2.875 2.821-.418 8.465.679 8.779 0 .313-.731-1.254-3.814 2.821-1.567 4.076 2.246 9.72 1.515 9.72 1.515s5.644-2.979 5.957 0c.314 2.979 4.859 18.445 7.315 20.119 2.456 1.672 3.71 3.918 4.285 4.754.627.836 3.344 5.33 3.344 5.33s10.294-2.037 11.183-.104c.888 1.933-.471 5.643-2.352 7.576-1.934 1.986-15.049 7.264-15.781 11.444-.731 4.18-.157 7.263 1.045 7.786 1.202.574 3.345.836 1.097 5.068-2.247 4.232-6.636 7.682-7.89 8.779-1.254 1.148-2.822 3.971-1.933 4.545.888.576-.418 4.809-.418 4.809-1.15 1.725-2.299 3.396-3.449 5.121 0 0-2.247 5.643-7.368 7.105-5.121 1.463-9.928 2.875-9.928 2.875s-2.404-.262-2.352-3.084c.053-2.82-5.33-7.055-5.33-11.809 0-4.809.052-6.48.052-6.48s-5.434-3.658-4.232-7.629c1.254-3.971 2.456-6.74 3.083-7.055.627-.261 1.516-.521.627-3.5s-4.808-5.121-6.741-8.414c-1.882-3.291 0-6.009 0-6.009s-.366-2.091-2.509-3.188c-2.195-1.148-4.337-3.971-8.413-3.135-4.023.836-3.083 3.92-6.479 3.084-3.449-.837-6.375 3.344-10.973-.053s-8.727-11.025-10.294-11.34c-1.567-.313-5.278.262-2.874-3.135 2.456-3.344 2.456-4.232 2.717-8.152.313-3.864 2.404-11.86 7.472-11.807zm83.242 78.434c-1.359.627-2.612-2.195-2.561-4.18.052-1.986 1.567-5.643 1.567-5.643s-1.933-1.936 1.567-5.383c3.502-3.398 3.868-5.645 6.324-5.697 2.456-.051 4.546 1.883 2.299 4.443s-4.023 8.203-4.023 8.203c.001.054 1.621 5.069-5.173 8.257zm-75.769-117.26h9.72v-4.494s.313-4.232-1.568-5.382a9.217 9.217 0 01-3.292-3.396c-.47-.837 2.039-1.673 2.039-2.562 0-.836-3.449-1.41-3.449-1.41l1.411-2.822s-2.665-3.082-4.859-1.41-4.075 3.658-3.135 4.232c.94.574 1.881 3.92 3.449 3.92 1.567 0 1.253.313 1.567 2.299.313 1.934-.94 3.24-.94 3.24s5.016-3.764 3.448 0c-1.569 3.813-1.255 7.211-4.391 7.785z" />
        <path d="M-118.054 295.816c-.888-.209 2.613-2.247 1.463-3.396-1.149-1.149-1.829-3.396.261-3.396h3.972s2.195 1.985 0 4.232c-2.247 2.299-3.187 3.135-5.696 2.56zm99.807-55.442s-2.822-.888-4.076-2.561c-1.306-1.725-3.135-1.985-3.135-1.985s3.292-2.77 3.396-3.606c.104-.836 1.777-5.016 1.777-5.016s.052-5.591 2.978-8.361c2.926-2.769 13.691-10.346 15.258-8.622 1.62 1.725-2.351 6.061-3.501 6.637-1.202.522-6.792 3.5-9.092 6.27-2.299 2.77-2.665 8.361-3.24 9.197s.157 3.919 1.411 4.233c1.15.209 4.076 3.344-1.776 3.814zm-111.982 24.247c-2.299 0-8.832.052-8.832.052s-2.142-3.658.053-3.658-2.195-2.247-.889-4.495c1.306-2.247 4.86-2.299 4.808-1.149-.104 1.149-.418 2.822 3.605 1.672 4.076-1.15 2.875-5.695 5.331-2.456 2.456 3.24 3.971 3.815 2.717 6.375-1.254 2.509-6.793 3.659-6.793 3.659zm-26.493-101.793c.784-1.15 1.515-2.3 2.299-3.449 0 0-1.934-1.045-1.829-1.881.052-.836 4.337-3.815 4.337-3.815s6.271.157 8.465 1.202c2.195 1.045 6.95 2.874 4.389 2.979-2.612.052-7.524-.679-8.256.209-.731.888-4.442 4.598-4.442 4.598 2.561-.836 5.121-1.62 7.682-2.456 0 0 1.672.522 2.561.522s2.926 1.62 2.926 1.62 3.083-.888 3.815 1.62c.731 2.508-1.097 4.233-3.188 5.121-2.09.889-5.173-.731-7.002.157-1.777.888-5.435 2.665-5.487 3.762-.052 1.097-.313.261 2.926-.052 3.24-.366 8.936-3.031 7.943-.993-.993 1.986-2.822 3.449-2.874 4.285-.053.836 5.225 2.717 5.33-.104.105-2.822 1.62-6.218 2.247-6.218.627 0 2.195 3.918 1.567 5.33-.627 1.411-4.232 8.779-4.232 8.779s2.299-.313 4.023-1.776c1.725-1.411 3.553-6.532 4.546-7.107.993-.575 4.494-7.681 6.375-4.599 1.933 3.083 1.985 7.838 1.567 8.988-.47 1.149-1.933 1.41-3.136 1.986-1.202.574-5.173 2.299-5.173 2.299s.627 4.494-.208 5.33c-.837.836-.731 5.382-1.673 6.48-.94 1.15-2.874 3.972-2.874 3.972l-.157 4.494s3.083 2.195 4.023 3.031-.104 3.919-.104 3.919c-.94-.627-1.933-1.254-2.875-1.881 0 0-1.829 0-2.194 1.934-.366 1.985 2.926 3.919 3.449 5.016.575 1.098 1.359 3.344 1.359 3.344s-7.159-2.195-6.271-1.881c.889.261 6.167 5.017 6.167 5.017s-.889 1.463-1.829 1.985c-.94.523-3.344.053-3.344.053a261.972 261.972 0 01-.522 6.427c-.993 0-2.039 0-3.032.053 1.568 2.403 3.136 4.859 4.704 7.264-.418 1.202-.889 2.456-1.306 3.658-1.203-.627-2.404-1.307-3.606-1.933 0 0-.889-2.822-2.142-2.509-1.254.313-2.248 3.972-2.3 4.494 0 .576 2.09 2.509 2.09 2.509 1.567 0 3.083-.053 4.65-.053 0 0-7.629 7.107-10.398 6.271s-5.8-3.292-5.853-2.195c-.052 1.098 3.606 4.755-.209 6.741-3.762 1.985-4.442 3.709-4.442 3.709s-4.859-3.867-4.964.053c-.104 3.867-4.546 7.264-4.546 7.264-.94 3.919-1.881 7.837-2.769 11.757-1.15-1.098-2.248-2.246-3.397-3.344a495.405 495.405 0 01-3.553-7.525s-5.487-4.128-3.292-4.441c2.195-.314 3.71 1.619 4.389-1.15.732-2.822-3.971-4.024-4.545-7.943-.575-3.972 1.359-6.218 2.403-7.89.993-1.673 1.098-3.345.836-5.331-.208-1.933-2.299-5.8-2.508-5.8-.261 0-4.023 1.202-4.023 1.202s-2.352-2.195.209-3.606c2.508-1.463-2.195-4.128-2.195-4.128s-.784-6.95-.94-8.622c-.209-1.673-2.666-5.487-6.584-5.382-3.919.104-4.232 3.709-7.472 2.665-3.24-.993-6.428-6.324-5.8-6.114.574.209 6.061-3.762 6.061-3.762s4.233-.523 1.307-1.254c-2.926-.732-4.755-.68-4.755-.68s-1.672-2.404-1.829-3.24c-.157-.836-1.725-2.717 2.246-3.658 3.972-.993 8.936-3.083 8.936-3.083.104-.836.157-1.672.261-2.508l2.508-4.233s-11.391 4.285-9.301 1.202c2.143-3.135 6.375-7.159 7.316-7.733.94-.575 5.435-1.62 5.435-1.62-.575-1.725-1.202-3.449-1.776-5.173 1.097-.209 2.194-.47 3.292-.679.888.888 1.776 1.776 2.612 2.665-.313-1.672-.626-3.292-.94-4.965 2.09-1.306 4.128-2.561 6.218-3.867-.052 0 7.002 8.623 6.636 6.428-.366-2.195-1.254-8.047-1.254-8.047 1.202-.313 2.352-.627 3.553-.94 0 1.202-.052 2.403-.052 3.606 1.358 1.88 2.769 3.814 4.128 5.695l2.822-2.038c-1.098-.732-2.195-1.412-3.292-2.143.052-.47.104-.94.104-1.411 1.149-.157 2.352-.261 3.5-.366-1.933-2.09-3.866-4.128-5.8-6.218 0 0 8.151 2.247 9.406 5.017 0 0-.575-4.756-1.516-6.375-.94-1.62.314-3.658.314-3.658 1.307 1.825 2.718 3.445 4.129 5.117zm-191.462 95.051c-1.463-1.359-2.979-2.717-4.441-4.075a412.16 412.16 0 005.539-4.495s2.612-3.396 4.232-3.709c1.567-.314 7.577-1.359 8.465-1.15.889.208-2.561 2.979.836 2.926h7.995c.94 0 5.068 1.254 6.897 1.358 1.829.157 5.8.418 7.525 1.725s4.651 2.508 4.651 2.508 4.075-.313 5.121-1.881c1.098-1.516.575-2.352 1.934-3.449 1.359-1.098 5.173-5.121 5.853-2.926.68 2.195 2.613 4.128 2.874 4.964.209.836.626-2.978 1.881-3.135 1.254-.157 2.561 1.934 2.561 1.934s7.629 1.045 9.615 2.769c1.985 1.725-2.456 3.449-.314 3.763 2.143.366 7.943-2.404 9.354-.575 1.411 1.777 3.083 4.128 3.083 4.128s.784-2.143.314-3.867-3.815-3.553.523-3.135c4.336.418 8.517 2.561 8.517 2.561 1.463-.366 2.926-.784 4.442-1.15 0 0 4.023-3.971 3.814-1.149-.208 2.874 2.875 3.449 3.24 1.986.417-1.412-1.306-7.682 2.403-7.368 3.658.313 4.338 3.709 4.338 3.709s2.09 1.411 2.56 3.083c.523 1.673 4.024-.052 4.128-1.829.104-1.776-3.083-4.86.262-3.501 3.292 1.359 4.964 4.337 4.285 5.853-.731 1.516-2.561 6.741-2.561 6.741 1.359 1.62 2.718 3.292 4.128 4.912-1.672-.261-3.292-.47-4.964-.731 0 0-1.724 3.083-2.666 3.083-.94 0-2.716-2.195-2.716-2.195l.47-3.292s-1.045 1.829-4.546 3.449c-3.501 1.62-3.031 4.755-5.591 5.957s-4.023 5.905-4.076 7.264c-.052 1.358.993 6.792 2.248 6.636 1.253-.156 4.18-2.979 5.121-3.762.94-.784-1.045-5.695 2.612-3.449 3.659 2.299 5.748 5.801 7.577 7.055 1.829 1.254 4.285 4.547 2.979 7.055-1.306 2.455 5.853 6.793 5.905 4.337.052-2.456.366-3.867.104-6.062-.262-2.195 3.5-3.344 3.553-5.435.052-2.038-1.463-4.442-1.463-4.442s-.94-.889-.157-4.493c.731-3.606-.679-7.002.889-7.107 1.567-.104.679-.889 3.449-.366 2.77.523 5.748 4.389 5.748 4.389s1.411-4.18 2.403 2.979c1.045 7.211 2.665 6.428 3.658 4.128.993-2.247 1.045-4.181 3.866-4.232 2.822-.052 3.659 3.605 3.606 4.859-.052 1.202-.104 4.912 1.15 5.853 1.254.94 5.904 2.822 5.904 2.822.68 1.985 1.412 3.971 2.143 5.904 0 1.098 0 2.143-.053 3.24 0 0 4.703 3.083 4.703 4.912 0 1.828-4.076 1.775-4.076 1.775a305.424 305.424 0 01-5.957-2.873c.417-2.299.889-4.6 1.306-6.898 0 0-.679 3.711-3.815 3.396-3.135-.26-9.771.523-9.771.523.209.73.418 1.516.627 2.247 0 0 4.39.208 4.39 1.044 0 .889-1.254 3.24-1.254 3.24 1.463.575 2.927 1.202 4.39 1.777.626-.575 1.253-1.202 1.881-1.777l-.627 3.92c-2.822 1.098-5.644 2.143-8.465 3.188l-.627-5.33s-8.361 6.009-8.257 6.74c.104.732 3.24 2.509 3.24 2.509s-8.152 2.561-8.413 5.644c-.262 3.082-9.302 8.57-8.936 10.451.366 1.934 4.546 6.113 2.404 7.158-2.143 1.098-3.815-2.612-6.062-4.232-2.247-1.62-5.434-3.031-7.263-2.77-1.881.262.731 3.188-2.456 2.665-3.135-.522-5.695-.94-7.524-.052-1.881.836-2.979 4.232-2.979 4.284 0 .053-1.986-2.403-.47 3.345 1.515 5.748 4.389 7.159 5.957 7.211 1.568.053 4.599-1.828 4.86-2.664s1.777-2.144 3.658-1.883c1.881.314 2.979 3.868 1.463 4.704-1.515.783-.208 2.456-.208 2.456s5.696 1.201 6.323 2.037c.679.836 1.672 1.934 1.097 3.606-.522 1.619 1.15 4.128 2.717 4.18 1.567.053 4.023-.731 5.591.104 1.62.836 2.404-1.357 4.86-2.143 2.456-.783 2.978-2.979 5.539-1.828 2.561 1.149 6.585 1.463 7.891 2.037 1.254.576 6.897.941 6.897.941s-.888.836 1.986 3.082c2.875 2.248 6.95 2.613 6.114 5.383-.783 2.77-1.306 4.703 1.463 4.756 2.77.052 3.031-1.62 3.919-2.456.889-.837 3.136 1.149 3.188 1.724 0 .575-2.612 3.293-2.612 3.293l5.016 2.037s2.038-2.77 3.919-1.881c1.881.889 3.554 3.396 3.554 3.396s5.226-1.045 7.734.104 9.144 5.748 8.256 6.271c-.889.575-7.211 3.814-7.159 4.65.052.836-.366-1.148-.47 3.658-.104 4.754.104 8.414-1.359 9.771-1.463 1.359-.731 3.605-6.688 4.6-6.009.992-7.002 3.447-6.584 5.434s-1.568 3.188-2.613 5.434c-1.045 2.248-5.017 4.391-5.853 5.436-.784 1.098 2.299 2.873-.731 4.965-3.083 2.141-7.577 1.41-7.943 3.344-.418 1.934-6.009 1.41-3.762 3.188 2.247 1.725 3.919 3.449 1.985 4.756-1.881 1.305-4.651.104-4.389 2.561.313 2.508 2.299 2.299 2.09 5.328-.208 3.031-2.456 5.697-2.456 5.697.68 1.516 1.359 2.979 2.039 4.494.575.783 1.149 1.514 1.724 2.299 0 0 4.129 1.045 1.412 1.986-2.718.992-5.696-.314-5.696-.314s-8.726-3.188-9.04-9.51c-.366-6.324-1.358-18.76-1.306-18.76 0 0 1.306-11.236 1.881-14.789.47-3.553 2.508-17.557.47-20.691-2.09-3.084-7.786-5.748-11.026-11.602s-6.427-7.576-6.532-8.988c-.104-1.358-1.306-4.964 1.359-7.106 2.666-2.142 4.755-3.501 4.65-5.121-.104-1.672-.208-3.866-3.866-2.56s-9.72-1.83-11.758-4.651c-2.038-2.769-3.396-4.702-4.598-4.755-1.254 0-5.8-3.658-7.942-3.135-2.143.521-14.736-1.098-15.834-4.076-1.097-2.979-1.515-5.174-1.515-5.174s-10.138-10.451-11.13-11.234c-.993-.836-.941.261-3.449-.575-2.56-.836-5.539-6.794-6.793-6.375-1.253.419-7.054-5.801-8.308-9.145-1.307-3.345 3.083-3.919 2.508-8.569-.627-4.651-2.404-8.519-3.658-8.885-1.254-.313-1.829-3.238-1.829-3.238s-2.038-5.278-3.606-5.801c-1.567-.575-9.563-4.285-9.771-6.219-.208-1.934 1.202-4.859-.679-5.225-1.882-.366-8.623-1.777-10.19-1.777-1.568 0-3.815-3.763-5.069-3.763-1.253 0-4.075 4.494-5.068 5.278-.993.836-3.449 5.539-3.449 5.539-1.254.262-2.508.471-3.815.731.784-1.307 1.62-2.612 2.404-3.919a600.156 600.156 0 014.598-7.838s-6.218 4.18-6.323 5.278-3.501 5.695-4.494 6.846c-.993 1.097-3.606 3.553-5.226 3.918-1.567.367-11.392 2.352-11.392 2.352 2.143-1.254 4.285-2.561 6.479-3.867l5.801-3.291c1.254-1.41 2.456-2.822 3.71-4.232 0 0-3.501.574-4.442.731-.94.156-2.038-2.352-2.038-2.352-1.516-.313-3.083-.628-4.599-.993 0 0-2.612-2.665-1.881-3.501.679-.836 2.874-4.076 4.128-4.546 1.306-.523 1.829.679 2.822-.104l.836-.314c.418-1.359.889-2.77 1.359-4.128l-4.232 1.724c-1.62-.261-3.292-.47-4.912-.679.104-.993.209-2.039.313-3.031 1.933-.836 3.919-1.672 5.852-2.508.993.417 1.986.783 2.979 1.202-.005-.054 2.764-4.965-2.304-4.182z" />
        <path d="M-229.67 346.295c2.3.053 4.599.053 6.898.104 1.986.785 4.023 1.516 6.009 2.301 0 0-1.149 2.455-3.03 1.881-1.881-.575-5.069-2.091-5.069-2.091-1.567 0-3.135-.052-4.703-.052-.053-.785-.105-1.463-.105-2.143zm15.572 6.898s2.142-1.568 5.226-2.404c3.083-.889 7.838 1.254 6.009 2.561-1.829 1.307-5.853 2.09-7.107 2.037-1.202-.052-4.128-2.194-4.128-2.194zm-3.501-179.026s-2.404-3.449-1.986-4.285 4.337-2.143 4.86-3.553c.522-1.411.94-4.442 3.658-3.188 2.665 1.202 2.352 5.539 3.867 4.964 1.515-.575 8.099-4.494 9.249-4.546s6.322 0 6.741 1.359c.418 1.358 1.881 6.009-.94 8.047-2.874 2.038-6.479 3.03-7.472 4.18-.993 1.149-2.352 2.561-2.77 3.448-.366.836 6.95-1.672 5.592-.208-1.307 1.463-7.002 8.57-8.727 8.622-1.672.052-2.613 1.463-2.247 2.821.366 1.359-2.456.053-2.978 2.039-.523 1.986-4.233.836-4.495 2.874-.209 2.039 2.717 2.195 2.875 3.553.157 1.359.313 5.644-1.15 5.173-1.463-.418-2.299 1.725-3.24 2.195-.94.47-5.435.209-5.435.209l-.627 2.979s7.055 1.568 6.062 2.77c-1.045 1.15-.836 2.561-3.292 2.613-2.404.104-3.553-1.254-5.33-1.202-1.829.052-7.943-1.777-7.943-1.777l1.725-2.038c-.313-1.567-.627-3.083-.94-4.65 1.829 1.463 3.658 2.979 5.487 4.442.94-1.411 1.933-2.822 2.874-4.233-.784-.993-1.568-1.933-2.352-2.926 0 0-1.516-2.404-1.097-3.24.417-.836 4.128-2.09 5.017-1.829.888.26 5.016-2.143 1.306-3.345-3.71-1.202-5.017-4.755-4.598-5.435.366-.679-2.143.576.366-.679 2.508-1.202 3.5 2.561 5.486 3.292 1.985.731 4.285-.993 4.285-.993s-3.815-.47-3.606-1.933c.209-1.463 6.375-3.972 6.375-3.972l-.627-4.076s1.15-4.18-.783-2.979c-1.934 1.202-2.456 5.331-3.71 5.905-1.254.627-2.717.679-2.717.679s-6.01 1.097-5.278 0c.731-1.149 5.226-3.815 5.226-3.815s.47-1.41-.418-1.358c-.889.052-1.045 3.344-5.121 2.978-4.076-.313-2.247-4.494-2.247-4.494s-2.665 2.038-1.986-.418c.68-2.508 3.606-4.545 3.606-4.545 1.044.209 2.038.417 3.083.626.366-1.306.783-2.561 1.202-3.867 1.721 1.308 3.446 2.562 5.17 3.816z" />
        <path d="M-236.725 187.178l.627-4.075a271.52 271.52 0 012.352 3.971l3.344 3.188c-.156.993-.261 1.933-.417 2.926 0 0 3.344 3.763 3.292 4.128-.053.366-3.083 3.24-3.083 3.24s-3.135 3.396-3.135 3.658c-.053.261-3.136 1.202-3.292.157-.157-1.097 1.411-1.672.104-2.979-1.307-1.306-1.673-2.926-1.516-2.09.208.784 4.964-1.672 4.964-1.672s2.142-.836.261-1.829c-1.933-.993-4.703-.627-4.703-.627s-3.031.993-3.031-.889c0-1.881.209-3.344.522-3.448.313-.105 2.352-.105 2.352-.105.419-1.254.889-2.404 1.359-3.554zm1.778 52.256s-3.345-4.076-1.412-5.173c1.934-1.098 5.382-5.121 5.382-5.121s.366 2.665-.313 3.553c-.68.889.836 7.996.888 7.996 0 0 3.345.731 2.822-.732-.522-1.516.523-6.322.523-6.322.784-1.045 1.62-2.143 2.403-3.24.47 1.725.941 3.449 1.411 5.225.784.104 1.515.209 2.299.314 0 0 3.814-2.404 4.076-2.561.261-.157.992 2.351 2.09 3.814s5.017 4.964 4.599 3.605c-.418-1.358-1.15-5.591.313-4.076 1.463 1.516 3.188 3.397 3.449 4.233.262.836-3.919 3.083-1.776 4.181 2.09 1.097 12.279 7.681 12.123 10.973-.157 3.292-.471 3.762-1.62 5.487-1.15 1.724-1.933-1.672-4.337-3.815-2.403-2.142-3.083-.889-2.508.993.522 1.881 6.741 6.479 6.741 6.479s-1.463 2.09-2.143 3.971c-.679 1.881-7.054-4.076-7.002-4.076.784 1.62 1.516 3.188 2.3 4.808-2.3-.889-4.546-1.777-6.846-2.666 0 0-1.881-5.173-2.822-5.173-.941 0-5.958.888-5.958.888s-.626-3.554 1.777-3.605c2.403 0 4.912.209 4.912.209s-3.24-3.815.104-2.508c3.344 1.306 4.232 2.874 4.232 2.874l1.412-3.292s-1.307-1.986-3.083-2.038c-1.829-.053-7.942-11.235-8.831-11.079-.94.157.157 2.143-1.829 2.143s-4.023-2.352-4.023-2.352c-1.567.523-3.135.993-4.755 1.516a237.949 237.949 0 00-5.382-2.143 37.08 37.08 0 01.784-3.29zm-52.256 3.083s-3.71-2.665-3.449-4.599c.261-1.934 1.097-4.023 2.613-4.912 1.463-.888 2.508-4.128 2.508-4.128-1.254-.575-2.508-1.098-3.709-1.672 0 0 3.919-1.934 6.218-.94 2.299.993 2.874 3.396 2.874 3.396 1.934 0 3.867.052 5.801.052 0 0 2.194 2.09.94 2.351-1.254.261-5.696 1.829-7.107 3.345-1.411 1.516-1.306 3.449-1.881 4.494-.627 1.097-4.808 2.613-4.808 2.613z" />
        <path d="M-278.005 239.799c-.941 0 .052-3.135.366-3.083.313.052 4.18-4.598 4.18-4.598-.052 1.62-.157 3.188-.209 4.808 1.307-.941 2.665-1.934 3.972-2.875.313.993.575 2.038.888 3.031 1.254-.522 2.561-.993 3.814-1.515-.104.783-.156 1.62-.261 2.403 1.097.053 2.247.157 3.345.209-.366-1.619-.679-3.239-1.045-4.859 1.097 0 2.247-.052 3.344-.052 0 0-.313 5.957 1.045 7.89 1.359 1.933 3.867 4.703 3.867 4.703-1.254.522-2.561.992-3.815 1.515.732.784 1.516 1.567 2.299 2.352-2.247-.523-4.441-1.045-6.688-1.516 0 0-2.926 1.724-6.009 1.881-3.083.208-6.009-1.516-6.009-1.516s-4.86 1.411-4.441-.888c.417-2.299 3.344-3.188 4.859-3.24 1.516-.053 5.801.052 5.591-.732-.209-.784-5.33-1.672-5.33-1.672-1.516.313-3.083.627-4.651.94.365-1.043.626-2.14.888-3.186zm42.744-21.686s4.755 2.613 5.121 2.3c.314-.314 3.449-1.359 3.449-1.359s3.135-4.128 4.703-1.411c1.567 2.717 1.672 4.912 1.672 4.912s-2.195 3.919-5.487 3.449c-3.292-.418-7.264-.68-8.152-.888-.888-.209-5.539.68-5.434-.627.157-1.306.47-4.232.47-4.232a136.202 136.202 0 003.658-2.144zm-8.936 14.998c.052-.731-1.934-5.173.522-5.173s7.263 1.359 7.263 1.359c-1.254 1.097-2.508 2.194-3.762 3.344-.366 1.149-.731 2.351-1.149 3.501-.157 1.725-.314 3.449-.47 5.121 0 0-1.62 3.083-2.822 2.926-1.202-.104-2.143-2.822-2.143-2.822.575-1.149 1.15-2.299 1.777-3.449.261-1.568.523-3.187.784-4.807zm-12.228.104c1.463.157 2.926.366 4.442.522-.366-.993-.731-2.038-1.097-3.031 1.149-.47 2.352-.94 3.501-1.41 0 0 1.307 2.142 1.463 3.605.157 1.515-1.149 5.591-.575 6.271.575.68 1.881 1.202-.052 1.411-1.934.208-3.605-2.666-3.605-2.666a1023.44 1023.44 0 01-4.077-4.702zm11.445-9.458c.626-1.097 1.202-2.195 1.829-3.344l-.627-6.741c1.149-.68 2.352-1.411 3.501-2.09-.209 1.829-.417 3.605-.627 5.434.157 2.456.313 4.912.47 7.42-.053-.052-2.561 1.202-4.546-.679zm-6.637-6.323s-1.777-4.912.418-3.449c2.247 1.463 3.501 3.292 3.501 3.292.627 1.15 1.202 2.299 1.829 3.397 0 0-1.777 3.814-2.717 4.18-.94.366-2.247-2.508-2.247-2.508-1.411-.47-2.821-.94-4.285-1.463a220.611 220.611 0 003.501-3.449zm-12.071.523a257.527 257.527 0 013.762-3.867c-.209 1.358-.366 2.77-.523 4.128 0 0 1.933-.784 1.986.888.104 1.62 2.561 3.814-.627 5.226-3.188 1.411-5.435.366-5.435.366s-3.501.836-4.703.836-3.814 1.725-2.979-.209c.836-1.933 4.337-3.396 4.337-3.396-1.254-.522-2.509-.993-3.762-1.515 0 0-.68 4.807-4.703 2.351-4.024-2.456-5.696-1.149-5.487-2.821.261-1.673 5.539-6.741 5.539-6.741s3.24-3.397 3.554-1.516c.313 1.829-1.098 5.382-1.098 5.382s3.814.053 4.807-.208c.993-.314 3.083-.157 3.083-.157.681.417 1.465.835 2.249 1.253zm11.705-19.491s4.808 1.463 5.957 4.128c1.097 2.666 1.986 5.33-.784 5.696-2.77.417-3.449-1.254-3.449-1.254s-7.002.94-6.689-1.202c.314-2.195 4.39-3.449 4.39-3.449-.052-.052-5.487-5.069.575-3.919zm166.432-.575s-3.501-6.218-2.352-7.891c1.149-1.672 5.905 0 5.905 0s0-3.762 2.351-3.292c2.352.47 5.121 5.592 5.121 5.592.68-1.254 1.359-2.456 2.038-3.71 0 0-3.03-3.658-2.77-5.644.261-1.986 4.337-4.494 5.278-2.247.94 2.247 1.254 4.808 3.345 4.808s6.27.836 6.845 1.306c.627.471-2.561 4.076-4.912 4.912s-6.584-.627-6.532 1.673c.053 2.247.053 2.247 2.143 4.545 2.142 2.247 6.323 2.3 4.598 5.122-1.725 2.821-4.128 5.957-4.128 5.957s-.941-1.829-.941-3.606c-.052-1.776-4.232-6.323-4.232-6.323s.47 4.442.052 6.323c-.366 1.881-1.829 6.95-3.972 7.211-2.142.262-5.487-2.717-5.487-3.658 0-.888.889-3.501 1.777-3.605.889-.104 2.09-4.338 2.09-4.338.313-1.149.575-2.246.888-3.396-2.298.104-4.701.157-7.105.261zm115.43-8.779s1.359-6.167 2.717-6.636c1.412-.47 6.637 3.658 6.637 3.658s-1.62 1.254-2.717 1.776.784 3.867.784 3.867 3.187-.418 4.18.157c.993.575.836 6.897.836 6.897s2.195 3.396-2.874.993-9.667-3.971-8.883-4.755c.836-.731-.68-5.957-.68-5.957z" />
        <path d="M45.817 200.869s-1.202-7.629 1.15-5.068c2.403 2.561 3.762 3.867 3.918 5.278.157 1.463-.417 3.867-2.038 4.076-1.62.209-7.681-.313-7.681-.313.053.052 1.934-4.443 4.651-3.973zm103.412 224.592c.209-.889.418-1.725.627-2.613 0 0-2.195-4.441-1.306-4.494.888-.051 3.919 3.293 3.919 3.293 1.098.313 2.195.68 3.24.992 0 0 2.717.785.627 2.248s-4.912 4.963-5.801 5.33c-.835.262-1.306-4.756-1.306-4.756zm-8.569 8.883s4.912-5.799 5.278-5.539c.366.209-1.62 3.449-1.044 4.182.522.73-.837 3.135-.837 3.135s-.313 1.828-4.911 4.023c-4.599 2.195-6.428.574-6.428.574 1.097-.889 2.143-1.725 3.24-2.613 1.567-1.252 3.134-2.508 4.702-3.762z" />
    </g>
    <circle opacity=".1" fill="#A1CDE2" cx="-82.625" cy="321.056" r="192.141" />
    <path opacity=".8"
          d="M-191.21 227.206c-.366-7.263-6.428-13.064-13.795-13.064-4.965 0-9.25 2.613-11.706 6.48a9.196 9.196 0 00-2.404-.313c-3.919 0-7.264 2.561-8.465 6.113h-.313c-3.345 0-6.062 2.666-6.062 5.905 0 3.24 2.717 5.905 6.062 5.905h3.709a8.76 8.76 0 006.271 2.665 8.661 8.661 0 005.016-1.567c2.248 1.567 4.965 2.508 7.891 2.508 3.553 0 6.792-1.358 9.249-3.553h1.516c3.344 0 6.062-2.665 6.062-5.904.052-2.249-1.202-4.182-3.031-5.175zm167.319 154.048c-.366-7.264-6.427-13.064-13.795-13.064-4.965 0-9.25 2.613-11.705 6.479a9.238 9.238 0 00-2.404-.313c-3.919 0-7.263 2.561-8.465 6.114h-.313c-3.344 0-6.061 2.665-6.061 5.904 0 3.24 2.717 5.905 6.061 5.905h3.71a8.76 8.76 0 006.27 2.664 8.67 8.67 0 005.017-1.566c2.247 1.566 4.965 2.508 7.891 2.508 3.553 0 6.792-1.359 9.249-3.553h1.516c3.344 0 6.062-2.666 6.062-5.905.05-2.247-1.204-4.128-3.033-5.173zm97.247-122.956c-.314-5.644-4.965-10.138-10.713-10.138-3.814 0-7.211 2.038-9.092 5.068a7.145 7.145 0 00-1.881-.261c-3.083 0-5.644 1.986-6.584 4.756h-.261c-2.613 0-4.703 2.089-4.703 4.598 0 2.508 2.142 4.598 4.703 4.598h2.874c1.254 1.254 2.978 2.039 4.86 2.039 1.463 0 2.769-.471 3.919-1.203a10.79 10.79 0 006.166 1.934c2.77 0 5.278-1.045 7.211-2.77h1.202c2.613 0 4.703-2.09 4.703-4.598-.053-1.724-.993-3.24-2.404-4.023zm-166.902-54.346c-.313-5.644-4.964-10.137-10.712-10.137-3.814 0-7.211 2.039-9.092 5.069a7.104 7.104 0 00-1.881-.261c-3.083 0-5.643 1.986-6.584 4.755h-.261c-2.612 0-4.703 2.09-4.703 4.598s2.142 4.599 4.703 4.599h2.875c1.254 1.254 2.978 2.038 4.859 2.038 1.463 0 2.77-.47 3.919-1.202a10.794 10.794 0 006.166 1.934c2.77 0 5.277-1.045 7.211-2.77h1.202c2.612 0 4.703-2.09 4.703-4.599-.053-1.776-.995-3.24-2.405-4.024z"
          fill="#FFF" />
    <image overflow="visible" width="33" height="34" xlink:href="920431C3.png"
           transform="translate(258.192 425.154) scale(.5556)" />
    <circle fill="#FFF" cx="267.359" cy="434.543" r=".778" />
    <path fill="#08132F"
          d="M614.39 608.601c11.635 2.124 23.617-3.643 34.474-8.929 40.463-19.697 93.752-32.862 126.679-2.186 20.807 19.386 25.816 50.031 28.373 78.354 1.983 21.922 2.558 46.152-11.11 63.403-11.892 15.014-32.08 21.279-44.773 35.621-24.615 27.821-12.531 74.218-33.811 104.666-23.063 32.994-71.687 31.359-111.444 25.055-24.871-3.942-51.188-9.06-69.571-26.268-25.482-23.854-34.246-68.951-68.517-75.605-23.379-4.541-44.666 12.515-66.344 22.383-51.65 23.515-119.469 1.809-147.867-47.325-10.55-18.253-13.631-45.91 4.466-56.729 14.948-8.941 34.097-.234 51.406-2.195 36.645-4.149 49.86-50.876 48.557-87.735-1.307-36.956 7.954-179.273 82.034-142.566 28.738 14.244 27.382 58.383 56.24 70.985 40.266 17.585 63.557-33.825 93.124 22.139 5.832 11.036 13.289 22.665 25.246 26.249.944.283 1.888.51 2.838.683"
          opacity=".2" />
    <path fill="#151E57"
          d="M1612.223 121.332c-1.097.25-2.195.479-3.301.692-34.891 6.692-73.677-23.205-49.673-58.015 8.901-12.906 32.531-18.264 34.944-35.121 2.535-17.726-17.836-27.688-32.155-31.006-28.896-6.695-60.164-6.826-85.78-21.776-10.69-6.24-20.188-15.263-24.706-26.788-10.733-27.363 12.128-59.404 40.685-66.357 28.56-6.953 58.691 5.407 81.942 23.388 23.253 17.979 41.691 41.361 63.268 61.323 21.574 19.962 48.11 37.085 77.492 37.855 14.828.389 29.593-3.424 44.387-2.35 67.046 4.868 65.345 92.501 60.259 139.204-2.001 18.358-6.928 37.154-18.985 51.142-12.06 13.988-32.646 21.825-49.696 14.729-20.559-8.557-28.113-33.776-29.517-56.002-.718-11.389-.726-23.596-7.192-33-3.014-4.384-7.275-7.829-11.987-10.3-14.284-7.485-31.67-5.872-47.175-1.437-14.426 4.124-28.208 10.504-42.81 13.819"
          opacity=".3" />
    <path fill="#08132F"
          d="M313.696-44.482c-10.464 25.226-37.03 55.136 4.498 68.144 9.53 2.985 19.603 4.14 28.933 7.703 4.528 1.729 9.319 4.608 10.316 9.352.584 2.78-.29 5.663-1.477 8.244-3.145 6.835-8.614 12.574-15.29 16.043-5.398 2.806-11.531 4.166-16.571 7.574-11.914 8.057-14.087 25.322-9.698 39.018s13.764 25.116 21.319 37.354c7.556 12.238 13.533 26.815 10.015 40.761-4.177 16.564-22.139 27.734-39.145 26.111-17.006-1.621-31.833-14.549-37.837-30.543-7.634-20.341-10.457-42.737-17.693-63.512-6.351-18.234-4.827-39.098-14.295-56.248-3.41-6.176-8.209-11.452-12.369-17.15-6.133-8.399-10.998-18.106-11.645-28.485-.648-10.379 3.575-21.46 12.338-27.059 4.939-3.156 11.107-4.542 15.085-8.847 3.498-3.783 4.645-9.149 5.169-14.274 1.631-15.977-1.431-32.263 1.251-48.097 2.682-15.834 13.949-32.277 30-32.79 28.415-.908 46.454 44.136 37.096 66.701"
          opacity=".3" />
    <path d="M1203.275 224.694c.239-.096.342-.37.346-.701a3.944 3.944 0 00-.346.701m-50.935-66.977c.222.042.436.079.641.112a4.658 4.658 0 00-.641-.112"
          fill="#000C48" opacity=".2" />
    <defs>
        <path id="c" d="M1199.941 219.361c.239-.096.342-.37.347-.701-.133.21-.25.444-.347.701" />
    </defs>
    <clipPath id="d">
        <use xlink:href="#c" overflow="visible" />
    </clipPath>
    <linearGradient id="e" gradientUnits="userSpaceOnUse" x1="711.148" y1="576.977" x2="712.148" y2="576.977"
                    gradientTransform="scale(228.1514 -228.1514) rotate(-43.135 -372.445 1181.948)">
        <stop offset="0" stop-color="#65e226" />
        <stop offset="1" stop-color="#b4f25f" />
    </linearGradient>
    <path clip-path="url(#d)" fill="url(#e)" d="M1200.104 218.487l.534.501-.512.547-.535-.501z" />
    <defs>
        <path id="f" d="M1149.647 152.496a4.605 4.605 0 00-.641-.112c.222.041.434.079.641.112" />
    </defs>
    <clipPath id="g">
        <use xlink:href="#f" overflow="visible" />
    </clipPath>
    <linearGradient id="h" gradientUnits="userSpaceOnUse" x1="711.148" y1="576.977" x2="712.148" y2="576.977"
                    gradientTransform="scale(228.1514 -228.1514) rotate(-43.135 -372.369 1181.917)">
        <stop offset="0" stop-color="#65e226" />
        <stop offset="1" stop-color="#b4f25f" />
    </linearGradient>
    <path clip-path="url(#g)" fill="url(#h)" d="M1149.307 152.065l.396.372-.355.378-.397-.371z" />
    <g opacity=".9">
        <defs>
            <path id="i" d="M642.537 273.493h28.799v28.8h-28.799z" />
        </defs>
        <clipPath id="j">
            <use xlink:href="#i" overflow="visible" />
        </clipPath>
        <g clip-path="url(#j)">
            <defs>
                <path id="k" d="M642.537 273.492h28.799v28.801h-28.799z" />
            </defs>
            <clipPath id="l">
                <use xlink:href="#k" overflow="visible" />
            </clipPath>
            <g clip-path="url(#l)">
                <image overflow="visible" width="120" height="120" xlink:href="920431C1.png"
                       transform="matrix(.24 0 0 .24 642.537 273.492)" />
            </g>
        </g>
    </g>
    <path fill="#D8EEEF" d="M657 282.228l-1.003 5.756L657 293.74l1.003-5.756z" />
    <path fill="#D8EEEF" d="M662.756 287.984L657 286.981l-5.756 1.003 5.756 1.003z" />
    <g opacity=".9">
        <defs>
            <path id="m" d="M1400.185 393.912h28.8v28.801h-28.8z" />
        </defs>
        <clipPath id="n">
            <use xlink:href="#m" overflow="visible" />
        </clipPath>
        <g clip-path="url(#n)">
            <defs>
                <path id="o" d="M1400.185 393.912h28.8v28.801h-28.8z" />
            </defs>
            <clipPath id="p">
                <use xlink:href="#o" overflow="visible" />
            </clipPath>
            <g clip-path="url(#p)">
                <image overflow="visible" width="120" height="120" xlink:href="920431C7.png"
                       transform="matrix(.24 0 0 .24 1400.185 393.912)" />
            </g>
        </g>
    </g>
    <path fill="#D8EEEF" d="M1414.568 402.648l-1.003 5.756 1.003 5.756 1.003-5.756z" />
    <path fill="#D8EEEF" d="M1420.324 408.404l-5.756-1.003-5.755 1.003 5.755 1.003z" />
    <g opacity=".9">
        <defs>
            <path id="q" d="M1598.998 564.034h11.04v11.04h-11.04z" />
        </defs>
        <clipPath id="r">
            <use xlink:href="#q" overflow="visible" />
        </clipPath>
        <g clip-path="url(#r)">
            <defs>
                <path id="s" d="M1598.998 564.034h11.04v11.04h-11.04z" />
            </defs>
            <clipPath id="t">
                <use xlink:href="#s" overflow="visible" />
            </clipPath>
            <g clip-path="url(#t)">
                <image overflow="visible" width="46" height="46" xlink:href="920431C0.png"
                       transform="matrix(.24 0 0 .24 1598.998 564.034)" />
            </g>
        </g>
    </g>
    <path fill="#D8EEEF" d="M1604.434 567.396l-.371 2.127.371 2.128.371-2.128z" />
    <path fill="#D8EEEF" d="M1606.562 569.523l-2.128-.371-2.128.371 2.128.372z" />
    <g opacity=".9">
        <defs>
            <path id="u" d="M1573.548 435.573h11.04v10.801h-11.04z" />
        </defs>
        <clipPath id="v">
            <use xlink:href="#u" overflow="visible" />
        </clipPath>
        <g clip-path="url(#v)">
            <defs>
                <path id="w" d="M1573.548 435.573h11.04v10.8h-11.04z" />
            </defs>
            <clipPath id="x">
                <use xlink:href="#w" overflow="visible" />
            </clipPath>
            <g clip-path="url(#x)">
                <image overflow="visible" width="46" height="45" xlink:href="920431CE.png"
                       transform="matrix(.24 0 0 .24 1573.548 435.573)" />
            </g>
        </g>
    </g>
    <path fill="#D8EEEF" d="M1578.932 438.777l-.371 2.128.371 2.128.371-2.128z" />
    <path fill="#D8EEEF" d="M1581.06 440.905l-2.128-.371-2.128.371 2.128.371z" />
    <g opacity=".3">
        <defs>
            <path id="y" d="M1124.896 442.393h11.039v11.039h-11.039z" />
        </defs>
        <clipPath id="z">
            <use xlink:href="#y" overflow="visible" />
        </clipPath>
        <g opacity=".9" clip-path="url(#z)">
            <defs>
                <path id="A" d="M1124.896 442.393h11.039v11.039h-11.039z" />
            </defs>
            <clipPath id="B">
                <use xlink:href="#A" overflow="visible" />
            </clipPath>
            <g clip-path="url(#B)">
                <defs>
                    <path id="C" d="M1124.896 442.393h11.04v11.04h-11.04z" />
                </defs>
                <clipPath id="D">
                    <use xlink:href="#C" overflow="visible" />
                </clipPath>
                <g clip-path="url(#D)">
                    <image overflow="visible" width="46" height="46" xlink:href="920431CF.png"
                           transform="matrix(.24 0 0 .24 1124.896 442.393)" />
                </g>
            </g>
        </g>
        <path clip-path="url(#z)" fill="#D8EEEF" d="M1130.359 445.619l-.371 2.128.371 2.128.371-2.128z" />
        <path clip-path="url(#z)" fill="#D8EEEF" d="M1132.487 447.747l-2.128-.371-2.128.371 2.128.37z" />
    </g>
    <g opacity=".9">
        <defs>
            <path id="E" d="M1671.012 72.58h11.039v11.04h-11.039z" />
        </defs>
        <clipPath id="F">
            <use xlink:href="#E" overflow="visible" />
        </clipPath>
        <g clip-path="url(#F)">
            <defs>
                <path id="G" d="M1671.011 72.58h11.04v11.04h-11.04z" />
            </defs>
            <clipPath id="H">
                <use xlink:href="#G" overflow="visible" />
            </clipPath>
            <g clip-path="url(#H)">
                <image overflow="visible" width="46" height="46" xlink:href="920431C2.png"
                       transform="matrix(.24 0 0 .24 1671.01 72.58)" />
            </g>
        </g>
    </g>
    <path fill="#D8EEEF" d="M1676.427 75.795l-.371 2.128.371 2.128.371-2.128z" />
    <path fill="#D8EEEF" d="M1678.555 77.923l-2.128-.371-2.128.371 2.128.371z" />
    <g opacity=".9">
        <defs>
            <path id="I" d="M1764.051 316.412h11.04v11.04h-11.04z" />
        </defs>
        <clipPath id="J">
            <use xlink:href="#I" overflow="visible" />
        </clipPath>
        <g clip-path="url(#J)">
            <defs>
                <path id="K" d="M1764.051 316.412h11.04v11.04h-11.04z" />
            </defs>
            <clipPath id="L">
                <use xlink:href="#K" overflow="visible" />
            </clipPath>
            <g clip-path="url(#L)">
                <image overflow="visible" width="46" height="46" xlink:href="920431C5.png"
                       transform="matrix(.24 0 0 .24 1764.05 316.412)" />
            </g>
        </g>
    </g>
    <path fill="#D8EEEF" d="M1769.475 319.697l-.371 2.128.371 2.128.371-2.128z" />
    <path fill="#D8EEEF" d="M1771.603 321.825l-2.128-.37-2.128.37 2.128.371z" />
    <g opacity=".9">
        <defs>
            <path id="M" d="M1297.291 146.057h10.8v11.04h-10.8z" />
        </defs>
        <clipPath id="N">
            <use xlink:href="#M" overflow="visible" />
        </clipPath>
        <g clip-path="url(#N)">
            <defs>
                <path id="O" d="M1297.29 146.056h10.801v11.04h-10.801z" />
            </defs>
            <clipPath id="P">
                <use xlink:href="#O" overflow="visible" />
            </clipPath>
            <g clip-path="url(#P)">
                <image overflow="visible" width="45" height="46" xlink:href="920431C6.png"
                       transform="matrix(.24 0 0 .24 1297.29 146.056)" />
            </g>
        </g>
    </g>
    <path fill="#D8EEEF" d="M1302.574 149.423l-.371 2.128.371 2.128.371-2.128z" />
    <path fill="#D8EEEF" d="M1304.702 151.551l-2.128-.371-2.128.371 2.128.371z" />
    <g opacity=".9">
        <defs>
            <path id="Q" d="M1707.971 54.82h11.041v11.04h-11.041z" />
        </defs>
        <clipPath id="R">
            <use xlink:href="#Q" overflow="visible" />
        </clipPath>
        <g clip-path="url(#R)">
            <defs>
                <path id="S" d="M1707.971 54.819h11.04v11.04h-11.04z" />
            </defs>
            <clipPath id="T">
                <use xlink:href="#S" overflow="visible" />
            </clipPath>
            <g clip-path="url(#T)">
                <image overflow="visible" width="46" height="46" xlink:href="1A9B3130.png"
                       transform="matrix(.24 0 0 .24 1707.97 54.82)" />
            </g>
        </g>
    </g>
    <path fill="#D8EEEF" d="M1713.427 58.129l-.371 2.128.371 2.128.371-2.128z" />
    <path fill="#D8EEEF" d="M1715.555 60.257l-2.128-.371-2.128.371 2.128.371z" />
    <g opacity=".9">
        <defs>
            <path id="U" d="M1194.316 247.994h11.04v11.04h-11.04z" />
        </defs>
        <clipPath id="V">
            <use xlink:href="#U" overflow="visible" />
        </clipPath>
        <g clip-path="url(#V)">
            <defs>
                <path id="W" d="M1194.316 247.994h11.04v11.04h-11.04z" />
            </defs>
            <clipPath id="X">
                <use xlink:href="#W" overflow="visible" />
            </clipPath>
            <g clip-path="url(#X)">
                <image overflow="visible" width="46" height="46" xlink:href="1A9B3137.png"
                       transform="matrix(.24 0 0 .24 1194.316 247.994)" />
            </g>
        </g>
    </g>
    <path fill="#D8EEEF" d="M1199.708 251.29l-.371 2.127.371 2.128.371-2.128z" />
    <path fill="#D8EEEF" d="M1201.836 253.417l-2.128-.371-2.128.371 2.128.372z" />
    <g opacity=".9">
        <defs>
            <path id="Y" d="M1504.603 139.84h11.04v11.04h-11.04z" />
        </defs>
        <clipPath id="Z">
            <use xlink:href="#Y" overflow="visible" />
        </clipPath>
        <g clip-path="url(#Z)">
            <defs>
                <path id="aa" d="M1504.602 139.84h11.04v11.04h-11.04z" />
            </defs>
            <clipPath id="ab">
                <use xlink:href="#aa" overflow="visible" />
            </clipPath>
            <g clip-path="url(#ab)">
                <image overflow="visible" width="46" height="46" xlink:href="1A9B3131.png"
                       transform="matrix(.24 0 0 .24 1504.602 139.84)" />
            </g>
        </g>
    </g>
    <path fill="#D8EEEF" d="M1510.058 143.056l-.371 2.128.371 2.128.371-2.128z" />
    <path fill="#D8EEEF" d="M1512.186 145.184l-2.128-.371-2.128.371 2.128.371z" />
    <g opacity=".9">
        <defs>
            <path id="ac" d="M673.672 102.253h11.04v13.707h-11.04z" />
        </defs>
        <clipPath id="ad">
            <use xlink:href="#ac" overflow="visible" />
        </clipPath>
        <g clip-path="url(#ad)">
            <defs>
                <path id="ae" d="M673.672 102.253h11.04v13.707h-11.04z" />
            </defs>
            <clipPath id="af">
                <use xlink:href="#ae" overflow="visible" />
            </clipPath>
            <g clip-path="url(#af)">
                <image overflow="visible" width="46" height="46" xlink:href="1A9B3133.png"
                       transform="matrix(.24 0 0 .298 673.672 102.253)" />
            </g>
        </g>
    </g>
    <path fill="#D8EEEF" d="M679.128 106.345l-.371 2.642.371 2.642.371-2.642z" />
    <path fill="#D8EEEF" d="M681.256 108.987l-2.128-.461-2.128.461 2.128.46z" />
    <g opacity=".9">
        <defs>
            <path id="ag" d="M1591.068 377.254h11.04v11.04h-11.04z" />
        </defs>
        <clipPath id="ah">
            <use xlink:href="#ag" overflow="visible" />
        </clipPath>
        <g clip-path="url(#ah)">
            <defs>
                <path id="ai" d="M1591.067 377.254h11.04v11.04h-11.04z" />
            </defs>
            <clipPath id="aj">
                <use xlink:href="#ai" overflow="visible" />
            </clipPath>
            <g clip-path="url(#aj)">
                <image overflow="visible" width="46" height="46" xlink:href="1A9B312F.png"
                       transform="matrix(.24 0 0 .24 1591.067 377.254)" />
            </g>
        </g>
    </g>
    <path fill="#D8EEEF" d="M1596.471 380.482l-.371 2.128.371 2.128.37-2.128z" />
    <path fill="#D8EEEF" d="M1598.599 382.61l-2.128-.37-2.128.37 2.128.371z" />
    <g opacity=".9">
        <defs>
            <path id="ak" d="M752.837 399.145h11.04v10.8h-11.04z" />
        </defs>
        <clipPath id="al">
            <use xlink:href="#ak" overflow="visible" />
        </clipPath>
        <g clip-path="url(#al)">
            <defs>
                <path id="am" d="M752.837 399.145h11.04v10.8h-11.04z" />
            </defs>
            <clipPath id="an">
                <use xlink:href="#am" overflow="visible" />
            </clipPath>
            <g clip-path="url(#an)">
                <image overflow="visible" width="46" height="45" xlink:href="1A9B312D.png"
                       transform="matrix(.24 0 0 .24 752.837 399.144)" />
            </g>
        </g>
    </g>
    <path fill="#D8EEEF" d="M758.333 402.32l-.371 2.128.371 2.128.372-2.128z" />
    <path fill="#D8EEEF" d="M760.461 404.448l-2.128-.371-2.127.371 2.127.371z" />
    <g opacity=".9">
        <defs>
            <path id="ao" d="M1007.496 308.233h11.041v10.8h-11.041z" />
        </defs>
        <clipPath id="ap">
            <use xlink:href="#ao" overflow="visible" />
        </clipPath>
        <g clip-path="url(#ap)">
            <defs>
                <path id="aq" d="M1007.496 308.233h11.04v10.8h-11.04z" />
            </defs>
            <clipPath id="ar">
                <use xlink:href="#aq" overflow="visible" />
            </clipPath>
            <g clip-path="url(#ar)">
                <image overflow="visible" width="46" height="45" xlink:href="1A9B3150.png"
                       transform="matrix(.24 0 0 .24 1007.496 308.233)" />
            </g>
        </g>
    </g>
    <path fill="#D8EEEF" d="M1013 311.398l-.371 2.128.371 2.128.371-2.128z" />
    <path fill="#D8EEEF" d="M1015.128 313.526l-2.128-.37-2.128.37 2.128.371z" />
    <g opacity=".3">
        <defs>
            <path id="as" d="M1695.02 522.324h27.359v27.359h-27.359z" />
        </defs>
        <clipPath id="at">
            <use xlink:href="#as" overflow="visible" />
        </clipPath>
        <g opacity=".9" clip-path="url(#at)">
            <defs>
                <path id="au" d="M1695.02 522.324h27.359v27.359h-27.359z" />
            </defs>
            <clipPath id="av">
                <use xlink:href="#au" overflow="visible" />
            </clipPath>
            <g clip-path="url(#av)">
                <defs>
                    <path id="aw" d="M1695.02 522.324h27.359v27.36h-27.359z" />
                </defs>
                <clipPath id="ax">
                    <use xlink:href="#aw" overflow="visible" />
                </clipPath>
                <g clip-path="url(#ax)">
                    <defs>
                        <path id="ay" d="M1695.02 522.324h27.36v27.359h-27.36z" />
                    </defs>
                    <clipPath id="az">
                        <use xlink:href="#ay" overflow="visible" />
                    </clipPath>
                    <g clip-path="url(#az)">
                        <image overflow="visible" width="114" height="114" xlink:href="1A9B3153.png"
                               transform="matrix(.24 0 0 .24 1695.02 522.324)" />
                    </g>
                </g>
            </g>
        </g>
        <path clip-path="url(#at)" fill="#D8EEEF" d="M1708.554 530.497l-.95 5.453.95 5.453.95-5.453z" />
        <path clip-path="url(#at)" fill="#D8EEEF" d="M1714.007 535.95l-5.453-.95-5.453.95 5.453.95z" />
    </g>
    <g opacity=".2">
        <defs>
            <path id="aA" d="M1051.936 439.032h11.041v11.04h-11.041z" />
        </defs>
        <clipPath id="aB">
            <use xlink:href="#aA" overflow="visible" />
        </clipPath>
        <g opacity=".9" clip-path="url(#aB)">
            <defs>
                <path id="aC" d="M1051.936 439.032h11.041v11.04h-11.041z" />
            </defs>
            <clipPath id="aD">
                <use xlink:href="#aC" overflow="visible" />
            </clipPath>
            <g clip-path="url(#aD)">
                <defs>
                    <path id="aE" d="M1051.936 439.032h11.04v11.04h-11.04z" />
                </defs>
                <clipPath id="aF">
                    <use xlink:href="#aE" overflow="visible" />
                </clipPath>
                <g clip-path="url(#aF)">
                    <image overflow="visible" width="46" height="46" xlink:href="1A9B3151.png"
                           transform="matrix(.24 0 0 .24 1051.936 439.032)" />
                </g>
            </g>
        </g>
        <path clip-path="url(#aB)" fill="#D8EEEF" d="M1057.359 442.376l-.371 2.128.371 2.128.371-2.128z" />
        <path clip-path="url(#aB)" fill="#D8EEEF" d="M1059.487 444.504l-2.128-.371-2.128.371 2.128.371z" />
    </g>
    <g opacity=".9">
        <defs>
            <path id="aG" d="M891.469 182.827h11.04v11.04h-11.04z" />
        </defs>
        <clipPath id="aH">
            <use xlink:href="#aG" overflow="visible" />
        </clipPath>
        <g clip-path="url(#aH)">
            <defs>
                <path id="aI" d="M891.468 182.827h11.041v11.04h-11.041z" />
            </defs>
            <clipPath id="aJ">
                <use xlink:href="#aI" overflow="visible" />
            </clipPath>
            <g clip-path="url(#aJ)">
                <image overflow="visible" width="46" height="46" xlink:href="1A9B3157.png"
                       transform="matrix(.24 0 0 .24 891.468 182.827)" />
            </g>
        </g>
    </g>
    <path fill="#D8EEEF" d="M896.872 186.192l-.371 2.128.371 2.128.371-2.128z" />
    <path fill="#D8EEEF" d="M899 188.32l-2.128-.371-2.128.371 2.128.371z" />
    <g opacity=".9">
        <defs>
            <path id="aK" d="M1066.966 166.413h28.561v28.8h-28.561z" />
        </defs>
        <clipPath id="aL">
            <use xlink:href="#aK" overflow="visible" />
        </clipPath>
        <g clip-path="url(#aL)">
            <defs>
                <path id="aM" d="M1066.967 166.413h28.56v28.8h-28.56z" />
            </defs>
            <clipPath id="aN">
                <use xlink:href="#aM" overflow="visible" />
            </clipPath>
            <g clip-path="url(#aN)">
                <image overflow="visible" width="119" height="120" xlink:href="1A9B314A.png"
                       transform="matrix(.24 0 0 .24 1066.967 166.413)" />
            </g>
        </g>
    </g>
    <path fill="#D8EEEF" d="M1081.23 175.078l-1.002 5.756 1.002 5.756 1.003-5.756z" />
    <path fill="#D8EEEF" d="M1086.986 180.834l-5.756-1.003-5.755 1.003 5.755 1.003z" />
    <g opacity=".9">
        <defs>
            <path id="aO" d="M1269.609 111.417h28.801v28.56h-28.801z" />
        </defs>
        <clipPath id="aP">
            <use xlink:href="#aO" overflow="visible" />
        </clipPath>
        <g clip-path="url(#aP)">
            <defs>
                <path id="aQ" d="M1269.61 111.417h28.8v28.56h-28.8z" />
            </defs>
            <clipPath id="aR">
                <use xlink:href="#aQ" overflow="visible" />
            </clipPath>
            <g clip-path="url(#aR)">
                <image overflow="visible" width="120" height="119" xlink:href="1A9B3175.png"
                       transform="matrix(.24 0 0 .24 1269.61 111.416)" />
            </g>
        </g>
    </g>
    <path fill="#D8EEEF" d="M1284.074 119.921l-1.003 5.756 1.003 5.757 1.003-5.757z" />
    <path fill="#D8EEEF" d="M1289.83 125.677l-5.756-1.003-5.756 1.003 5.756 1.003z" />
    <g opacity=".2">
        <defs>
            <path id="aS" d="M753.924 188.862h28.8v28.8h-28.8z" />
        </defs>
        <clipPath id="aT">
            <use xlink:href="#aS" overflow="visible" />
        </clipPath>
        <g opacity=".9" clip-path="url(#aT)">
            <defs>
                <path id="aU" d="M753.924 188.862h28.8v28.8h-28.8z" />
            </defs>
            <clipPath id="aV">
                <use xlink:href="#aU" overflow="visible" />
            </clipPath>
            <g clip-path="url(#aV)">
                <defs>
                    <path id="aW" d="M753.923 188.862h28.801v28.8h-28.801z" />
                </defs>
                <clipPath id="aX">
                    <use xlink:href="#aW" overflow="visible" />
                </clipPath>
                <g clip-path="url(#aX)">
                    <image overflow="visible" width="120" height="120" xlink:href="1A9B3177.png"
                           transform="matrix(.24 0 0 .24 753.923 188.862)" />
                </g>
            </g>
        </g>
        <path clip-path="url(#aT)" fill="#D8EEEF" d="M768.333 197.567l-1.001 5.756 1.001 5.757 1.004-5.757z" />
        <path clip-path="url(#aT)" fill="#D8EEEF" d="M774.089 203.323l-5.756-1.003-5.755 1.003 5.755 1.003z" />
    </g>
    <g opacity=".9">
        <defs>
            <path id="aY" d="M408.656 146.298h28.8v28.56h-28.8z" />
        </defs>
        <clipPath id="aZ">
            <use xlink:href="#aY" overflow="visible" />
        </clipPath>
        <g clip-path="url(#aZ)">
            <defs>
                <path id="ba" d="M408.656 146.298h28.8v28.56h-28.8z" />
            </defs>
            <clipPath id="bb">
                <use xlink:href="#ba" overflow="visible" />
            </clipPath>
            <g clip-path="url(#bb)">
                <image overflow="visible" width="120" height="119" xlink:href="1A9B317A.png"
                       transform="matrix(.24 0 0 .24 408.656 146.298)" />
            </g>
        </g>
    </g>
    <path fill="#D8EEEF" d="M423 154.809l-1.003 5.755L423 166.32l1.003-5.756z" />
    <path fill="#D8EEEF" d="M428.756 160.564L423 159.562l-5.756 1.002 5.756 1.003z" />
    <g opacity=".3">
        <defs>
            <path id="bc" d="M1553.034 583.831h11.28v11.28h-11.28z" />
        </defs>
        <clipPath id="bd">
            <use xlink:href="#bc" overflow="visible" />
        </clipPath>
        <g opacity=".9" clip-path="url(#bd)">
            <defs>
                <path id="be" d="M1553.034 583.831h11.28v11.28h-11.28z" />
            </defs>
            <clipPath id="bf">
                <use xlink:href="#be" overflow="visible" />
            </clipPath>
            <g clip-path="url(#bf)">
                <defs>
                    <path id="bg" d="M1553.034 583.831h11.28v11.28h-11.28z" />
                </defs>
                <clipPath id="bh">
                    <use xlink:href="#bg" overflow="visible" />
                </clipPath>
                <g clip-path="url(#bh)">
                    <image overflow="visible" width="47" height="47" xlink:href="1A9B317B.png"
                           transform="matrix(.24 0 0 .24 1553.034 583.831)" />
                </g>
            </g>
        </g>
        <path clip-path="url(#bd)" fill="#D8EEEF" d="M1558.517 587.14l-.385 2.211.385 2.212.385-2.212z" />
        <path clip-path="url(#bd)" fill="#D8EEEF" d="M1560.729 589.351l-2.212-.385-2.211.385 2.211.385z" />
    </g>
    <g opacity=".9">
        <defs>
            <path id="bi" d="M1577.219 198.336h21.84v22.08h-21.84z" />
        </defs>
        <clipPath id="bj">
            <use xlink:href="#bi" overflow="visible" />
        </clipPath>
        <g clip-path="url(#bj)">
            <defs>
                <path id="bk" d="M1577.219 198.336h21.84v22.08h-21.84z" />
            </defs>
            <clipPath id="bl">
                <use xlink:href="#bk" overflow="visible" />
            </clipPath>
            <g clip-path="url(#bl)">
                <image overflow="visible" width="91" height="92" xlink:href="1A9B317D.png"
                       transform="matrix(.24 0 0 .24 1577.219 198.336)" />
            </g>
        </g>
    </g>
    <path fill="#D8EEEF" d="M1207.869 222.081l-.764 4.378.764 4.378.763-4.378z" />
    <path fill="#D8EEEF" d="M1212.247 226.459l-4.378-.763-4.378.763 4.378.763z" />
    <g opacity=".9">
        <defs>
            <path id="bm" d="M953.092 223.095h22.08v22.08h-22.08z" />
        </defs>
        <clipPath id="bn">
            <use xlink:href="#bm" overflow="visible" />
        </clipPath>
        <g clip-path="url(#bn)">
            <defs>
                <path id="bo" d="M953.092 223.095h22.08v22.08h-22.08z" />
            </defs>
            <clipPath id="bp">
                <use xlink:href="#bo" overflow="visible" />
            </clipPath>
            <g clip-path="url(#bp)">
                <image overflow="visible" width="92" height="92" xlink:href="1A9B317F.png"
                       transform="matrix(.24 0 0 .24 953.092 223.095)" />
            </g>
        </g>
    </g>
    <path fill="#D8EEEF" d="M964.078 229.747l-.762 4.378.762 4.378.764-4.378z" />
    <path fill="#D8EEEF" d="M968.457 234.125l-4.379-.764-4.376.764 4.376.763z" />
    <g opacity=".9">
        <defs>
            <path id="bq" d="M1483.277 104.356h21.84v22.08h-21.84z" />
        </defs>
        <clipPath id="br">
            <use xlink:href="#bq" overflow="visible" />
        </clipPath>
        <g clip-path="url(#br)">
            <defs>
                <path id="bs" d="M1483.277 104.356h21.84v22.08h-21.84z" />
            </defs>
            <clipPath id="bt">
                <use xlink:href="#bs" overflow="visible" />
            </clipPath>
            <g clip-path="url(#bt)">
                <image overflow="visible" width="91" height="92" xlink:href="1A9B3178.png"
                       transform="matrix(.24 0 0 .24 1483.277 104.356)" />
            </g>
        </g>
    </g>
    <path fill="#D8EEEF" d="M1494.186 111.043l-.763 4.378.763 4.378.762-4.378z" />
    <path fill="#D8EEEF" d="M1498.563 115.421l-4.377-.762-4.378.762 4.378.764z" />
    <g opacity=".9">
        <defs>
            <path id="bu" d="M1787.151 136.049h28.8v28.801h-28.8z" />
        </defs>
        <clipPath id="bv">
            <use xlink:href="#bu" overflow="visible" />
        </clipPath>
        <g clip-path="url(#bv)">
            <defs>
                <path id="bw" d="M1787.152 136.049h28.8v28.8h-28.8z" />
            </defs>
            <clipPath id="bx">
                <use xlink:href="#bw" overflow="visible" />
            </clipPath>
            <g clip-path="url(#bx)">
                <image overflow="visible" width="120" height="120" xlink:href="1A9B3179.png"
                       transform="matrix(.24 0 0 .24 1787.152 136.049)" />
            </g>
        </g>
    </g>
    <path fill="#D8EEEF" d="M1801.549 144.661l-1.003 5.756 1.003 5.756 1.003-5.756z" />
    <path fill="#D8EEEF" d="M1807.305 150.417l-5.756-1.004-5.756 1.004 5.756 1.003z" />
    <g opacity=".9">
        <defs>
            <path id="by" d="M845.389 39.636h28.8v28.8h-28.8z" />
        </defs>
        <clipPath id="bz">
            <use xlink:href="#by" overflow="visible" />
        </clipPath>
        <g clip-path="url(#bz)">
            <defs>
                <path id="bA" d="M845.39 39.635h28.799v28.8H845.39z" />
            </defs>
            <clipPath id="bB">
                <use xlink:href="#bA" overflow="visible" />
            </clipPath>
            <g clip-path="url(#bB)">
                <image overflow="visible" width="120" height="120" xlink:href="1A9B3176.png"
                       transform="matrix(.24 0 0 .24 845.39 39.635)" />
            </g>
        </g>
    </g>
    <path fill="#D8EEEF" d="M859.667 48.234l-1.004 5.755 1.004 5.756 1.002-5.756z" />
    <path fill="#D8EEEF" d="M865.423 53.99l-5.756-1.003-5.756 1.003 5.756 1.003z" />
    <g opacity=".9">
        <defs>
            <path id="bC" d="M211.362 494.862h28.801v28.8h-28.801z" />
        </defs>
        <clipPath id="bD">
            <use xlink:href="#bC" overflow="visible" />
        </clipPath>
        <g clip-path="url(#bD)">
            <defs>
                <path id="bE" d="M211.363 494.862h28.8v28.8h-28.8z" />
            </defs>
            <clipPath id="bF">
                <use xlink:href="#bE" overflow="visible" />
            </clipPath>
            <g clip-path="url(#bF)">
                <image overflow="visible" width="120" height="120" xlink:href="1A9B319A.png"
                       transform="matrix(.24 0 0 .24 211.363 494.862)" />
            </g>
        </g>
    </g>
    <path fill="#D8EEEF" d="M225.667 503.567l-1.003 5.756 1.003 5.756 1.003-5.756z" />
    <path fill="#D8EEEF" d="M231.423 509.323l-5.756-1.003-5.756 1.003 5.756 1.003z" />
    <g opacity=".9">
        <defs>
            <path id="bG" d="M524.63 53.634h28.799v28.8H524.63z" />
        </defs>
        <clipPath id="bH">
            <use xlink:href="#bG" overflow="visible" />
        </clipPath>
        <g clip-path="url(#bH)">
            <defs>
                <path id="bI" d="M524.63 53.634h28.799v28.8H524.63z" />
            </defs>
            <clipPath id="bJ">
                <use xlink:href="#bI" overflow="visible" />
            </clipPath>
            <g clip-path="url(#bJ)">
                <image overflow="visible" width="120" height="120" xlink:href="1A9B31A5.png"
                       transform="matrix(.24 0 0 .24 524.63 53.634)" />
            </g>
        </g>
    </g>
    <path fill="#D8EEEF" d="M539 62.234l-1.003 5.756L539 73.746l1.003-5.756z" />
    <path fill="#D8EEEF" d="M544.756 67.99L539 66.987l-5.756 1.003L539 68.993z" />
    <g opacity=".2">
        <defs>
            <path id="bK" d="M823.337 289.008h28.8v28.8h-28.8z" />
        </defs>
        <clipPath id="bL">
            <use xlink:href="#bK" overflow="visible" />
        </clipPath>
        <g opacity=".9" clip-path="url(#bL)">
            <defs>
                <path id="bM" d="M823.337 289.008h28.8v28.8h-28.8z" />
            </defs>
            <clipPath id="bN">
                <use xlink:href="#bM" overflow="visible" />
            </clipPath>
            <g clip-path="url(#bN)">
                <defs>
                    <path id="bO" d="M823.337 289.008h28.8v28.8h-28.8z" />
                </defs>
                <clipPath id="bP">
                    <use xlink:href="#bO" overflow="visible" />
                </clipPath>
                <g clip-path="url(#bP)">
                    <image overflow="visible" width="120" height="120" xlink:href="1A9B31A6.png"
                           transform="matrix(.24 0 0 .24 823.337 289.008)" />
                </g>
            </g>
        </g>
        <path clip-path="url(#bL)" fill="#D8EEEF" d="M837.667 297.567l-1.003 5.756 1.003 5.756 1.003-5.756z" />
        <path clip-path="url(#bL)" fill="#D8EEEF" d="M843.423 303.323l-5.756-1.003-5.756 1.003 5.756 1.004z" />
    </g>
    <path fill="#F6CD40"
          d="M644.417 499.07a1.416 1.416 0 11-2.831 0 1.416 1.416 0 012.831 0m928.645 50.161a1.416 1.416 0 11-2.833.001 1.416 1.416 0 012.833-.001m-406.065-310.814a1.418 1.418 0 11-2.836-.002 1.418 1.418 0 012.836.002M1443.125 429.9a2.656 2.656 0 11-5.312 0 2.656 2.656 0 015.312 0m-891.958-73.58a1.417 1.417 0 11-2.834 0 1.417 1.417 0 012.834 0m1087.804-249.813a1.416 1.416 0 11-2.833.001 1.416 1.416 0 012.833-.001m-570.324 24.746a1.417 1.417 0 11-2.834 0 1.417 1.417 0 012.834 0" />
    <g opacity=".75">
        <defs>
            <path id="bQ" d="M201.712 72.187h53.76v53.76h-53.76z" />
        </defs>
        <clipPath id="bR">
            <use xlink:href="#bQ" overflow="visible" />
        </clipPath>
        <g clip-path="url(#bR)">
            <defs>
                <path id="bS" d="M201.712 72.187h53.76v53.76h-53.76z" />
            </defs>
            <clipPath id="bT">
                <use xlink:href="#bS" overflow="visible" />
            </clipPath>
            <g clip-path="url(#bT)">
                <image overflow="visible" width="224" height="224" xlink:href="1A9B31A4.png"
                       transform="matrix(.24 0 0 .24 201.712 72.187)" />
            </g>
        </g>
    </g>
    <path fill="#D60364" d="M234.24 99.01a5.737 5.737 0 11-11.474 0 5.737 5.737 0 0111.474 0" />
    <g opacity=".75">
        <defs>
            <path id="bU" d="M201.712 72.187h53.76v53.76h-53.76z" />
        </defs>
        <clipPath id="bV">
            <use xlink:href="#bU" overflow="visible" />
        </clipPath>
        <g clip-path="url(#bV)">
            <defs>
                <path id="bW" d="M201.712 72.187h53.76v53.76h-53.76z" />
            </defs>
            <clipPath id="bX">
                <use xlink:href="#bW" overflow="visible" />
            </clipPath>
            <g clip-path="url(#bX)">
                <image overflow="visible" width="224" height="224" xlink:href="1A9B31AA.png"
                       transform="matrix(.24 0 0 .24 201.712 72.187)" />
            </g>
        </g>
    </g>
    <path fill="#D60364" d="M234.24 99.01a5.737 5.737 0 11-11.474 0 5.737 5.737 0 0111.474 0" />
    <g opacity=".75">
        <defs>
            <path id="bY" d="M201.712 72.187h53.76v53.76h-53.76z" />
        </defs>
        <clipPath id="bZ">
            <use xlink:href="#bY" overflow="visible" />
        </clipPath>
        <g clip-path="url(#bZ)">
            <defs>
                <path id="ca" d="M201.712 72.187h53.76v53.76h-53.76z" />
            </defs>
            <clipPath id="cb">
                <use xlink:href="#ca" overflow="visible" />
            </clipPath>
            <g clip-path="url(#cb)">
                <image overflow="visible" width="224" height="224" xlink:href="1A9B31AD.png"
                       transform="matrix(.24 0 0 .24 201.712 72.187)" />
            </g>
        </g>
    </g>
    <path fill="#D60364" d="M234.24 99.01a5.737 5.737 0 11-11.474 0 5.737 5.737 0 0111.474 0" />
    <g opacity=".75">
        <defs>
            <path id="cc" d="M1038.598 132.764h17.28v17.28h-17.28z" />
        </defs>
        <clipPath id="cd">
            <use xlink:href="#cc" overflow="visible" />
        </clipPath>
        <g clip-path="url(#cd)">
            <defs>
                <path id="ce" d="M1038.598 132.765h17.28v17.28h-17.28z" />
            </defs>
            <clipPath id="cf">
                <use xlink:href="#ce" overflow="visible" />
            </clipPath>
            <g clip-path="url(#cf)">
                <image overflow="visible" width="72" height="72" xlink:href="1A9B31AE.png"
                       transform="matrix(.24 0 0 .24 1038.598 132.765)" />
            </g>
        </g>
    </g>
    <path fill="#D60364" d="M1048.897 141.232a1.813 1.813 0 11-3.626-.002 1.813 1.813 0 013.626.002" />
    <g opacity=".75">
        <defs>
            <path id="cg" d="M1038.598 132.764h17.28v17.28h-17.28z" />
        </defs>
        <clipPath id="ch">
            <use xlink:href="#cg" overflow="visible" />
        </clipPath>
        <g clip-path="url(#ch)">
            <defs>
                <path id="ci" d="M1038.598 132.765h17.28v17.28h-17.28z" />
            </defs>
            <clipPath id="cj">
                <use xlink:href="#ci" overflow="visible" />
            </clipPath>
            <g clip-path="url(#cj)">
                <image overflow="visible" width="72" height="72" xlink:href="1A9B31AC.png"
                       transform="matrix(.24 0 0 .24 1038.598 132.765)" />
            </g>
        </g>
    </g>
    <path fill="#D60364" d="M1048.897 141.232a1.813 1.813 0 11-3.626-.002 1.813 1.813 0 013.626.002" />
    <g opacity=".75">
        <defs>
            <path id="ck" d="M1038.598 132.764h17.28v17.28h-17.28z" />
        </defs>
        <clipPath id="cl">
            <use xlink:href="#ck" overflow="visible" />
        </clipPath>
        <g clip-path="url(#cl)">
            <defs>
                <path id="cm" d="M1038.598 132.765h17.28v17.28h-17.28z" />
            </defs>
            <clipPath id="cn">
                <use xlink:href="#cm" overflow="visible" />
            </clipPath>
            <g clip-path="url(#cn)">
                <image overflow="visible" width="72" height="72" xlink:href="1A9B31AB.png"
                       transform="matrix(.24 0 0 .24 1038.598 132.765)" />
            </g>
        </g>
    </g>
    <path fill="#D60364" d="M1048.897 141.232a1.813 1.813 0 11-3.626-.002 1.813 1.813 0 013.626.002" />
    <g opacity=".75">
        <defs>
            <path id="co" d="M1155.04 188.798h27.359v27.36h-27.359z" />
        </defs>
        <clipPath id="cp">
            <use xlink:href="#co" overflow="visible" />
        </clipPath>
        <g clip-path="url(#cp)">
            <defs>
                <path id="cq" d="M1155.04 188.797h27.36v27.36h-27.36z" />
            </defs>
            <clipPath id="cr">
                <use xlink:href="#cq" overflow="visible" />
            </clipPath>
            <g clip-path="url(#cr)">
                <image overflow="visible" width="114" height="114" xlink:href="1A9B31A7.png"
                       transform="matrix(.24 0 0 .24 1155.04 188.797)" />
            </g>
        </g>
    </g>
    <path fill="#009FA4" d="M1171.58 202.417a3 3 0 11-6 0 3 3 0 016 0" />
    <g opacity=".75">
        <defs>
            <path id="cs" d="M1155.04 188.798h27.359v27.36h-27.359z" />
        </defs>
        <clipPath id="ct">
            <use xlink:href="#cs" overflow="visible" />
        </clipPath>
        <g clip-path="url(#ct)">
            <defs>
                <path id="cu" d="M1155.04 188.797h27.36v27.36h-27.36z" />
            </defs>
            <clipPath id="cv">
                <use xlink:href="#cu" overflow="visible" />
            </clipPath>
            <g clip-path="url(#cv)">
                <image overflow="visible" width="114" height="114" xlink:href="1A9B3181.png"
                       transform="matrix(.24 0 0 .24 1155.04 188.797)" />
            </g>
        </g>
    </g>
    <path fill="#009FA4" d="M1171.58 202.417a3 3 0 11-6 0 3 3 0 016 0" />
    <g opacity=".75">
        <defs>
            <path id="cw" d="M1155.04 188.798h27.359v27.36h-27.359z" />
        </defs>
        <clipPath id="cx">
            <use xlink:href="#cw" overflow="visible" />
        </clipPath>
        <g clip-path="url(#cx)">
            <defs>
                <path id="cy" d="M1155.04 188.797h27.36v27.36h-27.36z" />
            </defs>
            <clipPath id="cz">
                <use xlink:href="#cy" overflow="visible" />
            </clipPath>
            <g clip-path="url(#cz)">
                <image overflow="visible" width="114" height="114" xlink:href="1A9B3183.png"
                       transform="matrix(.24 0 0 .24 1155.04 188.797)" />
            </g>
        </g>
    </g>
    <path fill="#009FA4" d="M1171.58 202.417a3 3 0 11-6 0 3 3 0 016 0" />
    <g opacity=".75">
        <defs>
            <path id="cA" d="M1155.04 188.798h27.359v27.36h-27.359z" />
        </defs>
        <clipPath id="cB">
            <use xlink:href="#cA" overflow="visible" />
        </clipPath>
        <g clip-path="url(#cB)">
            <defs>
                <path id="cC" d="M1155.04 188.797h27.36v27.36h-27.36z" />
            </defs>
            <clipPath id="cD">
                <use xlink:href="#cC" overflow="visible" />
            </clipPath>
            <g clip-path="url(#cD)">
                <image overflow="visible" width="114" height="114" xlink:href="1A9B3180.png"
                       transform="matrix(.24 0 0 .24 1155.04 188.797)" />
            </g>
        </g>
    </g>
    <path fill="#009FA4" d="M1171.58 202.417a3 3 0 11-6 0 3 3 0 016 0" />
    <g opacity=".75">
        <defs>
            <path id="cE" d="M1528.521 559.318h27.359v27.36h-27.359z" />
        </defs>
        <clipPath id="cF">
            <use xlink:href="#cE" overflow="visible" />
        </clipPath>
        <g clip-path="url(#cF)">
            <defs>
                <path id="cG" d="M1528.521 559.318h27.36v27.36h-27.36z" />
            </defs>
            <clipPath id="cH">
                <use xlink:href="#cG" overflow="visible" />
            </clipPath>
            <g clip-path="url(#cH)">
                <image overflow="visible" width="114" height="114" xlink:href="1A9B3187.png"
                       transform="matrix(.24 0 0 .24 1528.522 559.318)" />
            </g>
        </g>
    </g>
    <path fill="#009FA4" d="M1545.062 572.898a3 3 0 11-6 0 3 3 0 016 0" />
    <g opacity=".75">
        <defs>
            <path id="cI" d="M1528.521 559.318h27.359v27.36h-27.359z" />
        </defs>
        <clipPath id="cJ">
            <use xlink:href="#cI" overflow="visible" />
        </clipPath>
        <g clip-path="url(#cJ)">
            <defs>
                <path id="cK" d="M1528.521 559.318h27.36v27.36h-27.36z" />
            </defs>
            <clipPath id="cL">
                <use xlink:href="#cK" overflow="visible" />
            </clipPath>
            <g clip-path="url(#cL)">
                <image overflow="visible" width="114" height="114" xlink:href="1A9B3182.png"
                       transform="matrix(.24 0 0 .24 1528.522 559.318)" />
            </g>
        </g>
    </g>
    <path fill="#009FA4" d="M1545.062 572.898a3 3 0 11-6 0 3 3 0 016 0M944 582.32a3 3 0 11-6 0 3 3 0 016 0" />
    <g opacity=".75">
        <defs>
            <path id="cM" d="M1133.46 545.74h27.359v27.36h-27.359z" />
        </defs>
        <clipPath id="cN">
            <use xlink:href="#cM" overflow="visible" />
        </clipPath>
        <g clip-path="url(#cN)">
            <defs>
                <path id="cO" d="M1133.46 545.74h27.36v27.36h-27.36z" />
            </defs>
            <clipPath id="cP">
                <use xlink:href="#cO" overflow="visible" />
            </clipPath>
            <g clip-path="url(#cP)">
                <image overflow="visible" width="114" height="114" xlink:href="1A9B319E.png"
                       transform="matrix(.24 0 0 .24 1133.46 545.74)" />
            </g>
        </g>
    </g>
    <path fill="#009FA4" d="M1768.551 281.913a3 3 0 11-6 0 3 3 0 016 0" />
    <path fill="#E0CA36"
          d="M1875.045 103.422a4.167 4.167 0 11-8.335 0 4.167 4.167 0 018.335 0M659.525 581.877a4.165 4.165 0 11-8.332 0 4.166 4.166 0 118.332 0" />
    <path fill="#131313" d="M95.723 217.41l.944 1.48-.616.393-.945-1.48z" />
    <path fill="#59AAD8" d="M97.932 216.44l-4.625 2.951-9.408-14.74 4.625-2.952z" />
    <path fill="#FFF" d="M86.23 203.149l9.407 14.74-.063.04-9.406-14.74z" />
    <path fill="#FFF"
          d="M96.725 214.56l.04.063-4.61 2.977-.04-.063zm-1.805-2.827l.04.063-4.61 2.976-.04-.063zm-1.78-2.797l.04.062-4.644 2.925-.04-.062zm-1.806-2.828l.04.062-4.643 2.924-.038-.062zm-1.804-2.828l.04.062-4.643 2.924-.04-.062z" />
    <path fill="#131313" d="M98.557 221.875l.944 1.48-.617.393-.943-1.48z" />
    <path fill="#59AAD8" d="M110.714 236.503l-4.626 2.953-9.408-14.741 4.627-2.953z" />
    <path fill="#FFF" d="M99.043 223.206l9.405 14.742-.062.039-9.404-14.742z" />
    <path fill="#FFF"
          d="M102.48 223.576l.04.061-4.643 2.925-.039-.062zm1.762 2.787l.041.062-4.577 3.028-.041-.062zm1.805 2.829l.041.062-4.578 3.028-.041-.062zm1.848 2.87l.039.061-4.642 2.925-.039-.062zm1.78 2.795l.04.062-4.609 2.976-.04-.062z" />
    <path fill="#FAFFFF" d="M100.075 216.113l2.466 3.866-9.006 5.745-2.466-3.866z" />
    <path fill="#59AAD8" d="M97.834 217.56l2.466 3.865-1.276.813-2.465-3.864z" />
    <path fill="#FAFFFF"
          d="M102.954 215.305l1.535 2.406-2.406 1.535-1.535-2.406zm-11.411 7.279l1.535 2.406-.895.57-1.535-2.405zm-4.07.523a3.182 3.182 0 113.424 5.366" />
    <g opacity=".2">
        <defs>
            <path id="cQ" d="M100.553 216.637h1.858v2.612h-1.858z" />
        </defs>
        <clipPath id="cR">
            <use xlink:href="#cQ" overflow="visible" />
        </clipPath>
        <path transform="rotate(57.459 101.485 217.937)" clip-path="url(#cR)" fill="#131313"
              d="M100.056 217.752h2.854v.384h-2.854z" />
    </g>
    <g opacity=".2">
        <defs>
            <path id="cS" d="M91.239 222.589h1.843v2.603h-1.843z" />
        </defs>
        <clipPath id="cT">
            <use xlink:href="#cS" overflow="visible" />
        </clipPath>
        <path transform="rotate(57.446 92.156 223.893)" clip-path="url(#cT)" fill="#131313"
              d="M90.734 223.708h2.853v.366h-2.853z" />
    </g>
    <path fill="#FF039F" d="M99.325 221.2a.28.28 0 11-.302-.473.28.28 0 01.302.473" />
    <g opacity=".2">
        <defs>
            <path id="cU" d="M68.176 215.32H90v33.824H68.176z" />
        </defs>
        <clipPath id="cV">
            <use xlink:href="#cU" overflow="visible" />
        </clipPath>
        <path clip-path="url(#cV)" fill="#F1F1F1"
              d="M89.971 239.725a13.415 13.415 0 01-11.291-7.035 13.42 13.42 0 01.377-13.296l.476.29a12.86 12.86 0 00-.362 12.744 12.858 12.858 0 0010.822 6.74l-.022.557z" />
        <path clip-path="url(#cV)" fill="#F1F1F1"
              d="M89.979 243.688c-6.229-.23-11.93-3.781-14.875-9.268-2.944-5.486-2.754-12.198.498-17.517l.475.29c-3.148 5.151-3.333 11.651-.482 16.964 2.853 5.313 8.372 8.752 14.406 8.974l-.022.557z" />
        <path clip-path="url(#cV)" fill="#F1F1F1"
              d="M89.59 249.145c-7.868-.29-15.066-4.774-18.785-11.703-3.719-6.928-3.479-15.405.627-22.122l.475.291c-4.002 6.549-4.236 14.813-.611 21.568 3.626 6.756 10.645 11.127 18.316 11.409l-.022.557z" />
    </g>
    <g opacity=".2">
        <defs>
            <path id="cW" d="M97.518 196.757h28.209v32.017H97.518z" />
        </defs>
        <clipPath id="cX">
            <use xlink:href="#cW" overflow="visible" />
        </clipPath>
        <path clip-path="url(#cX)" fill="#F1F1F1"
              d="M99.246 207.165a14.508 14.508 0 0113.533 4.883 14.509 14.509 0 012.61 14.145l-.567-.199a13.908 13.908 0 00-2.502-13.557 13.907 13.907 0 00-12.97-4.679l-.104-.593z" />
        <path clip-path="url(#cX)" fill="#F1F1F1"
              d="M98.342 202.977c6.64-1.167 13.471 1.298 17.826 6.433 4.356 5.134 5.674 12.275 3.44 18.635l-.567-.199c2.162-6.16.887-13.075-3.332-18.047-4.219-4.973-10.832-7.359-17.264-6.229l-.103-.593z" />
        <path clip-path="url(#cX)" fill="#F1F1F1"
              d="M97.518 197.118c8.385-1.475 17.012 1.638 22.514 8.123 5.5 6.484 7.164 15.502 4.344 23.534l-.568-.2c2.751-7.831 1.128-16.623-4.234-22.945-5.365-6.323-13.775-9.357-21.951-7.919l-.105-.593z" />
    </g>
</svg>
