<svg xmlns="http://www.w3.org/2000/svg" xmlns:xlink="http://www.w3.org/1999/xlink" viewBox="0 0 324.321 445.509">
    <path fill="#A78462" stroke="#47292B" stroke-width="6" stroke-miterlimit="10"
          d="M199.297 315.097c-19.706 2.978-16.897 8.091-30.794 2.528-18.483-7.939-64.806-39.251-64.806-39.251 3.66-12.199 23.795-50.313 25.15-54.588 1.355-4.276 8.124 5.277 22.984-.358 14.859-5.636 18.679-8.939 30.954-15.09 13.442-6.732 42.896-26.353 57.608-40.792 14.714-14.441 15.722-30.495 29.777-48.029s31.334-31.35 27.753-2.771c-2.039 16.273-12.822 30.82-15.008 38.29 9.722-4.84 6.854 5.252 5.141 9.737-2.936 7.683-15.801 29.867-23.716 37.125 21.161-6.92-10.658 36.318-18.14 41.678 11.292-3.155 6.333 7.489 3.275 11.993-4.18 6.153-18.651 21.396-26.091 25.183 6.636 3.062 7.765 13.706-24.087 34.345z" />
    <path fill="#472A2B"
          d="M1.062 275.403c4.889-26.961 18.432-45.175 29.107-55.816-10.611-9.145-19.6-22.666-23.429-42.71C-3.784 121.789 31.668 95.8 49.457 92.401c10.306-1.969 19.435 1.724 26.77 4.687 2.494 1.011 6.049 2.447 8.079 2.81 1.755-1.085 4.53-3.731 6.476-5.59 5.727-5.459 12.851-12.256 23.156-14.226 17.788-3.397 60.329 7.691 70.854 62.779 2.591 13.561 1.878 25.21-.86 35.177l-.17.074c-3.107 9.965-8.982 20.002-16.496 28.145 0 0 20.822 14.043 29.842 51.262 14.275 58.904-6.701 92.208-11.551 100.963-.631 1.139 2.217 4.498 8.084 6.346 6.549 2.063 11.452 4.43 17.349 7.584a11.821 11.821 0 011.682 4.557c.981 6.438-3.3 10.467-4.718 11.806-3.552 3.35-7.476 5.481-11.661 6.439-1.709 8.831-8.951 22.665-19.688 24.863-.891 2.202-2.216 4.748-4.147 7.724-6.096 9.411-12.222 14.763-18.206 15.906-1.387.265-2.788.286-4.174.135-1.233.651-2.544 1.148-3.935 1.414-5.982 1.143-13.65-1.569-22.785-8.074-2.893-2.055-5.064-3.933-6.703-5.651-10.794 1.915-22.624-8.271-27.469-15.854-4.24.65-8.68.117-13.235-1.695-1.792-.714-7.256-2.887-8.716-9.228a11.847 11.847 0 01-.125-4.816c-9.171-1.501-19.058-8.335-29.467-20.419-22.21-25.776-42.576-71.022-36.581-104.116z" />
    <path fill="#A68462"
          d="M174.764 373.571a111.915 111.915 0 006.162-7.847c18.779 14.72 22.414 11.24 18.959 14.495-2.191 2.067-4.383 3.233-6.564 3.65-3.704.707-7.395-.739-11.062-3.6-3.776-2.953-5.9-5.235-7.495-6.698zm-3.025 3.354a54.216 54.216 0 012.131 1.741c5.744 4.965 10.723 8.913 11.079 13.061.279 3.275-5.554 15.863-10.745 16.854-1.387.266-2.727-.296-3.893-2.088-6.329-9.723-8.847-15.613-10.554-18.916 3.74-2.732 7.804-6.217 11.982-10.652zm-79.183 5.744a111.257 111.257 0 008.629 5.015c-.938 1.949-2.072 4.845-4.466 8.929-2.351 4.01-5.247 6.715-8.952 7.423-2.185.418-4.651.142-7.451-.973-4.403-1.75.24.135 12.24-20.394zm12.673 7.015c5.529 2.58 10.6 4.313 15.096 5.473-.364 3.701-.539 10.102-2.832 21.428-.425 2.096-1.463 3.111-2.851 3.376-5.191.992-15.254-8.559-16.199-11.707-1.197-3.986 1.973-9.491 5.482-16.225.459-.88.896-1.649 1.304-2.345zM12.633 277.5c5.268-29.052 21.646-46.595 31.667-54.898a67.965 67.965 0 004.846 2.477c-5.581 8.527-15.605 28.215-12.583 56.299.204 1.888.44 3.815.711 5.78.191 1.398.425 2.84.655 4.272.094.562.162 1.108.261 1.679.33 1.943.702 3.922 1.108 5.916.012.062.022.125.036.187 5.498 26.896 18.25 57.694 46.52 78.748.014.009.025.021.039.03-1.175 5.557-4.416 8.932-10.432 10.081-1.276.244-2.68.391-4.212.438-21.817.673-66.387-68.125-58.616-111.009zm135.691 138.835c-1.331-6.772-2.798-14.239-3.9-20.332 2.703-.978 6.618-2.716 11.248-5.648 3.234 5.891 9.104 14.918 10.748 21.872.882 3.73-9.64 19.025-14.377 19.931a2.328 2.328 0 01-.793.021 8.434 8.434 0 00-.152-1.564c-.648-3.393-1.97-10.2-2.774-14.28zm-10.629-19.032c1.219 6.068 2.605 13.544 3.863 20.325.757 4.089 2.039 10.903 2.687 14.295a8.82 8.82 0 00.434 1.51 2.311 2.311 0 01-.745.273c-4.74.906-20.155-9.434-20.711-13.228-1.033-7.061 1.086-17.588 1.928-24.255 5.367 1.001 9.644 1.171 12.544 1.08z" />
    <path fill="#A68462"
          d="M83.606 367.988c-.05-.05-.106-.097-.158-.141-.263-.232-.523-.463-.788-.69a103.353 103.353 0 01-12.903-13.847c-.121-.153-.232-.308-.351-.46a112.125 112.125 0 01-4.308-6.027c-.332-.489-.667-.976-.986-1.472-.006-.007-.009-.015-.015-.023a116.273 116.273 0 01-4.97-8.537l-.029-.052c-.34-.653-.67-1.306-1.001-1.957a124.195 124.195 0 01-1.891-3.884c-.006-.007-.01-.018-.014-.027-.209-.451-.409-.914-.613-1.368a137.073 137.073 0 01-1.987-4.623l-.001-.006c-.126-.31-.238-.623-.362-.933a140.575 140.575 0 01-1.943-5.165c-.002-.01-.005-.013-.006-.021-.124-.356-.238-.714-.356-1.073a153.844 153.844 0 01-3.999-13.783c-.089-.381-.185-.757-.275-1.139-.005-.027-.015-.055-.02-.08-.217-.925-.442-1.848-.644-2.774l-.003-.017c-.09-.421-.167-.842-.252-1.265a183.618 183.618 0 01-2.025-11.51l-.003-.018c-.304-2.138-.57-4.271-.8-6.403-2.957-27.478 7.52-46.216 12.266-53.136 10.521 3.8 20.602 4.845 27.253 5.044 10.506.315 20.471-1.242 25.472-2.198.509-.097.941-.184 1.295-.257.356-.063.793-.142 1.301-.239 5.002-.955 14.837-3.18 24.486-7.346 6.109-2.637 15.097-7.325 23.477-14.735 6.965 4.684 23.612 18.242 30.988 44.872a186.368 186.368 0 013.652 15.926c.195 1.021.39 2.039.563 3.064l.002.014c.518 3.106.929 6.235 1.271 9.375 0 .021.004.041.004.064.128 1.167.253 2.341.351 3.511.001.006-.002.012-.001.014.089 1.027.149 2.054.215 3.081l.002.012c.059.899.106 1.805.149 2.71a148.169 148.169 0 01.122 3.904c.011.674.011 1.349.011 2.024.005 1.526-.006 3.051-.054 4.578a132.177 132.177 0 01-.142 3.3c-.064 1.096-.14 2.191-.23 3.289a133.788 133.788 0 01-.313 3.235c-.225 2.059-.51 4.116-.844 6.166-.015.093-.027.19-.043.287v.002a122.833 122.833 0 01-.589 3.35c-.004.009-.003.014-.008.022-.113.583-.246 1.165-.376 1.745a111.172 111.172 0 01-1.658 6.755c-.094.314-.178.633-.269.95l-.008.02a105.942 105.942 0 01-1.474 4.702c-.193.527-.373 1.057-.563 1.589-.006.021-.016.043-.025.064-.398 1.109-.777 2.22-1.216 3.318-.003.004-.003.004-.004.009-.118.299-.255.593-.385.893-2.433 5.938-5.418 11.753-9.108 17.375-15.137 23.039-30.909 30.231-37.181 32.301l-1.414.436-1.474.116c-6.593.389-23.905-.483-46.468-16.32-2.95-2.069-5.686-4.298-8.33-6.591z" />
    <path fill="#A68462"
          d="M132.645 217.165c-9.334 4.028-19.007 6.157-23.258 6.969-.521.1-.954.179-1.301.239-.343.071-.779.158-1.295.257-4.251.813-14.029 2.4-24.19 2.097-13.544-.407-55.304-4.896-64.313-52.056-9.01-47.161 20.383-68.238 33.377-70.721 12.577-2.403 24.945 8.756 34.89 7.717 9.629-2.701 17.012-17.633 29.59-20.035 12.992-2.482 48.087 6.275 57.097 53.436 9.008 47.161-28.158 66.726-40.597 72.097z" />
    <path fill="#CFAB7A"
          d="M61.997 125.545c10.241-1.956 19.88 4.866 27.948 3.875 7.868-2.054 14.308-11.947 24.554-13.905 10.574-2.021 38.656 2.521 44.429 32.738 5.773 30.22-24.886 44.068-35.112 47.939-8.595 3.254-17.466 4.979-20.072 5.447-2.601.526-11.477 2.192-20.672 2.336-10.928.171-44.534-1.4-50.307-31.619-5.774-30.217 18.652-44.79 29.232-46.811z" />
    <defs>
        <path id="a"
              d="M132.645 217.165c-9.334 4.028-19.007 6.157-23.258 6.969-.521.1-.954.179-1.301.239-.343.071-.779.158-1.295.257-4.251.813-14.029 2.4-24.19 2.097-13.544-.407-55.304-4.896-64.313-52.056-9.01-47.161 20.383-68.238 33.377-70.721 12.577-2.403 24.945 8.756 34.89 7.717 9.629-2.701 17.012-17.633 29.59-20.035 12.992-2.482 48.087 6.275 57.097 53.436 9.008 47.161-28.158 66.726-40.597 72.097z" />
    </defs>
    <clipPath id="b">
        <use xlink:href="#a" overflow="visible" />
    </clipPath>
    <g clip-path="url(#b)">
        <path fill="#7E543A"
              d="M120.509 184.32s-1.488 41.429-12.078 43.452c-10.584 2.022-26.658-36.052-26.658-36.052l38.736-7.4z" />
    </g>
    <path fill="#472A2B"
          d="M81.772 191.721c1.55 8.111 14.086 27.136 24.866 25.076 10.572-2.02 15.377-24.594 13.87-32.477-2.039-10.678-12.386-17.707-23.068-15.667-10.679 2.041-17.708 12.39-15.668 23.068zm8.301-1.586c-1.166-6.103 2.853-12.017 8.953-13.182 6.103-1.166 12.016 2.851 13.182 8.953 1.372 7.181-4.468 22.076-7.155 22.59-3.308.632-13.593-11.105-14.98-18.361z" />
    <path fill="#DF7A1C"
          d="M98.71 175.294c7.03-1.344 13.817 3.268 15.16 10.295 1.343 7.029-4.072 23.723-8.5 24.568-4.979.951-15.615-12.676-16.958-19.705-1.343-7.027 3.271-13.816 10.298-15.158z" />
    <defs>
        <path id="c"
              d="M113.87 185.589c1.343 7.029-4.072 23.723-8.5 24.568-4.979.951-15.615-12.676-16.958-19.705-1.343-7.027 3.271-13.816 10.298-15.158 7.03-1.344 13.817 3.268 15.16 10.295z" />
    </defs>
    <clipPath id="d">
        <use xlink:href="#c" overflow="visible" />
    </clipPath>
    <path clip-path="url(#d)" fill="#B15C12"
          d="M113.87 185.589s-5.175 19.056-9.742 19.928c-4.564.872-16.021-16.297-16.021-16.297s6.656 25.831 17.447 23.77c10.795-2.063 8.316-27.401 8.316-27.401z" />
    <path fill="#CFAB7A"
          d="M132.998 355.011c-12.623 2.278-56.915-19.035-64.498-58.728-7.459-39.04 35.809-50.161 37.624-50.602l11.641-2.224c1.85-.26 46.172-5.872 53.63 33.168 7.583 39.692-25.732 75.832-38.307 78.367l-.09.019z" />
    <path fill="#EEB480"
          d="M95.842 194.485c-2.016-2.777-5.064-6.662-5.737-7.415-.675-.752 2.255-6.358 2.657-5.431 8.478 19.578 8.544 20.379 3.08 12.846z" />
    <g fill="#FFF" stroke="#472A2B" stroke-width="7.038" stroke-miterlimit="10">
        <circle cx="127.038" cy="145.895" r="28.549" />
        <circle cx="61.541" cy="158.408" r="28.549" />
    </g>
    <defs>
        <path id="e"
              d="M174.641 373.595a112.215 112.215 0 006.163-7.847c18.779 14.72 22.413 11.24 18.959 14.495-2.192 2.067-4.384 3.233-6.564 3.65-3.705.707-7.396-.739-11.062-3.6-3.776-2.952-5.901-5.235-7.496-6.698zm41.946-75.171c1.668-1.041-9.854-67.169-9.854-67.169-10.184-13.246-8.684-25.257-15.759-24.487-10.307 1.12-18.944-2.923-24.369-7.532a67.678 67.678 0 01-3.591 4.089c8.918 5.469 25.274 22.027 32.446 47.696a178.132 178.132 0 011.472 5.635c.323 1.317.622 2.685.927 4.046.135.614.285 1.204.419 1.829.391 1.848.756 3.741 1.099 5.658.028.149.062.292.088.438 1.767 9.948 2.989 23.547 2.438 34.427-.001 0 13.015-3.59 14.684-4.63zm-56.951 89.177c1.706 3.303 4.224 9.193 10.553 18.916 1.166 1.792 2.506 2.354 3.893 2.088 5.191-.991 11.025-13.579 10.745-16.854-.356-4.147-5.335-8.096-11.079-13.061a54.237 54.237 0 00-2.13-1.741c-4.18 4.435-8.244 7.919-11.982 10.652zm-79.444 15.485c2.8 1.114 5.267 1.391 7.451.973 3.705-.708 6.603-3.413 8.952-7.423 2.394-4.084 3.528-6.979 4.467-8.929a110.628 110.628 0 01-8.63-5.015c-11.999 20.53-16.642 18.645-12.24 20.394zm23.611-11.034c-3.51 6.733-6.68 12.238-5.482 16.225.945 3.148 11.009 12.699 16.2 11.707 1.387-.265 2.426-1.28 2.851-3.376 2.292-11.326 2.467-17.727 2.832-21.428-4.497-1.159-9.566-2.893-15.097-5.473a53.958 53.958 0 00-1.304 2.345zm-32.677-3.521c1.532-.047 2.937-.193 4.212-.437 6.017-1.15 9.257-4.525 10.433-10.082-.015-.01-.026-.021-.04-.03-28.27-21.054-41.021-51.853-46.52-78.748-.014-.061-.023-.125-.035-.187a179.487 179.487 0 01-1.108-5.916c-.1-.57-.168-1.117-.262-1.679-.229-1.433-.463-2.874-.655-4.272-.27-1.965-.507-3.893-.71-5.78-3.023-28.084 7.002-47.771 12.582-56.299a67.762 67.762 0 01-4.846-2.477c-10.021 8.304-26.399 25.847-31.667 54.898-7.771 42.885 36.799 111.683 58.616 111.009zm79.85 42.106c.101.53.151 1.053.151 1.564.237.036.5.035.793-.021 4.737-.905 15.259-16.2 14.377-19.931-1.645-6.954-7.513-15.981-10.748-21.872-4.63 2.933-8.545 4.671-11.247 5.648 1.102 6.093 2.568 13.56 3.9 20.332a3560.22 3560.22 0 012.774 14.28zm-25.949-34.39c-.842 6.667-2.96 17.194-1.928 24.255.556 3.794 15.971 14.134 20.712 13.228.293-.056.535-.152.745-.273a8.619 8.619 0 01-.434-1.51 3248.312 3248.312 0 01-2.688-14.295c-1.258-6.781-2.645-14.257-3.863-20.325-2.898.09-7.176-.08-12.544-1.08zm-33.214-21.644c22.563 15.837 39.875 16.709 46.469 16.32l1.473-.116 1.414-.436c6.271-2.069 22.044-9.262 37.182-32.301 3.689-5.622 6.676-11.437 9.107-17.375.13-.3.267-.594.385-.893.001-.005.001-.005.004-.009.438-1.099.817-2.208 1.216-3.318a.367.367 0 00.025-.064c.19-.532.37-1.062.563-1.589a106.358 106.358 0 001.474-4.702c.003-.007.005-.015.009-.02.09-.317.175-.636.268-.95.624-2.241 1.18-4.492 1.658-6.755.13-.58.264-1.162.377-1.744.004-.01.003-.015.007-.023.217-1.115.403-2.229.589-3.35v-.002c.016-.097.028-.194.043-.287.334-2.05.619-4.107.844-6.166-.002-.012.002-.024.004-.033.114-1.067.221-2.136.309-3.202a134.885 134.885 0 00.231-3.319c.06-1.089.106-2.18.141-3.27.048-1.527.06-3.052.054-4.578 0-.676.001-1.351-.011-2.024-.001-.004-.002-.01-.001-.014a148.169 148.169 0 00-.12-3.89c-.044-.905-.092-1.811-.15-2.71l-.002-.012c-.065-1.027-.126-2.054-.215-3.081 0-.002.003-.008.001-.014-.098-1.17-.223-2.344-.35-3.511-.001-.023-.005-.043-.005-.064a165.82 165.82 0 00-1.271-9.375l-.002-.014c-.172-1.025-.367-2.044-.562-3.064a186.371 186.371 0 00-3.653-15.926c-7.376-26.63-24.022-40.188-30.988-44.872-8.379 7.41-17.366 12.099-23.477 14.735-9.649 4.166-19.484 6.391-24.485 7.346-.509.098-.945.177-1.301.239-.354.073-.787.16-1.295.257-5.002.956-14.967 2.514-25.472 2.198-6.652-.199-16.732-1.244-27.253-5.044-4.747 6.92-15.224 25.658-12.267 53.136.23 2.132.497 4.266.8 6.403l.003.018a182.899 182.899 0 002.026 11.51c.085.423.161.844.251 1.265a.105.105 0 00.004.017c.2.927.427 1.85.643 2.774.005.025.015.053.02.08.091.382.187.758.275 1.139a154.08 154.08 0 003.999 13.783c.118.359.232.717.356 1.073l.006.021a142.42 142.42 0 001.943 5.165c.125.31.236.623.363.933l.001.006c.629 1.554 1.3 3.09 1.986 4.623.204.454.404.917.613 1.368.004.01.008.021.014.027a122.03 122.03 0 001.892 3.884c.331.651.66 1.304 1 1.957.011.018.021.034.029.052a116.273 116.273 0 004.97 8.537c.006.009.009.017.015.023.319.496.654.982.987 1.472a110.223 110.223 0 004.307 6.027c.119.152.229.307.351.46a103.288 103.288 0 0012.904 13.847c.265.228.525.458.788.69.053.044.109.091.158.141 2.643 2.293 5.379 4.521 8.329 6.591zm81.305-229.512c-9.011-47.16-44.105-55.918-57.097-53.436-12.579 2.402-19.961 17.334-29.591 20.035-9.944 1.039-22.313-10.12-34.89-7.717-12.993 2.482-42.387 23.56-33.377 70.721 9.01 47.16 50.77 51.648 64.313 52.056 10.161.304 19.939-1.284 24.19-2.097.517-.099.953-.186 1.295-.257.347-.061.78-.14 1.301-.239 4.251-.812 13.924-2.94 23.258-6.969 12.441-5.371 49.608-24.936 40.598-72.097z" />
    </defs>
    <clipPath id="f">
        <use xlink:href="#e" overflow="visible" />
    </clipPath>
    <g clip-path="url(#f)">
        <path fill="#7E543A"
              d="M194.923 310.79s-18.216 63.556-55.936 70.762c-43.123 8.238-79.982-44.737-79.982-44.737l1.216 8.403 23.872 28.364 25.538 13.578 17.055 5.72s8.248 1.417 13.543.405c5.297-1.012 19.27-6.175 25.591-14.863 6.322-8.69 20.794-26.923 23.932-34.005 3.137-7.082 6.031-31.082 6.031-31.082l-.86-2.545z" />
    </g>
    <path clip-path="url(#f)" fill="#7E543A"
          d="M91.296 380.936l12.387 5.116 10.876 5.03 26.024 4.06 22.697-13.367 8.256-8.686 9.626-9.322 5.643 6.031-.547.418s-2.976.066-6.364 3.209c-3.393 3.144-1.994 7.861-1.994 7.861s-5.578.817-10.801 4.81c-5.223 3.988-6.122 8.089-6.122 8.089l-2.208 1.172s-3.853-.576-7.829 1.12c-3.979 1.694-5.782 5.968-5.782 5.968l-2.68.657.008.04-.365.048-.356.091-.008-.041-2.733.377s-3.251-3.308-7.572-3.417c-4.324-.11-7.691 1.846-7.691 1.846l-2.484-.275s-2.349-3.48-8.673-5.263c-6.328-1.785-11.813-.489-11.813-.489s-.438-4.901-4.751-6.572c-4.309-1.673-7.101-.636-7.101-.636l-.662-.188 3.019-7.687z" />
    <g clip-path="url(#f)">
        <path fill="#7E543A"
              d="M192.565 243.622s14.798 33.086 12.232 74.477c-2.566 41.396-14.659 51.188-14.659 51.188l-8.28-9.393s17.538-28.298 15.979-70.392c-1.559-42.1-5.272-45.88-5.272-45.88zM36.407 273.455s-1.561 36.211 16.085 73.741c17.646 37.535 32.495 42.178 32.495 42.178l4.235-11.783s-26.736-19.839-40.802-59.543c-14.072-39.71-12.013-44.593-12.013-44.593z" />
    </g>
    <path clip-path="url(#f)" fill="#7E543A"
          d="M96.485 230.308c-7.178-.625-13.016 2.095-13.016 2.095s-4.757-2.688-19.069 1.541c-14.319 4.231-21.482 11.587-21.482 11.587l6.419-13.946 5.293-6.997 21.188 5.179 33.136-2.143 28.509-9.386 20.492-14.138 7.879 5.228 10.53 10.208s-9.893-4.344-24.76-2.999c-14.87 1.344-17.199 6.135-17.199 6.135s-6.519-.855-12.962 2.367l-24.958 5.269z" />
    <g clip-path="url(#f)">
        <path fill="#7E543A"
              d="M40.674 244.211s-4.582 2.122-7.737-.02c-3.15-2.14-3.013-6.654-3.013-6.654l-1.543-5.441 12.313-12.579 10.293 4.271-1.956 9.352-8.357 11.071z" />
    </g>
    <path fill="#B15C12"
          d="M188.77 403.137c1.074-.205 3.735-.982 5.219-3.753 1.578-2.956 1.252-7.121-.972-12.38-5.543-13.112-17.409-15.638-17.912-15.738a1.981 1.981 0 00-1.763.504l-9.063 8.518a2 2 0 00.922 3.407c2.757.638 10.222 3.305 11.601 7.919 2.238 7.502 8.516 11.558 10.7 11.638.358.014.808-.027 1.265-.114h.003z" />
    <path fill="#472A2B"
          d="M174.712 373.226s11.268 2.268 16.463 14.556c4.474 10.583-.538 12.962-2.781 13.391a3.94 3.94 0 01-.819.081c-1.239-.046-6.836-3.446-8.856-10.213s-13.068-9.297-13.068-9.297l9.061-8.518m-.751-3.929a4.004 4.004 0 00-1.989 1.014l-9.063 8.519a3.998 3.998 0 00-1.121 3.962 3.998 3.998 0 002.967 2.852c2.863.656 9.108 3.117 10.131 6.541 2.321 7.783 8.979 12.938 12.546 13.067a7.847 7.847 0 001.713-.15c2.868-.548 5.277-2.288 6.606-4.775 1.878-3.513 1.578-8.257-.893-14.101-5.95-14.075-18.815-16.811-19.359-16.92a3.943 3.943 0 00-1.538-.009z" />
    <path fill="#B15C12"
          d="M176.455 410.017c3.133-.599 6.945-3.237 7.312-12.404.666-16.602-14.345-21.37-14.497-21.416a2.001 2.001 0 00-1.963.464l-8.469 8.066a2.004 2.004 0 00-.581 1.85c.139.675.614 1.23 1.26 1.473.078.029 8.168 3.226 7.59 7.995-.871 7.182 2.896 13.382 5.764 13.9.661.123 1.999.374 3.584.072z" />
    <path fill="#472A2B"
          d="M168.687 378.108s13.692 4.173 13.083 19.424c-.317 7.935-3.302 10.063-5.689 10.52-1.309.25-2.438-.001-2.854-.076-1.427-.257-4.921-5.201-4.135-11.69.788-6.493-8.875-10.109-8.875-10.109l8.47-8.069m-.75-3.928a3.991 3.991 0 00-2.008 1.034l-8.471 8.066a3.997 3.997 0 00-1.157 3.686 4.01 4.01 0 002.503 2.951c2.104.806 6.617 3.403 6.316 5.887-.97 8.01 3.252 15.361 7.395 16.109l.076.014c.624.117 2.282.429 4.239.055 3.148-.602 8.495-3.258 8.937-14.29.58-14.504-10.156-21.655-15.914-23.408a3.977 3.977 0 00-1.916-.104z" />
    <path fill="#B15C12"
          d="M164.271 414.985c3.553-.679 6.321-3.726 8.229-9.057 4.39-12.259-8.218-23.421-8.758-23.891a1.999 1.999 0 00-2.517-.088l-7.836 5.916a1.997 1.997 0 00-.795 1.637c.011.641.332 1.237.858 1.602.054.04 5.792 4.129 3.78 8.129-3.051 6.063-2.052 12.645.877 14.479 1.122.701 3.412 1.799 6.159 1.273h.003z" />
    <path fill="#472A2B"
          d="M162.431 383.548s12.166 10.592 8.188 21.706c-1.957 5.466-4.511 7.345-6.723 7.767-2.289.438-4.209-.682-4.724-1.004-1.685-1.055-2.984-6.255-.153-11.884 2.832-5.63-4.426-10.67-4.426-10.67l7.838-5.915m-.753-3.929a3.98 3.98 0 00-1.659.736l-7.836 5.915a3.995 3.995 0 00-1.58 3.257 4.016 4.016 0 001.692 3.208c.044.031 4.343 3.229 3.151 5.599-3.678 7.31-2.142 14.729 1.604 17.074 1.368.856 4.176 2.195 7.594 1.542 4.3-.821 7.575-4.303 9.741-10.348 4.842-13.53-8.748-25.566-9.329-26.072a3.999 3.999 0 00-3.378-.911z" />
    <path fill="#B15C12"
          d="M98.983 420.29c-1.074.205-3.835.464-6.234-1.565-2.558-2.166-3.79-6.158-3.661-11.865.319-14.233 10.419-20.954 10.849-21.233a1.997 1.997 0 011.824-.182l11.564 4.577a2 2 0 01.399 3.507c-2.328 1.61-8.284 6.841-7.864 11.638.685 7.8-3.655 13.884-5.656 14.764a5.928 5.928 0 01-1.218.359h-.003z" />
    <path fill="#472A2B"
          d="M101.024 387.303l11.566 4.577s-9.339 6.425-8.723 13.46-3.333 12.259-4.469 12.759a4.008 4.008 0 01-.792.227c-2.242.429-7.778.064-7.521-11.423.301-13.339 9.939-19.6 9.939-19.6m-.75-3.929a3.995 3.995 0 00-1.428.575c-.465.302-11.416 7.587-11.758 22.864-.143 6.343 1.327 10.863 4.368 13.437 2.151 1.822 5.033 2.552 7.901 2.004a7.833 7.833 0 001.647-.491c3.268-1.436 7.557-8.682 6.846-16.772-.312-3.56 4.585-8.149 7.005-9.815a3.997 3.997 0 00-.795-7.014l-11.564-4.577a3.985 3.985 0 00-2.222-.211z" />
    <path fill="#B15C12"
          d="M112.967 422.146c-3.133.599-7.65-.449-11.37-8.836-6.739-15.187 5.459-25.152 5.581-25.251a2.012 2.012 0 011.997-.292l10.846 4.376a2.002 2.002 0 01.594 3.339c-.061.055-6.402 6.009-4.106 10.229 3.455 6.355 2.238 13.507-.235 15.046-.568.359-1.722 1.086-3.304 1.389h-.003z" />
    <path fill="#472A2B"
          d="M108.425 389.621l10.848 4.376s-7.646 6.924-4.522 12.67c3.123 5.742 1.698 11.626.468 12.391-.36.224-1.318.874-2.625 1.123-2.39.457-5.948-.422-9.168-7.682-6.191-13.951 4.999-22.878 4.999-22.878m-.75-3.929c-.628.12-1.227.39-1.742.802-4.707 3.753-12.051 14.358-6.166 27.627 4.478 10.093 10.427 10.591 13.577 9.989 1.955-.374 3.384-1.275 3.919-1.614l.066-.04c3.574-2.222 4.788-10.612.935-17.701-1.195-2.197 2.042-6.275 3.704-7.8a4.014 4.014 0 001.236-3.667 4 4 0 00-2.435-2.999l-10.848-4.376a3.995 3.995 0 00-2.246-.221z" />
    <path fill="#B15C12"
          d="M126.126 422.272c-3.555.679-7.251-1.132-10.99-5.385-8.599-9.777-.994-24.801-.666-25.437a1.996 1.996 0 011.402-1.045c.294-.057.604-.048.906.035l9.467 2.61a2.003 2.003 0 011.134 3.035c-.036.057-3.863 5.974-.517 8.949 5.069 4.512 6.566 10.998 4.52 13.783-.783 1.066-2.508 2.93-5.256 3.455z" />
    <path fill="#472A2B"
          d="M116.248 392.37l9.464 2.61s-4.887 7.36-.181 11.55c4.709 4.188 5.418 9.502 4.238 11.104-.359.49-1.731 2.237-4.019 2.674-2.212.423-5.28-.381-9.114-4.741-7.795-8.865-.388-23.197-.388-23.197m-.749-3.929a4 4 0 00-2.806 2.093c-.354.684-8.55 16.883.94 27.674 4.24 4.822 8.568 6.851 12.868 6.029 3.418-.653 5.534-2.933 6.49-4.233 2.617-3.56 1.313-11.023-4.802-16.464-1.98-1.763.835-6.319.864-6.364a4.018 4.018 0 00.391-3.606 3.995 3.995 0 00-2.67-2.444l-9.465-2.61a3.946 3.946 0 00-1.81-.075z" />
    <circle fill="#342209" cx="132.593" cy="136.305" r="8.95" />
    <circle fill="#342209" cx="66.305" cy="148.969" r="8.951" />
    <path fill="none" stroke="#47292B" stroke-width="6" stroke-miterlimit="10" d="M321.439.835l-28.498 98.322" />
</svg>
