<svg version="1.1" id="Layer_1" xmlns="http://www.w3.org/2000/svg" xmlns:xlink="http://www.w3.org/1999/xlink" x="0"
     y="0" viewBox="0 0 458.7 395.6" xml:space="preserve"><style>.st1{fill:#482a2b}.st2{fill:#a68362}.st3{fill:#d0ab7b}.st4{fill:#fff}.st5{fill:#332412}.st6,.st8{clip-path:url(#XMLID_121_)}.st8{fill:#7e553b}.st9{fill:#704e46}.st11{fill:#97785d}.st12{fill:#b05e27}.st14{opacity:.25}</style>
    <g id="XMLID_39_"><defs><path id="XMLID_38_" d="M0 0h458.7v395.6H0z"/></defs>
        <clipPath id="XMLID_120_"><use xlink:href="#XMLID_38_" overflow="visible"/></clipPath>
        <g id="XMLID_4_" clip-path="url(#XMLID_120_)"><g id="XMLID_2_"><path id="XMLID_110_" class="st1" d="M331.2 0c-9.7 0-17.4 5-23.6 8.9-2.1 1.4-5.1 3.3-6.9 4-1.8-.7-4.8-2.6-6.9-4C287.7 5 280 0 270.2 0c-16.8 0-53.7 17.5-53.7 69.6 0 12.8 2.7 23.3 6.9 32h.2c4.6 8.6 11.7 16.7 20 22.8 0 0-16.6 16.4-18.3 52-2.8 56.2 22.2 83 28.1 90.1.8.9-1.2 4.5-6.3 7.2-5.6 3-9.7 6-14.5 9.9-.5 1.3-.8 2.7-.7 4.5.2 6 4.8 9 6.4 10 3.8 2.4 7.8 3.7 11.8 3.8 3.1 7.8 12.1 19.1 22.3 19.3 1.2 1.9 2.8 3.9 5.1 6.3 7.2 7.5 13.7 11.3 19.4 11.3 1.3 0 2.6-.2 3.8-.6h.2c1.2.4 2.5.6 3.8.6 5.7 0 12.2-3.8 19.4-11.3 2.3-2.4 3.9-4.5 5.1-6.3 10.2-.1 19.2-11.5 22.3-19.3 4-.1 7.9-1.4 11.8-3.8 1.5-1 6.1-3.9 6.4-10 .1-1.7-.2-3.2-.7-4.5-4.8-3.9-8.9-6.9-14.5-9.9-5-2.7-7-6.3-6.3-7.2 6-7.1 30.9-33.9 28.1-90.1-1.7-35.5-18.3-52-18.3-52 8.3-6.1 15.4-14.3 20-22.8h.2c4.2-8.6 6.9-19.1 6.9-32-.2-52.1-37-69.6-53.9-69.6z"/><path
                id="XMLID_102_" class="st2"
                d="M324.4 128.4c-9.2 2-18.4 2.3-22.4 2.3h-2.4c-4 0-13.2-.3-22.4-2.3-12.3-2.7-49.6-14.1-49.6-58.7S258.1 11 270.4 11c11.9 0 21.2 12.3 30.5 13.1 9.3-.8 18.6-13.1 30.5-13.1 12.3 0 42.8 14.1 42.8 58.7-.2 44.6-37.5 55.9-49.8 58.7z" /><g
                id="XMLID_101_"><path id="XMLID_117_" class="st3" d="M275.9 32.4c9.7 0 17.3 7.9 24.8 8.4 7.5-.5 15.1-8.4 24.8-8.4 10 0 34.8 9 34.8 37.6s-30.4 35.9-40.4 37.6c-8.4 1.5-16.8 1.5-19.3 1.5s-10.9 0-19.3-1.5c-10-1.7-40.4-9-40.4-37.6.2-28.5 25-37.6 35-37.6z"/></g><g
                id="XMLID_11_"><g id="XMLID_91_"><circle id="XMLID_111_" class="st4" cx="331.7" cy="62.3" r="26.5"/><path
                id="XMLID_112_" class="st1"
                d="M331.7 92.4c-16.6 0-30-13.5-30-30 0-16.6 13.5-30 30-30 16.6 0 30 13.5 30 30 .1 16.5-13.4 30-30 30zm0-53.1c-12.7 0-23 10.3-23 23s10.3 23 23 23 23-10.3 23-23c0-12.6-10.3-23-23-23z" /></g>
            <g id="XMLID_90_"><circle id="XMLID_13_" class="st4" cx="269.8" cy="62.3" r="26.5"/>
                <path id="XMLID_14_" class="st1"
                      d="M269.8 92.4c-16.6 0-30-13.5-30-30 0-16.6 13.5-30 30-30 16.6 0 30 13.5 30 30s-13.5 30-30 30zm0-53.1c-12.7 0-23 10.3-23 23s10.3 23 23 23 23-10.3 23-23c0-12.6-10.4-23-23-23z" /></g></g><circle
                id="XMLID_89_" class="st5" cx="328.5" cy="72.6" r="8.3" /><circle id="XMLID_88_" class="st5" cx="265.8"
                                                                                  cy="72.6" r="8.3" /><g id="XMLID_12_"><defs><path id="XMLID_19_" d="M335.5 278.4c2.3-1.8 4.6-3.8 7-6.1 14.6 16.7 18.5 14.2 14.8 16.5-2.4 1.5-4.6 2.2-6.6 2.2-3.5 0-6.6-2-9.5-5.2-3-3.3-4.5-5.7-5.7-7.4zm-16.2 10.2c1 3.3 2.3 9.1 6.3 19.1.8 1.8 1.9 2.6 3.2 2.6 4.9 0 12.4-10.5 12.7-13.5.4-3.8-3.5-8.3-7.8-13.9-.6-.7-1.1-1.4-1.6-2-4.6 3.4-8.9 5.9-12.8 7.7zm-75.2.3c2.4 1.5 4.6 2.2 6.6 2.2 3.5 0 6.6-2 9.5-5.2 2.9-3.3 4.4-5.8 5.6-7.4-2.3-1.8-4.6-3.8-7-6.1-14.5 16.7-18.4 14.1-14.7 16.5zm23.5-6c-4.4 5.5-8.2 10-7.8 13.9.3 3 7.8 13.5 12.7 13.5 1.3 0 2.4-.7 3.2-2.6 4.1-9.9 5.3-15.7 6.3-19.1-3.9-1.8-8.2-4.3-12.8-7.6-.5.6-1 1.2-1.6 1.9zm36.3 43.5c0 .5 0 1-.1 1.5.2.1.5.1.7.1 4.5 0 16.7-12.1 16.6-15.7-.3-6.6-4.1-15.9-6-21.8-4.7 1.9-8.6 2.8-11.3 3.2-.1 5.8 0 12.8 0 19.2.1 3.8.1 10.3.1 13.5zm-17.7-35.9c-1.9 5.9-5.7 15.2-6 21.8-.2 3.6 12.1 15.7 16.6 15.7.3 0 .5 0 .7-.1-.1-.5-.1-1-.1-1.5v-13.5c0-6.4.1-13.5 0-19.2-2.6-.5-6.4-1.4-11.2-3.2zm-26.5-25.6c17.8 18.4 33.5 22.2 39.6 23l1.4.2 1.4-.2c6.1-.8 21.7-4.6 39.6-23 4.3-4.5 8.1-9.3 11.3-14.3.2-.3.3-.5.5-.7.6-.9 1.1-1.9 1.7-2.8v-.1c.3-.5.5-.9.8-1.4.8-1.3 1.5-2.7 2.2-4 .1-.3.3-.5.4-.8 1-1.9 1.9-3.9 2.7-5.9l.6-1.5h.2c.4-1 .3-2 1.3-3 0-.1-.2-.2-.1-.3.7-1.8 1.2-3.6 1.7-5.5.3-1 .6-1.9.8-2.9.3-1 .5-2 .8-3 .2-1 .5-2 .7-3 .3-1.4.6-2.8.8-4.2l.3-1.8.6-3.6c.1-.8.4-1.7.4-2.5 0-.9.2-1.9.3-2.8l.3-3.3v-.1c.2-2.9.4-5.9.4-8.8 0-1 .1-1.9.1-2.9 0-5.1-.1-10.2-.5-15.2-2.1-25.6-14.9-40.9-20.4-46.4-8.9 5.3-18 8-24 9.4-9.5 2.1-18.9 2.4-23.6 2.4h-2.4c-4.7 0-14.1-.3-23.6-2.4-6-1.3-15.1-4.1-24-9.4-5.5 5.5-18.1 20.8-20.2 46.4-.2 2-.1 4-.1 6-1 3.6-.6 7.2-.6 10.9 0 .4-.4.8-.4 1.2 0 .9.3 1.8.3 2.7l.1.1c0 .4.1.7.1 1.1.2 4.4.6 8.9 1.3 13.3 0 .3.1.7.2 1l.9 5.1c.1.3.2.6.2.9 0 1.5.6 3 1 4.6.1.5.2.9.3 1.4.3 1.3.7 2.6 1 3.9.2.7.4 1.3.6 2v.1c.9 2.9 1.9 5.8 3 8.7l.6 1.5c.9 2.1 1.8 4.2 2.9 6.3.1.2.2.3.2.5 2.6 5.2 5.7 10.1 9.4 14.9.2.3.4.5.6.8 0 0 .1.1.1.2 1.8 2.3 3.9 4.8 6.2 7.2zM373.9 69.6c0-44.6-30.5-58.7-42.8-58.7-11.9 0-21.2 12.3-30.5 13.1-9.3-.8-18.6-13.1-30.5-13.1-12.3 0-42.8 14.1-42.8 58.7s37.3 56 49.6 58.7c9.2 2 18.4 2.3 22.4 2.3h2.4c4 0 13.2-.3 22.4-2.3 12.5-2.7 49.8-14 49.8-58.7z"/></defs>
            <clipPath id="XMLID_121_"><use xlink:href="#XMLID_19_" overflow="visible"/></clipPath>
            <g id="XMLID_17_" class="st6"><path id="XMLID_87_" d="M364.9 224.7s-27.7 54.8-63.4 54.8c-40.8 0-65.2-54.8-65.2-54.8l-.4 7.9 16.8 30 20.9 16.8 14.6 8.2s7.3 2.7 12.3 2.7c5 0 18.7-2.3 25.9-9.1 7.3-6.8 23.7-20.9 27.8-26.9 4.1-5.9 10.9-27.3 10.9-27.3l-.2-2.3z" fill="#7e553b"/></g>
            <path id="XMLID_86_" class="st8"
                  d="M258.1 270.6l10.4 6.8 9 6.5 23 8.2 23-8.2 9-6.5 10.4-6.8 4.1 6.5-.6.3s-2.7-.5-6.4 1.8c-3.6 2.3-3.2 6.8-3.2 6.8s-5.2-.2-10.7 2.5c-5.5 2.7-7 6.3-7 6.3l-2.2.7s-3.4-1.2-7.3-.3c-3.9.9-6.1 4.4-6.1 4.4l-2.3.1h-1l-2.6-.1s-2.4-3.6-6.3-4.4c-3.9-.9-7.4.3-7.4.3l-2.2-.7s-1.5-3.6-7-6.3c-5.5-2.7-10.7-2.5-10.7-2.5s.5-4.5-3.2-6.8c-3.6-2.3-6.4-1.8-6.4-1.8l-.6-.3 4.3-6.5z" />
            <path id="XMLID_85_" class="st8"
                  d="M289.1 134.1c-6.4-1.8-12.2-.4-12.2-.4s-3.9-3.3-17.7-1.9c-13.8 1.4-21.6 6.8-21.6 6.8l8.3-11.6 6-5.5 18.4 8.4 30.6 3.8 27.7-3.6 21.2-9.3 6.3 6.1 7.8 11.2s-8.3-5.7-22.1-7.1c-13.8-1.4-16.8 2.6-16.8 2.6s-5.8-1.9-12.2-.1l-23.7.6z" />
            <g id="XMLID_18_" class="st6"><path id="XMLID_84_" class="st9" d="M374.6 126s0 4.6-2.5 7.1-9.3 2.3-9.3 2.3l-11.1-15 11.4-6.6 11.5 12.2z"/>
                <path id="XMLID_83_" class="st9"
                      d="M235.8 137s-4.5 1.1-7.1-1.4c-2.5-2.5-1.6-6.6-1.6-6.6l-.5-5.2 13.4-9.3 8.6 5.7-3.4 8.2-9.4 8.6z" /></g></g></g>
            <path id="XMLID_109_" class="st11"
                  d="M335.6 278.4c2.3-1.8 4.6-3.8 7-6.1 14.6 16.7 18.5 14.2 14.8 16.5-2.4 1.5-4.6 2.2-6.6 2.2-3.5 0-6.6-2-9.5-5.2-3-3.3-4.5-5.7-5.7-7.4z" />
            <path id="XMLID_108_" class="st11"
                  d="M332.2 281c.5.6 1.1 1.2 1.6 2 4.4 5.5 8.2 10 7.8 13.9-.3 3-7.8 13.5-12.7 13.5-1.3 0-2.4-.7-3.2-2.6-4.1-10-5.4-15.8-6.3-19.1 3.9-1.9 8.2-4.4 12.8-7.7z" />
            <path id="XMLID_107_" class="st11"
                  d="M259 272.4c2.4 2.3 4.7 4.3 7 6.1-1.2 1.6-2.7 4.1-5.6 7.4-2.8 3.3-6 5.2-9.5 5.2-2.1 0-4.3-.7-6.6-2.2-3.8-2.4.1.2 14.7-16.5z" />
            <path id="XMLID_106_" class="st11"
                  d="M269.3 281c4.6 3.3 8.9 5.8 12.8 7.6-1 3.3-2.3 9.1-6.3 19.1-.8 1.8-1.9 2.6-3.2 2.6-4.9 0-12.4-10.5-12.7-13.5-.4-3.8 3.5-8.3 7.8-13.9.6-.7 1.1-1.3 1.6-1.9z" />
            <path id="XMLID_105_" class="st11"
                  d="M304 312.9c0-6.4-.1-13.5 0-19.2 2.6-.4 6.5-1.3 11.2-3.2 1.9 5.9 5.7 15.2 6 21.8.2 3.6-12.1 15.7-16.6 15.7-.3 0-.5 0-.7-.1.1-.5.1-1 .1-1.5v-13.5z" />
            <path id="XMLID_104_" class="st11"
                  d="M297.6 293.6c.1 5.8 0 12.8 0 19.2v13.5c0 .5 0 1 .1 1.5-.2.1-.5.1-.7.1-4.5 0-16.7-12.1-16.6-15.7.3-6.6 4.1-15.9 6-21.8 4.7 1.9 8.5 2.8 11.2 3.2z" />
            <path id="XMLID_103_" class="st2"
                  d="M253.4 257.5c0-.1-.1-.1-.1-.2-.2-.3-.4-.5-.6-.8-3.6-4.7-6.7-9.7-9.4-14.9-.1-.2-.2-.3-.2-.5-1-2.1-2-4.1-2.9-6.3l-.6-1.5c-1.1-2.8-2.2-5.7-3-8.7v-.1c-.2-.7-.4-1.3-.6-2-.4-1.3-.7-2.6-1-3.9-.1-.5-.3-.9-.4-1.4-.4-1.5-1-3-1-4.6 0-.3-.1-.6-.1-.9-.3-1.7-.9-3.4-.9-5.1 0-.4-.1-.7-.1-1-.6-4.4-1-8.8-1.2-13.3v-1.1l-.2-.1c0-.9.7-1.8-.3-2.6 0-.4.4-.8.4-1.2-.1-3.6-.4-7.3.6-10.9 0-2 0-4 .2-6 2.1-25.6 14.8-40.9 20.4-46.4 8.9 5.3 17.9 8 23.9 9.4 9.5 2.1 18.9 2.4 23.6 2.4h2.4c4.7 0 14.1-.3 23.6-2.4 6-1.3 15.1-4.1 24-9.4 5.5 5.5 18.4 20.8 20.5 46.4.4 5 .5 10.1.5 15.2 0 1-.1 1.9-.1 2.9 0 2.9-.2 5.9-.4 8.8v.1l-.3 3.3c-.1 1-.4 1.9-.4 2.8 0 .8-.2 1.7-.3 2.5-.2 1.2-.3 2.4-.6 3.6-.1.6-.2 1.2-.3 1.9-.3 1.4-.5 2.8-.8 4.2-.2 1-.5 2-.7 3-.3 1-.5 2-.8 3-.3 1-.5 1.9-.8 2.9-.6 1.8-1 3.7-1.7 5.5 0 .1.1.2.1.3-1 1-.9 2-1.3 3h-.1c-.2.5-.5 1-.7 1.5-.8 2-1.8 3.9-2.7 5.9-.1.3-.3.5-.4.8-.7 1.4-1.4 2.7-2.2 4-.3.4-.5.9-.8 1.4v.1c-.6.9-1.1 1.9-1.7 2.8-.2.3-.3.5-.5.8-3.3 5-7 9.8-11.3 14.3-17.8 18.4-33.5 22.2-39.6 23l-1.4.2-1.4-.2c-6.1-.8-21.7-4.6-39.6-23-2.6-2.5-4.7-5-6.7-7.5z" />
            <g id="XMLID_93_"><path id="XMLID_55_" class="st3" d="M300.7 254.2c-11.9-.1-48.6-27.3-48.6-64.8 0-36.9 41.4-39.5 43.2-39.6h11c1.7.1 43.2 2.7 43.2 39.6-.1 37.5-36.8 64.7-48.8 64.8z"/></g>
            <g id="XMLID_20_"><g id="XMLID_21_"><g id="XMLID_432_"><path id="XMLID_73_" class="st12" d="M343.2 307.4c1 0 3.6 0 5.4-2.3 2-2.4 2.4-6.2 1.3-11.4-2.8-12.9-13.2-17.3-13.6-17.4-.2-.1-.5-.1-.7-.1-.3 0-.7.1-1 .3l-9.8 6.2c-.6.4-.9 1-.9 1.7.1.7.5 1.3 1.1 1.6 2.4 1.1 8.8 4.8 9.2 9.3.7 7.2 5.8 11.8 7.7 12.3.4 0 .9-.2 1.3-.2z"/><path
                    id="XMLID_23_" class="st1"
                    d="M335.6 278.1s9.9 4 12.5 16.2c2.2 10.4-2.8 11.7-4.9 11.7-.3 0-.6 0-.8-.1-1.1-.3-5.6-4.3-6.3-10.9-.7-6.5-10.3-10.8-10.3-10.8l9.8-6.1m0-3.7c-.7 0-1.4.2-2 .6l-9.8 6.2c-1.2.7-1.8 2.1-1.7 3.4.1 1.4 1 2.6 2.2 3.1 2.5 1.1 7.8 4.4 8.1 7.7.8 7.5 5.9 13.4 9.2 14.1.5.1 1 .2 1.6.2 2.7 0 5.2-1.2 6.9-3.2 2.3-2.9 2.9-7.3 1.6-13-3-13.9-14.2-18.6-14.7-18.8-.5-.2-.9-.3-1.4-.3z" /></g><g
                    id="XMLID_427_"><path id="XMLID_70_" class="st12" d="M330.8 312c3 0 6.9-1.7 8.8-10 3.5-15-9.4-22-9.5-22.1-.3-.1-.6-.2-.9-.2-.4 0-.7.1-1 .3l-9.1 5.9c-.5.3-.9.9-.9 1.6 0 .6.3 1.2.9 1.6.1 0 6.9 4.4 5.5 8.6-2 6.4.3 12.7 2.8 13.7.7.1 1.9.6 3.4.6z"/>
                <path id="XMLID_24_" class="st1"
                      d="M329.2 281.5s11.8 6.2 8.6 20c-1.7 7.2-4.8 8.6-7 8.6-1.2 0-2.2-.4-2.6-.6-1.3-.5-3.6-5.6-1.7-11.4 1.9-5.8-6.3-10.8-6.3-10.8l9-5.8m0-3.7c-.7 0-1.4.2-2 .6l-9.1 5.9c-1.1.7-1.7 1.9-1.7 3.2 0 1.3.7 2.5 1.8 3.1 1.8 1.1 5.4 4.3 4.7 6.5-2.3 7.1.3 14.6 3.9 16h.1c.5.2 2 .8 3.9.8 3 0 8.3-1.5 10.6-11.5 3.1-13.1-5.5-21.5-10.4-24.1-.6-.4-1.2-.5-1.8-.5z" /></g><g
                    id="XMLID_422_"><path id="XMLID_67_" class="st12" d="M318.8 314.4c3.4 0 6.4-2.3 9.1-6.8 6.1-10.4-3.4-22.8-3.8-23.3-.4-.5-.9-.7-1.5-.7-.3 0-.6.1-.8.2l-8.2 4c-.5.3-.9.8-1 1.4-.1.6.1 1.2.5 1.6 0 0 4.6 4.8 2 8.1-3.8 5-4.1 11.2-1.7 13.4.9.7 2.8 2.1 5.4 2.1z"/>
                <path id="XMLID_25_" class="st1"
                      d="M322.6 285.4s9.3 11.8 3.7 21.2c-2.7 4.6-5.4 5.9-7.5 5.9-2.2 0-3.7-1.4-4.1-1.7-1.4-1.3-1.6-6.2 1.9-10.9 3.6-4.6-2.2-10.5-2.2-10.5l8.2-4m0-3.7c-.6 0-1.1.1-1.6.4l-8.2 4c-1.1.5-1.8 1.5-2 2.7-.2 1.2.2 2.4 1 3.2 0 0 3.4 3.7 1.9 5.7-4.6 6-4.5 13.1-1.5 15.9 1.1 1 3.4 2.7 6.7 2.7 4.1 0 7.7-2.6 10.7-7.7 6.8-11.5-3.5-24.9-4-25.4-.8-1-1.9-1.5-3-1.5z" /></g></g>
                <g id="XMLID_22_"><g id="XMLID_416_"><path id="XMLID_64_" class="st12" d="M258.3 307.4c-1 0-3.6 0-5.4-2.3-2-2.4-2.4-6.2-1.3-11.4 2.8-12.9 13.2-17.3 13.6-17.4.2-.1.5-.1.7-.1.3 0 .7.1 1 .3l9.8 6.2c.6.4.9 1 .9 1.7-.1.7-.5 1.3-1.1 1.6-2.4 1.1-8.8 4.8-9.2 9.3-.7 7.2-5.8 11.8-7.7 12.3-.5 0-.9-.2-1.3-.2z"/><path
                        id="XMLID_417_" class="st1"
                        d="M265.9 278.1l9.8 6.2s-9.6 4.2-10.3 10.8c-.7 6.5-5.2 10.6-6.3 10.9-.2 0-.4.1-.8.1-2.1 0-7.1-1.3-4.9-11.7 2.6-12.2 12.5-16.3 12.5-16.3m0-3.7c-.5 0-1 .1-1.4.3-.5.2-11.7 4.9-14.7 18.8-1.2 5.8-.7 10.1 1.6 13 1.6 2 4.1 3.2 6.9 3.2.6 0 1.1-.1 1.6-.2 3.2-.7 8.4-6.6 9.2-14.1.3-3.3 5.6-6.6 8.1-7.7 1.3-.6 2.1-1.8 2.2-3.1.1-1.4-.6-2.7-1.7-3.4l-9.8-6.2c-.6-.4-1.3-.6-2-.6z" /></g>
                    <g id="XMLID_411_"><path id="XMLID_61_" class="st12" d="M270.7 312c-3 0-6.9-1.7-8.8-10-3.5-15 9.4-22 9.5-22.1.3-.1.6-.2.9-.2.4 0 .7.1 1 .3l9.1 5.9c.5.3.9.9.9 1.6 0 .6-.3 1.2-.9 1.6-.1 0-6.9 4.4-5.5 8.6 2 6.4-.3 12.7-2.8 13.7-.7.1-1.9.6-3.4.6z"/>
                        <path id="XMLID_412_" class="st1"
                              d="M272.2 281.5l9.1 5.9s-8.2 5-6.3 10.8c1.9 5.8-.5 10.9-1.7 11.4-.4.1-1.4.6-2.6.6-2.3 0-5.4-1.4-7-8.6-3.2-13.9 8.5-20.1 8.5-20.1m0-3.7c-.6 0-1.2.1-1.7.4-5 2.6-13.5 11-10.4 24.1 2.3 10 7.7 11.5 10.6 11.5 1.8 0 3.3-.6 3.9-.8h.1c3.6-1.4 6.2-8.8 3.9-16-.7-2.2 3-5.4 4.7-6.5 1.1-.7 1.8-1.9 1.8-3.1 0-1.3-.6-2.5-1.7-3.2l-9.1-5.9c-.7-.3-1.4-.5-2.1-.5z" /></g>
                    <g id="XMLID_406_"><path id="XMLID_58_" class="st12" d="M282.7 314.4c-3.4 0-6.4-2.3-9.1-6.8-6.1-10.4 3.4-22.8 3.8-23.3.4-.5.9-.7 1.5-.7.3 0 .6.1.8.2l8.2 4c.5.3.9.8 1 1.4.1.6-.1 1.2-.5 1.6 0 0-4.6 4.8-2 8.1 3.8 5 4.1 11.2 1.7 13.4-.9.7-2.8 2.1-5.4 2.1z"/>
                        <path id="XMLID_407_" class="st1"
                              d="M278.9 285.4l8.2 4s-5.7 5.9-2.2 10.5c3.6 4.6 3.3 9.6 1.9 10.9-.4.4-2 1.7-4.1 1.7-2.1 0-4.8-1.3-7.5-5.9-5.6-9.4 3.7-21.2 3.7-21.2m0-3.7c-1.1 0-2.2.5-2.9 1.4-.4.6-10.7 13.9-4 25.4 3 5.1 6.6 7.7 10.7 7.7 3.2 0 5.6-1.7 6.7-2.7 3-2.8 3.1-9.8-1.5-15.9-1.5-2 1.9-5.6 1.9-5.7.8-.9 1.2-2.1 1-3.2-.2-1.2-.9-2.2-2-2.7l-8.2-4c-.6-.2-1.2-.3-1.7-.3z" /></g></g></g>
            <g id="XMLID_1_"><path id="XMLID_5_" class="st4" d="M2.5 105.9h430.3V348H2.5z"/>
                <path id="XMLID_35_"
                      d="M432.8 350.5H2.5c-1.4 0-2.5-1.1-2.5-2.5V105.9c0-1.4 1.1-2.5 2.5-2.5h430.3c1.4 0 2.5 1.1 2.5 2.5V348c0 1.4-1.1 2.5-2.5 2.5zM5 345.5h425.3V108.4H5v237.1z"
                      fill="#5e5e5e" /></g>
            <g id="XMLID_3_"><path id="XMLID_40_" class="st14" d="M454.7 180.9c-.6-9.9-4.8-15.2-14.4-18.4-8.7-2.8-26-11.4-32.5-16.8-1.3-1.1-2.7-1.7-4.1-1.9-1.6-.2-3.2.3-4.3 1.3-1.1 1-1.7 2.5-1.7 4.2.2 7.5 3.1 12.7 7 16.7-4.9-.3-8.1 2.5-9.6 8.2l-.1.3v.3c.4 9.2 8.4 17.6 15.1 21.4-3.3 2.4-6.1 6.3-8.2 11.7l-.3.9.4.9c2.4 5.6 8.5 10.1 15.5 11.6.7.1 1.4.3 2.1.3 3.3.4 6.5.1 9.1-.1 1.1-.1 2.1-.2 2.9-.2.2.1.4.1.6.1 2.8.3 14.4-2.2 17.3-13.4 5-19.2 5.5-21.5 5.2-27.1z"/>
                <g id="XMLID_26_"><path id="XMLID_34_" class="st2" d="M456.4 182.1c-.5-8.8-3.8-13.4-12.9-16.4-9.1-2.9-26.6-11.7-33.3-17.2-3.2-2.6-6.5-1.3-6.4 1.8.4 13.9 10.9 19.3 19.4 24-8.6-2.7-18.9-10.5-22 1.6.4 10.7 13 20.5 18.5 21.3-3.9 1-8.2 4.2-11.7 12.8 2.3 5.2 7.9 9 13.9 10.3 5.4 1.1 11.3-.1 14.4 0-1.3.6 12 0 15-11.5 5.1-19.7 5.4-21.6 5.1-26.7"/>
                    <path id="XMLID_27_" class="st1"
                          d="M423.6 222.9c-.7-.1-1.5-.2-2.1-.3-7-1.5-13-6-15.5-11.6l-.4-.9.3-.9c2.2-5.4 4.9-9.3 8.2-11.7-6.7-3.8-14.8-12.2-15.1-21.4v-.3l.1-.3c1.5-5.7 4.7-8.5 9.6-8.2-3.9-3.9-6.8-9.2-7-16.7 0-1.7.5-3.2 1.7-4.2 1.1-1 2.6-1.5 4.3-1.3 1.4.2 2.8.8 4.1 1.9 6.5 5.3 23.8 14 32.5 16.8 9.7 3.1 13.8 8.4 14.4 18.4.3 5.6-.1 7.9-5.2 27.4-2.9 11.2-14.5 13.7-17.3 13.4-.2 0-.4-.1-.6-.1-.8 0-1.8.1-2.9.2-2.7-.1-5.9.1-9.1-.2m14.1-4.7c2.8-.5 9.5-2.7 11.4-9.9 5.1-19.5 5.3-21.2 5.1-26-.5-8.2-3.3-11.8-11.3-14.3-9.1-2.9-26.9-11.8-34-17.6-.6-.5-1.2-.8-1.8-.9-.3 0-.6 0-.7.2-.1.1-.2.4-.2.8.4 12.2 9.4 17.2 17.4 21.6l20 11.1-20.9-6.5c-1.9-.6-3.8-1.4-5.7-2.2-2.8-1.2-5.7-2.4-8-2.6-2-.2-4.2-.1-5.4 4.5.6 9.4 12 18.2 16.5 18.8l10.9 1.7-10.7 2.7c-4 1-7.2 4.5-9.8 10.5 2.1 3.9 6.7 7.1 11.9 8.2.5.1 1.1.2 1.7.3 2.8.3 5.7.1 8.2-.1 1.6-.1 3-.2 4.1-.2l1.3-.1" /></g>
                <path id="XMLID_41_" class="st14"
                      d="M188 126c-.2-1.4-.8-2.8-1.9-4.1-5.3-6.5-14-23.8-16.8-32.5-3.1-9.7-8.4-13.8-18.4-14.4-5.6-.3-7.9.1-27.4 5.2-11.2 2.9-13.7 14.5-13.4 17.3 0 .2.1.4.1.6 0 .8-.1 1.8-.2 2.9-.2 2.6-.5 5.8-.1 9.1.1.7.2 1.5.3 2.1 1.5 7 6 13 11.6 15.5l.9.4.9-.4c5.4-2.2 9.3-4.9 11.7-8.2 3.8 6.7 12.2 14.8 21.4 15.1h.3l.3-.1c5.7-1.5 8.5-4.7 8.2-9.6 3.9 3.9 9.2 6.8 16.7 7 1.7.1 3.2-.5 4.2-1.7 1.4-1 1.8-2.6 1.6-4.2z" />
                <g id="XMLID_28_"><path id="XMLID_31_" class="st2" d="M150.9 73.2c8.8.5 13.4 3.8 16.4 12.9 2.9 9.1 11.7 26.6 17.2 33.3 2.6 3.2 1.3 6.5-1.8 6.4-13.9-.4-19.3-10.9-24-19.4 2.7 8.6 10.5 18.9-1.6 22-10.7-.4-20.5-13-21.3-18.5-1 3.9-4.2 8.2-12.8 11.7-5.2-2.3-9-7.9-10.3-13.9-1.1-5.4.1-11.3 0-14.4-.6 1.3 0-12 11.5-15 19.7-5.2 21.6-5.4 26.7-5.1"/>
                    <path id="XMLID_29_" class="st1"
                          d="M110.5 108.2c-.1-.7-.3-1.4-.3-2.1-.4-3.2-.1-6.5.1-9.1.1-1.1.2-2.1.2-2.9-.1-.2-.1-.4-.1-.6-.3-2.8 2.2-14.4 13.4-17.3 19.5-5.1 21.8-5.5 27.4-5.2 9.9.6 15.2 4.8 18.4 14.4 2.8 8.7 11.4 26 16.8 32.5 1.1 1.3 1.7 2.7 1.9 4.1.2 1.6-.3 3.2-1.3 4.3-1 1.1-2.5 1.7-4.2 1.7-7.5-.2-12.7-3.1-16.7-7 .3 4.9-2.5 8.1-8.2 9.6l-.3.1h-.3c-9.2-.4-17.6-8.4-21.4-15.1-2.4 3.3-6.3 6.1-11.7 8.2l-.9.4-.9-.4c-5.9-2.6-10.5-8.7-11.9-15.6m14.3-27.7c-7.2 1.9-9.5 8.6-9.9 11.4l.1 1.4c0 1.2-.1 2.5-.2 4.1-.2 2.5-.4 5.4-.1 8.2.1.6.2 1.2.3 1.7 1.1 5.2 4.3 9.8 8.2 11.9 6.1-2.6 9.5-5.8 10.5-9.8l2.7-10.7 1.7 10.9c.7 4.6 9.5 15.9 18.9 16.5 4.6-1.3 4.7-3.5 4.5-5.4-.3-2.3-1.5-5.2-2.6-8-.8-1.9-1.6-3.8-2.2-5.7l-6.6-20.9 11.1 20c4.4 8 9.4 17 21.6 17.4.4 0 .6-.1.8-.2.1-.1.2-.4.1-.7-.1-.5-.4-1.2-.9-1.8-5.8-7.1-14.6-24.9-17.6-34-2.6-8-6.2-10.8-14.3-11.3-4.9-.4-6.7-.1-26.1 5" /></g>
                <g id="XMLID_6_"><g id="XMLID_7_"><defs><path id="XMLID_99_" d="M324.4 128.4c-9.2 2-18.4 7.3-22.4 7.3h-2.4c-4 0-13.2-5.3-22.4-7.3-12.3-2.7-49.6-14.1-49.6-58.7S258.1 11 270.4 11c11.9 0 21.2 12.3 30.5 13.1 9.3-.8 18.6-13.1 30.5-13.1 12.3 0 42.8 14.1 42.8 58.7-.2 44.6-37.5 55.9-49.8 58.7z"/></defs><clipPath
                        id="XMLID_122_"><use xlink:href="#XMLID_99_" overflow="visible"/></clipPath><g id="XMLID_8_"
                                                                                                       opacity=".25"
                                                                                                       clip-path="url(#XMLID_122_)"><path id="XMLID_100_" d="M319.1 96.4s-8.6 37.5-18.6 37.5c-10 0-18-37.5-18-37.5h36.6z"/></g></g>
                    <path id="XMLID_9_"
                          d="M282.4 96.3c0 7.7 8.1 27.2 18.3 27.2 10 0 18.3-19.8 18.3-27.2 0-10.1-8.2-18.3-18.3-18.3-10.1 0-18.3 8.2-18.3 18.3zm7.9 0c0-5.8 4.7-10.5 10.5-10.5s10.5 4.7 10.5 10.5c0 6.8-7.9 19.4-10.5 19.4-3.2-.1-10.5-12.6-10.5-19.4z"
                          fill="#3f2b2f" />
                    <path id="XMLID_96_"
                          d="M300.7 84.2c6.7 0 12 5.4 12 12s-7.9 20.9-12 20.9c-4.7 0-12-14.3-12-20.9 0-6.6 5.4-12 12-12z"
                          fill="#dd7a26" />
                    <g id="XMLID_10_"><defs><path id="XMLID_94_" d="M312.8 96.3c0 6.6-7.9 20.9-12 20.9-4.7 0-12-14.3-12-20.9 0-6.6 5.4-12 12-12 6.6-.1 12 5.3 12 12z"/></defs>
                        <clipPath id="XMLID_123_"><use xlink:href="#XMLID_94_" overflow="visible"/></clipPath>
                        <path id="XMLID_95_"
                              d="M312.8 96.3s-8 16.5-12.4 16.5c-4.3 0-11.8-17.7-11.8-17.7s1.6 24.7 11.8 24.7c10.2 0 12.4-23.5 12.4-23.5z"
                              clip-path="url(#XMLID_123_)" fill="#b05e27" /></g></g></g>
            <path id="XMLID_92_" d="M294.8 101.3c-1.4-2.9-3.5-7-3.9-7.8-.5-.8 3.2-5.4 3.4-4.5 4.2 19.3 4.1 20.1.5 12.3z"
                  fill="#e9a37b" /></g></g></svg>
