<svg xmlns="http://www.w3.org/2000/svg" xmlns:xlink="http://www.w3.org/1999/xlink" viewBox="0 0 224.663 156.887">
    <path fill="#A68362"
          d="M160.374 94.029c-8.579-.775-7.926 1.659-13.188-2.102-6.946-5.231-23.174-23.138-23.174-23.138 2.79-4.744 15.156-18.678 16.166-20.335 1.007-1.654 2.87 3.052 9.685 2.212 6.819-.837 8.761-1.833 14.546-3.152 6.335-1.444 20.715-6.657 28.377-11.208 7.661-4.552 9.729-11.186 17.435-17.104 7.703-5.918 16.375-9.939 11.938 1.688-2.529 6.622-8.553 11.625-10.234 14.534 4.577-1.034 2.336 2.908 1.154 4.616-2.02 2.921-9.701 10.913-13.768 13.147 9.592-.729-8.205 14.154-11.898 15.633 5.064-.161 1.888 3.8.143 5.375-2.387 2.154-10.029 7.064-13.54 7.891 2.468 1.966 1.849 6.549-13.642 11.943z" />
    <path fill="#47292B"
          d="M169.688 91.477c-2.35 1.271-5.339 2.542-8.887 3.775l-.264.093-.279-.024c-3.084-.279-4.945-.127-6.305-.017-2.727.225-3.975.214-7.521-2.322-6.99-5.265-22.715-22.586-23.381-23.321l-.64-.706.482-.822c1.839-3.123 7.562-9.944 11.74-14.925 2.122-2.526 4.124-4.913 4.437-5.428.206-.337.468-.593.775-.759 1.049-.567 1.996.049 2.908.646 1.322.861 3.318 2.162 6.95 1.714 4.514-.554 6.778-1.161 9.646-1.929 1.344-.36 2.866-.767 4.771-1.202 5.506-1.256 18.174-5.702 26.293-10.091a45.034 45.034 0 001.709-.967c3.939-2.34 6.369-5.312 8.942-8.456 2.311-2.825 4.7-5.747 8.366-8.562 2.269-1.744 4.464-3.203 6.349-4.222 3.714-2.007 6.247-2.344 7.748-1.028 1.562 1.37 1.513 4.049-.159 8.427-1.753 4.592-5.112 8.447-7.564 11.261-.479.55-.934 1.069-1.336 1.551.467.175.834.46 1.104.858.836 1.238.355 3.174-1.427 5.755-1.776 2.569-7.331 8.468-11.631 11.797.44.347.675.776.794 1.181 1.107 3.771-8.074 11.393-12.66 14.613.275.244.482.541.625.89.911 2.266-1.951 5.09-2.85 5.9-1.756 1.586-5.727 4.23-9.041 6.022-1.229.663-2.318 1.188-3.26 1.569.229.551.321 1.147.266 1.765-.205 2.33-2.46 4.672-6.7 6.964zm-9.479 1.235c3.302-1.159 6.074-2.342 8.246-3.516 4.66-2.519 5.295-4.274 5.352-4.912.014-.164.059-.661-.6-1.186l-2.092-1.664 2.602-.612c1.008-.235 2.541-.902 4.434-1.925 3.479-1.881 7.14-4.405 8.535-5.666 1.313-1.186 2.117-2.479 2.17-2.961-.139-.062-.521-.184-1.402-.155l-7.354.235 6.831-2.735c.132-.052.284-.128.46-.223 4.455-2.407 13.436-10.71 13.434-12.826-.146-.056-.539-.154-1.415-.087l-5.973.453 5.25-2.883c3.833-2.105 11.384-9.939 13.325-12.747.957-1.387 1.305-2.337 1.363-2.748-.186-.016-.546-.007-1.166.132l-2.892.654 1.483-2.566c.633-1.096 1.753-2.38 3.049-3.867 2.454-2.815 5.51-6.321 7.098-10.481 1.785-4.679.908-5.519.871-5.552-.303-.266-1.695-.322-4.805 1.359-1.767.954-3.842 2.337-6.003 3.995-3.428 2.634-5.722 5.437-7.938 8.148-2.723 3.327-5.293 6.471-9.623 9.044-.566.337-1.169.677-1.802 1.02-8.312 4.492-21.3 9.049-26.95 10.338-1.857.424-3.291.808-4.677 1.178-2.849.763-5.307 1.421-9.999 1.998-4.571.563-7.246-1.18-8.682-2.116a30.278 30.278 0 00-.378-.243c-.651.878-2.056 2.557-4.341 5.279-3.779 4.505-8.842 10.537-10.986 13.771 3.111 3.398 16.35 17.742 22.332 22.246 2.89 2.065 3.557 2.011 5.775 1.83 1.412-.116 3.33-.273 6.468-.009z" />
    <path fill="#A68362"
          d="M97.451 112.878c6.738-5.361 7.529-2.97 9.855-9.005 2.925-8.188 6.638-32.067 6.638-32.067-4.938-2.43-22.929-7.268-24.682-8.096-1.752-.829-.721 4.125-6.876 7.171-6.156 3.05-8.325 3.286-13.881 5.363-6.087 2.276-20.965 5.831-29.868 6.243-8.9.407-14.279-3.995-23.966-4.703-9.684-.709-19.143.699-9.041 7.972 5.752 4.142 13.531 5.008 16.538 6.515-4.392 1.652-.352 3.713 1.571 4.49 3.295 1.331 14.104 3.784 18.733 3.411-8.417 4.666 14.636 7.312 18.529 6.52-4.316 2.648.515 4.21 2.84 4.564 3.176.486 12.261.388 15.646-.852-.982 3.002 2.055 6.489 17.964 2.474z" />
    <path fill="#47292B"
          d="M98.039 114.068l-.271.067c-9.977 2.519-16.275 2.467-18.717-.151a3.742 3.742 0 01-.956-1.87c-4.351.876-11.655.852-14.452.425-1.196-.183-5.141-.967-5.625-3.361a2.335 2.335 0 01.038-1.109c-5.894-.164-17.267-1.559-18.568-5.09a2.305 2.305 0 01-.038-1.556c-5.423-.417-13.305-2.29-16.199-3.459-2.806-1.134-4.27-2.438-4.351-3.874a2.27 2.27 0 01.447-1.473c-.602-.181-1.266-.366-1.967-.562-3.596-1.002-8.521-2.373-12.509-5.247-3.438-2.476-4.986-4.497-4.866-6.357.051-.793.438-1.913 1.996-2.755 3.031-1.639 9.297-1.459 12.763-1.205 4.608.337 8.21 1.463 11.694 2.553 3.879 1.212 7.542 2.358 12.117 2.149 8.914-.413 23.642-3.982 29.474-6.161a119.56 119.56 0 014.644-1.619c2.817-.936 5.041-1.674 9.116-3.693.139-.068.272-.139.404-.209 2.954-1.597 3.86-3.67 4.459-5.042.365-.833.678-1.552 1.375-1.929.309-.167.949-.389 1.769 0 .542.256 3.521 1.146 6.676 2.089 6.232 1.862 14.769 4.413 18.023 6.015l.855.421-.146.941c-.152.979-3.766 24.096-6.697 32.305-1.579 4.099-2.616 4.795-5.016 6.107-1.194.653-2.833 1.549-5.254 3.476l-.218.174zm-37.444-5.373c.308.375 1.693 1.013 3.441 1.28 2.986.456 11.818.38 15.004-.787l2.507-.92-.83 2.539c-.282.861.102 1.272.228 1.409.615.657 3.572 2.55 15.919-.526 2.475-1.946 4.162-2.869 5.403-3.549 1.95-1.066 2.54-1.39 3.829-4.733 2.508-7.026 5.682-26.281 6.411-30.831-3.57-1.523-11.12-3.779-16.757-5.465-3.403-1.016-5.493-1.645-6.518-2.017-.061.132-.125.277-.182.41-.726 1.661-1.94 4.49-6.089 6.538-4.236 2.099-6.652 2.9-9.45 3.831-1.361.451-2.769.918-4.552 1.586-5.984 2.236-21.104 5.898-30.262 6.322-5.034.229-8.907-.981-13.011-2.265-3.343-1.045-6.801-2.125-11.11-2.441-5.337-.39-9.578-.053-11.34.899-.232.126-.625.376-.642.641-.013.217.105 1.431 3.794 4.087 3.614 2.604 8.092 3.852 11.69 4.854 1.898.53 3.539.986 4.671 1.554l2.651 1.328-2.775 1.045c-.498.188-.89.406-1.048.529.276.312 1.087.915 2.647 1.547 3.164 1.277 13.78 3.672 18.144 3.32l5.977-.48-5.245 2.907c-.769.427-1.044.726-1.135.852 1.29 1.997 15.509 3.929 18.777 3.262l7.199-1.463-6.263 3.84c-.748.458-1.003.769-1.083.897z" />
    <path fill="#482A2B"
          d="M141.793 52.96c-.617-.493-2-1.092-2-1.092s2.316-1.847 2.863-2.55c2.553-3.284 1.926-2.468 2.845-4.03 2.245-5.621 3.261-12.35.729-20.798C139.273 1.27 120.496-1.62 112.998.625c-4.345 1.302-7.107 4.541-9.326 7.139-.756.884-1.833 2.145-2.541 2.688-.887-.065-2.479-.526-3.595-.851-3.285-.95-7.374-2.135-11.718-.833-7.496 2.246-21.595 14.986-14.637 38.207 1.711 5.715 4.31 10.038 7.347 13.314l.081-.006c3.179 3.199 7.436 5.874 11.939 7.499 0 0-5.18 9.537-1.21 25.607 6.278 25.434 20.966 34.011 24.57 36.399.34.226.203 1.25-.589 2.499a9.417 9.417 0 01-1.106 1.333c-2.156 2.17-3.603 4.117-5.276 6.584a5.323 5.323 0 00.28 2.148c.943 2.745 3.465 3.446 4.306 3.684 2.031.566 3.96.604 5.765.159.279.323.563.571.855.752 2.754 2.964 7.921 6.198 12.233 4.953.808.687 1.856 1.419 3.235 2.189 4.354 2.455 7.881 3.297 10.48 2.512a5.98 5.98 0 00.912-.369c.325-.039.65-.101.969-.194 2.601-.772 5.084-3.414 7.371-7.859.725-1.403 1.199-2.589 1.5-3.606 4.664-1.449 7.267-7.902 7.635-11.896 1.813-.61 3.459-1.729 4.889-3.37.566-.659 2.289-2.632 1.572-5.445a5.269 5.269 0 00-.948-1.945c-2.369-.979-4.386-1.729-6.806-2.319-1.4-.757-2.719-1.467-3.65-1.993-.752-.424-1.256-.73-1.354-.843-.014-.019.004-.085.039-.186.074-.17.152-.35.242-.551.496-1.048 1.5-2.917 1.746-3.604 1.408-4.229 2.777-13.474 2.777-13.474.732-8.517-.549-12.761-1.861-18.749-1.031-4.727-2.153-6.06-4.518-12.071-2.546-6.476-10.146-13.03-12.813-15.167z" />
    <path fill="#A68362"
          d="M121.059 133.425a50.018 50.018 0 01-3.93-1.779c-4.264 9.389-6.35 8.78-4.379 9.339 1.255.357 2.325.366 3.248.09 1.558-.466 2.687-1.758 3.52-3.584.86-1.889 1.216-3.186 1.541-4.066zm1.823.682a26.7 26.7 0 00-.468 1.09c-1.212 3.052-2.331 5.562-1.641 7.219.543 1.313 5.293 4.972 7.479 4.318.586-.177.988-.658 1.08-1.575.486-4.991.277-7.752.27-9.355a37.937 37.937 0 01-6.72-1.697zm31.508-13.598a47.509 47.509 0 01-2.31 3.646c.751.56 1.764 1.442 3.496 2.532 1.7 1.068 3.351 1.526 4.91 1.059.924-.277 1.814-.873 2.664-1.861 1.34-1.547-.062.101-8.76-5.376zm-3.46 5.219c-1.605 2.09-3.203 3.77-4.697 5.108.879 1.347 2.224 3.769 5.363 7.651.582.719 1.182.902 1.768.726 2.188-.655 4.137-6.326 3.872-7.721-.337-1.765-2.647-3.246-5.337-5.124-.35-.246-.675-.453-.969-.64zm3.963-12.63c.007-.03.021-.059.032-.086.056-.144.107-.285.162-.425a44.51 44.51 0 002.184-7.874l.001-.006c.02-.084.032-.163.047-.246.182-1.056.334-2.111.447-3.171.03-.254.06-.507.082-.761l.004-.012c.129-1.421.191-2.844.199-4.266a.077.077 0 00.004-.025c0-.316-.007-.633-.008-.948a47.937 47.937 0 00-.05-1.865v-.017c-.008-.212-.028-.431-.04-.646a65.711 65.711 0 00-.155-2.17l-.001-.002-.051-.429a55.396 55.396 0 00-.285-2.368c0-.005.002-.007.002-.007a23.247 23.247 0 01-.082-.483 66.082 66.082 0 00-1.217-6.085 43.609 43.609 0 00-.119-.49l-.009-.036c-.103-.397-.201-.795-.309-1.19a.042.042 0 00-.002-.005c-.052-.183-.104-.358-.157-.538a76.127 76.127 0 00-1.518-4.818l-.001-.007c-.31-.881-.638-1.75-.974-2.614-4.346-11.125-12.104-16.218-15.303-17.926-3.275 3.559-6.932 5.969-9.445 7.372-3.963 2.218-8.094 3.608-10.203 4.239l-.547.162a40.47 40.47 0 01-.545.165c-2.109.633-6.325 1.743-10.856 2.07-2.865.206-7.249.205-11.938-.967-1.737 3.187-5.413 11.708-2.93 23.387a80.97 80.97 0 001.779 6.838c.127.428.257.857.395 1.285v.005a72.635 72.635 0 001.383 3.85l.014.025c.181.473.367.947.565 1.414v.006c.174.412.355.82.536 1.225v.004a65.185 65.185 0 001.211 2.585c.004 0 .006.004.006.004.13.265.265.519.397.78a55.32 55.32 0 001.644 2.97l.005.011a50.776 50.776 0 001.502 2.383l.004.008c.5.748 1.02 1.48 1.558 2.196.022.037.049.071.073.104a51.826 51.826 0 00.897 1.175c.163.202.333.398.496.596a50.886 50.886 0 002.279 2.568l.006.007c.488.514.988 1.017 1.503 1.506.179.164.354.332.531.496.004.009.015.015.021.024.376.343.742.694 1.13 1.025 0 0 .002.003.005.003.099.094.212.179.323.266a43.96 43.96 0 006.958 4.846c10.4 5.813 17.883 5.423 20.702 4.964l.625-.114.592-.251c2.602-1.165 9.068-4.953 14.557-15.527.723-1.381 1.327-2.784 1.884-4.189z" />
    <path fill="#A68362"
          d="M106 65.058c4.385-.32 8.514-1.433 10.307-1.97.217-.066.4-.123.543-.168.148-.041.332-.094.549-.158 1.793-.538 5.859-1.882 9.693-4.023 5.111-2.857 20.226-12.911 14.271-32.789-5.956-19.88-21.431-22.096-26.906-20.456-5.302 1.587-7.819 8.335-11.838 9.923-4.23.882-10.041-3.369-15.341-1.781-5.478 1.64-17.186 12.004-11.232 31.88 5.957 19.879 24.11 19.965 29.954 19.542z" />
    <path fill="#D0AB7B"
          d="M114.803 15.834c-4.316 1.294-6.648 5.831-9.941 7.063-3.425.782-7.871-1.726-12.189-.432-4.456 1.334-14.314 8.677-10.499 21.416 3.814 12.737 18.332 11.931 23.025 11.373 3.944-.465 7.69-1.575 8.779-1.915 1.106-.318 4.842-1.448 8.391-3.229 4.225-2.113 16.799-9.424 12.982-22.159-3.814-12.739-16.085-13.452-20.548-12.117z" />
    <defs>
        <path id="a"
              d="M119.57 137.475c-.834 1.825-1.963 3.117-3.525 3.587-.916.273-1.99.266-3.241-.093-1.975-.557.112.051 4.375-9.339a49.359 49.359 0 003.929 1.777c-.321.883-.682 2.18-1.538 4.068zm-22.987-25.669c-2.382-4.062-4.629-9.518-5.934-13.686a5.674 5.674 0 01-.053-.186 74.617 74.617 0 01-.71-2.389c-.073-.266-.133-.523-.204-.785a69.07 69.07 0 01-1.012-4.19c-2.372-11.271.595-20.885 2.923-24.759a30.827 30.827 0 01-2.197-.853c-1.156 2.85-3.66 6.124-7.836 7.749-2.867 1.118.106 5.424-1.156 12.534 0 0 8.776 27.653 9.624 27.718.847.068 6.555-1.153 6.555-1.153zm26.354 22.282c-.147.327-.308.684-.47 1.092-1.211 3.053-2.334 5.561-1.643 7.22.546 1.312 5.297 4.974 7.482 4.318.584-.176.987-.658 1.078-1.575.488-4.991.275-7.75.271-9.357a37.606 37.606 0 01-6.718-1.698zm31.505-13.594a47.734 47.734 0 01-2.308 3.646c.747.559 1.759 1.443 3.492 2.533 1.701 1.066 3.354 1.525 4.915 1.058.919-.276 1.813-.873 2.662-1.86 1.338-1.549-.064.099-8.761-5.377zm-3.46 5.217c-1.607 2.091-3.205 3.77-4.697 5.11.88 1.345 2.224 3.767 5.361 7.651.581.719 1.181.9 1.77.725 2.186-.655 4.139-6.327 3.873-7.721-.336-1.766-2.65-3.245-5.34-5.123-.349-.247-.673-.454-.967-.642zm-19.207 10.327c-.066 2.899-.514 7.532.244 10.526.404 1.604-.383-.016 1.613-.614.123-.036.826-1.035.91-1.098-.104-.196-1.144-1.325-1.209-1.548m21.61-30.221c.008-.03.023-.061.032-.086.054-.142.108-.287.163-.427a44.851 44.851 0 002.186-7.873l.001-.005c.016-.086.03-.163.042-.248.189-1.056.334-2.109.447-3.169.031-.255.064-.508.087-.763l.001-.009a49.15 49.15 0 00.199-4.268.066.066 0 00.004-.025c-.002-.316-.004-.633-.008-.947a55.176 55.176 0 00-.048-1.868l-.003-.014c-.008-.212-.024-.432-.037-.646a53.875 53.875 0 00-.16-2.167v-.003c-.014-.146-.033-.289-.046-.431a63.546 63.546 0 00-.288-2.37v-.007c-.025-.161-.053-.321-.078-.482a66.061 66.061 0 00-1.217-6.084c-.043-.164-.08-.325-.124-.487-.003-.014-.003-.026-.007-.037-.1-.399-.2-.796-.305-1.193l-.002-.006c-.049-.181-.104-.357-.158-.535a74.06 74.06 0 00-1.521-4.817l-.002-.009a89.393 89.393 0 00-.969-2.615c-4.348-11.123-12.104-16.217-15.305-17.925-3.275 3.559-6.932 5.968-9.443 7.371-3.967 2.22-8.096 3.608-10.203 4.239l-.547.164-.548.165c-2.106.63-6.321 1.742-10.853 2.069-2.869.208-7.25.206-11.945-.967-1.731 3.188-5.411 11.71-2.925 23.388a80.067 80.067 0 001.778 6.836c.127.429.256.858.396 1.286v.006c.424 1.294.89 2.577 1.387 3.849.004.007.006.015.009.026.184.471.371.947.567 1.414v.006c.174.41.356.816.535 1.223v.006c.161.358.321.715.484 1.067.239.51.48 1.013.73 1.517l.003.005c.128.263.265.52.4.779.302.587.61 1.168.933 1.745.234.409.468.82.709 1.226l.004.011c.244.407.49.813.747 1.216.245.391.499.777.754 1.166l.01.007a49.978 49.978 0 001.553 2.199c.027.033.051.07.076.102.294.393.588.785.893 1.168.004.004.004.007.009.007.159.201.325.399.491.596a49.076 49.076 0 001.983 2.257c.099.103.194.207.292.312l.005.006c.49.513.989 1.017 1.504 1.505.178.167.354.334.532.496.007.01.014.014.024.025.373.344.739.696 1.128 1.025l.002.004c.107.092.214.179.327.265a43.834 43.834 0 006.959 4.845c10.4 5.813 17.879 5.423 20.699 4.967l.63-.118.586-.247c2.605-1.166 9.069-4.956 14.563-15.529.719-1.383 1.324-2.783 1.878-4.189zm-48.892-48.041c4.381-.318 8.514-1.431 10.307-1.97.221-.065.398-.121.547-.167l.547-.159c1.792-.537 5.855-1.88 9.692-4.021 5.114-2.859 20.228-12.914 14.274-32.793-5.957-19.879-21.432-22.097-26.911-20.454-5.3 1.589-7.817 8.335-11.835 9.923-4.232.883-10.041-3.368-15.345-1.78C81.852 15.261 70.145 25.623 76.1 45.5c5.953 19.879 24.108 19.966 29.951 19.542z" />
    </defs>
    <clipPath id="b">
        <use xlink:href="#a" overflow="visible" />
    </clipPath>
    <g clip-path="url(#b)">
        <path fill="#7E553B"
              d="M100.8 113.381s19.667 20.727 35.566 15.963c18.175-5.445 21.735-33.107 21.735-33.107l1.212 3.467-3.491 15.638-7.084 10.297-5.398 5.597s-2.879 2.19-5.107 2.859c-2.236.668-8.623 1.476-12.779-.596-4.158-2.069-13.346-6.169-15.959-8.262-2.616-2.088-8.515-10.711-8.515-10.711l-.18-1.145z" />
    </g>
    <defs>
        <path id="c"
              d="M119.57 137.475c-.834 1.825-1.963 3.117-3.525 3.587-.916.273-1.99.266-3.241-.093-1.975-.557.112.051 4.375-9.339a49.359 49.359 0 003.929 1.777c-.321.883-.682 2.18-1.538 4.068zm-22.987-25.669c-2.382-4.062-4.629-9.518-5.934-13.686a5.674 5.674 0 01-.053-.186 74.617 74.617 0 01-.71-2.389c-.073-.266-.133-.523-.204-.785a69.07 69.07 0 01-1.012-4.19c-2.372-11.271.595-20.885 2.923-24.759a30.827 30.827 0 01-2.197-.853c-1.156 2.85-3.66 6.124-7.836 7.749-2.867 1.118.106 5.424-1.156 12.534 0 0 8.776 27.653 9.624 27.718.847.068 6.555-1.153 6.555-1.153zm26.354 22.282c-.147.327-.308.684-.47 1.092-1.211 3.053-2.334 5.561-1.643 7.22.546 1.312 5.297 4.974 7.482 4.318.584-.176.987-.658 1.078-1.575.488-4.991.275-7.75.271-9.357a37.606 37.606 0 01-6.718-1.698zm31.505-13.594a47.734 47.734 0 01-2.308 3.646c.747.559 1.759 1.443 3.492 2.533 1.701 1.066 3.354 1.525 4.915 1.058.919-.276 1.813-.873 2.662-1.86 1.338-1.549-.064.099-8.761-5.377zm-3.46 5.217c-1.607 2.091-3.205 3.77-4.697 5.11.88 1.345 2.224 3.767 5.361 7.651.581.719 1.181.9 1.77.725 2.186-.655 4.139-6.327 3.873-7.721-.336-1.766-2.65-3.245-5.34-5.123-.349-.247-.673-.454-.967-.642zm-19.207 10.327c-.066 2.899-.514 7.532.244 10.526.404 1.604-.383-.016 1.613-.614.123-.036.826-1.035.91-1.098-.104-.196-1.144-1.325-1.209-1.548m21.61-30.221c.008-.03.023-.061.032-.086.054-.142.108-.287.163-.427a44.851 44.851 0 002.186-7.873l.001-.005c.016-.086.03-.163.042-.248.189-1.056.334-2.109.447-3.169.031-.255.064-.508.087-.763l.001-.009a49.15 49.15 0 00.199-4.268.066.066 0 00.004-.025c-.002-.316-.004-.633-.008-.947a55.176 55.176 0 00-.048-1.868l-.003-.014c-.008-.212-.024-.432-.037-.646a53.875 53.875 0 00-.16-2.167v-.003c-.014-.146-.033-.289-.046-.431a63.546 63.546 0 00-.288-2.37v-.007c-.025-.161-.053-.321-.078-.482a66.061 66.061 0 00-1.217-6.084c-.043-.164-.08-.325-.124-.487-.003-.014-.003-.026-.007-.037-.1-.399-.2-.796-.305-1.193l-.002-.006c-.049-.181-.104-.357-.158-.535a74.06 74.06 0 00-1.521-4.817l-.002-.009a89.393 89.393 0 00-.969-2.615c-4.348-11.123-12.104-16.217-15.305-17.925-3.275 3.559-6.932 5.968-9.443 7.371-3.967 2.22-8.096 3.608-10.203 4.239l-.547.164-.548.165c-2.106.63-6.321 1.742-10.853 2.069-2.869.208-7.25.206-11.945-.967-1.731 3.188-5.411 11.71-2.925 23.388a80.067 80.067 0 001.778 6.836c.127.429.256.858.396 1.286v.006c.424 1.294.89 2.577 1.387 3.849.004.007.006.015.009.026.184.471.371.947.567 1.414v.006c.174.41.356.816.535 1.223v.006c.161.358.321.715.484 1.067.239.51.48 1.013.73 1.517l.003.005c.128.263.265.52.4.779.302.587.61 1.168.933 1.745.234.409.468.82.709 1.226l.004.011c.244.407.49.813.747 1.216.245.391.499.777.754 1.166l.01.007a49.978 49.978 0 001.553 2.199c.027.033.051.07.076.102.294.393.588.785.893 1.168.004.004.004.007.009.007.159.201.325.399.491.596a49.076 49.076 0 001.983 2.257c.099.103.194.207.292.312l.005.006c.49.513.989 1.017 1.504 1.505.178.167.354.334.532.496.007.01.014.014.024.025.373.344.739.696 1.128 1.025l.002.004c.107.092.214.179.327.265a43.834 43.834 0 006.959 4.845c10.4 5.813 17.879 5.423 20.699 4.967l.63-.118.586-.247c2.605-1.166 9.069-4.956 14.563-15.529.719-1.383 1.324-2.783 1.878-4.189zm-48.892-48.041c4.381-.318 8.514-1.431 10.307-1.97.221-.065.398-.121.547-.167l.547-.159c1.792-.537 5.855-1.88 9.692-4.021 5.114-2.859 20.228-12.914 14.274-32.793-5.957-19.879-21.432-22.097-26.911-20.454-5.3 1.589-7.817 8.335-11.835 9.923-4.232.883-10.041-3.368-15.345-1.78C81.852 15.261 70.145 25.623 76.1 45.5c5.953 19.879 24.108 19.966 29.951 19.542z" />
    </defs>
    <clipPath id="d">
        <use xlink:href="#c" overflow="visible" />
    </clipPath>
    <path clip-path="url(#d)" fill="#7E553B"
          d="M154.526 119.595l-3.728 4.434-3.167 4.097-9.167 6.749-11.367-.597-4.898-1.682-5.553-1.654-.959 3.438.293.054s1.151-.57 3.08-.039c1.93.527 2.332 2.612 2.332 2.612s2.303-.799 5.102-.311c2.799.487 3.959 1.882 3.959 1.882l1.085.006s-.316-2.644 1.548-2.784c1.862-.145.776.012.776.012l2.12-.246.893.075 1.65-.702.316.058.26-.19.537.141s1.599-1.018 3.235-1.922c1.636-.904 3.419 1.142 3.419 1.142l.896-.601s.21-1.804 2.275-3.751c2.072-1.944 4.433-2.545 4.433-2.545s-.808-1.966.51-3.465c1.318-1.501 2.598-1.663 2.598-1.663l.216-.203-2.694-2.345z" />
    <defs>
        <path id="e"
              d="M119.57 137.475c-.834 1.825-1.963 3.117-3.525 3.587-.916.273-1.99.266-3.241-.093-1.975-.557.112.051 4.375-9.339a49.359 49.359 0 003.929 1.777c-.321.883-.682 2.18-1.538 4.068zm-22.987-25.669c-2.382-4.062-4.629-9.518-5.934-13.686a5.674 5.674 0 01-.053-.186 74.617 74.617 0 01-.71-2.389c-.073-.266-.133-.523-.204-.785a69.07 69.07 0 01-1.012-4.19c-2.372-11.271.595-20.885 2.923-24.759a30.827 30.827 0 01-2.197-.853c-1.156 2.85-3.66 6.124-7.836 7.749-2.867 1.118.106 5.424-1.156 12.534 0 0 8.776 27.653 9.624 27.718.847.068 6.555-1.153 6.555-1.153zm26.354 22.282c-.147.327-.308.684-.47 1.092-1.211 3.053-2.334 5.561-1.643 7.22.546 1.312 5.297 4.974 7.482 4.318.584-.176.987-.658 1.078-1.575.488-4.991.275-7.75.271-9.357a37.606 37.606 0 01-6.718-1.698zm31.505-13.594a47.734 47.734 0 01-2.308 3.646c.747.559 1.759 1.443 3.492 2.533 1.701 1.066 3.354 1.525 4.915 1.058.919-.276 1.813-.873 2.662-1.86 1.338-1.549-.064.099-8.761-5.377zm-3.46 5.217c-1.607 2.091-3.205 3.77-4.697 5.11.88 1.345 2.224 3.767 5.361 7.651.581.719 1.181.9 1.77.725 2.186-.655 4.139-6.327 3.873-7.721-.336-1.766-2.65-3.245-5.34-5.123-.349-.247-.673-.454-.967-.642zm-19.207 10.327c-.066 2.899-.514 7.532.244 10.526.404 1.604-.383-.016 1.613-.614.123-.036.826-1.035.91-1.098-.104-.196-1.144-1.325-1.209-1.548m21.61-30.221c.008-.03.023-.061.032-.086.054-.142.108-.287.163-.427a44.851 44.851 0 002.186-7.873l.001-.005c.016-.086.03-.163.042-.248.189-1.056.334-2.109.447-3.169.031-.255.064-.508.087-.763l.001-.009a49.15 49.15 0 00.199-4.268.066.066 0 00.004-.025c-.002-.316-.004-.633-.008-.947a55.176 55.176 0 00-.048-1.868l-.003-.014c-.008-.212-.024-.432-.037-.646a53.875 53.875 0 00-.16-2.167v-.003c-.014-.146-.033-.289-.046-.431a63.546 63.546 0 00-.288-2.37v-.007c-.025-.161-.053-.321-.078-.482a66.061 66.061 0 00-1.217-6.084c-.043-.164-.08-.325-.124-.487-.003-.014-.003-.026-.007-.037-.1-.399-.2-.796-.305-1.193l-.002-.006c-.049-.181-.104-.357-.158-.535a74.06 74.06 0 00-1.521-4.817l-.002-.009a89.393 89.393 0 00-.969-2.615c-4.348-11.123-12.104-16.217-15.305-17.925-3.275 3.559-6.932 5.968-9.443 7.371-3.967 2.22-8.096 3.608-10.203 4.239l-.547.164-.548.165c-2.106.63-6.321 1.742-10.853 2.069-2.869.208-7.25.206-11.945-.967-1.731 3.188-5.411 11.71-2.925 23.388a80.067 80.067 0 001.778 6.836c.127.429.256.858.396 1.286v.006c.424 1.294.89 2.577 1.387 3.849.004.007.006.015.009.026.184.471.371.947.567 1.414v.006c.174.41.356.816.535 1.223v.006c.161.358.321.715.484 1.067.239.51.48 1.013.73 1.517l.003.005c.128.263.265.52.4.779.302.587.61 1.168.933 1.745.234.409.468.82.709 1.226l.004.011c.244.407.49.813.747 1.216.245.391.499.777.754 1.166l.01.007a49.978 49.978 0 001.553 2.199c.027.033.051.07.076.102.294.393.588.785.893 1.168.004.004.004.007.009.007.159.201.325.399.491.596a49.076 49.076 0 001.983 2.257c.099.103.194.207.292.312l.005.006c.49.513.989 1.017 1.504 1.505.178.167.354.334.532.496.007.01.014.014.024.025.373.344.739.696 1.128 1.025l.002.004c.107.092.214.179.327.265a43.834 43.834 0 006.959 4.845c10.4 5.813 17.879 5.423 20.699 4.967l.63-.118.586-.247c2.605-1.166 9.069-4.956 14.563-15.529.719-1.383 1.324-2.783 1.878-4.189zm-48.892-48.041c4.381-.318 8.514-1.431 10.307-1.97.221-.065.398-.121.547-.167l.547-.159c1.792-.537 5.855-1.88 9.692-4.021 5.114-2.859 20.228-12.914 14.274-32.793-5.957-19.879-21.432-22.097-26.911-20.454-5.3 1.589-7.817 8.335-11.835 9.923-4.232.883-10.041-3.368-15.345-1.78C81.852 15.261 70.145 25.623 76.1 45.5c5.953 19.879 24.108 19.966 29.951 19.542z" />
    </defs>
    <clipPath id="f">
        <use xlink:href="#e" overflow="visible" />
    </clipPath>
    <g clip-path="url(#f)">
        <path fill="#7E553B"
              d="M88.304 87.157s.928 15.637 10.168 30.995c9.243 15.358 15.835 16.696 15.835 16.696l1.299-5.252s-12.372-7.347-20.169-23.799c-7.803-16.45-7.133-18.64-7.133-18.64z" />
    </g>
    <defs>
        <path id="g"
              d="M119.57 137.475c-.834 1.825-1.963 3.117-3.525 3.587-.916.273-1.99.266-3.241-.093-1.975-.557.112.051 4.375-9.339a49.359 49.359 0 003.929 1.777c-.321.883-.682 2.18-1.538 4.068zm-22.987-25.669c-2.382-4.062-4.629-9.518-5.934-13.686a5.674 5.674 0 01-.053-.186 74.617 74.617 0 01-.71-2.389c-.073-.266-.133-.523-.204-.785a69.07 69.07 0 01-1.012-4.19c-2.372-11.271.595-20.885 2.923-24.759a30.827 30.827 0 01-2.197-.853c-1.156 2.85-3.66 6.124-7.836 7.749-2.867 1.118.106 5.424-1.156 12.534 0 0 8.776 27.653 9.624 27.718.847.068 6.555-1.153 6.555-1.153zm26.354 22.282c-.147.327-.308.684-.47 1.092-1.211 3.053-2.334 5.561-1.643 7.22.546 1.312 5.297 4.974 7.482 4.318.584-.176.987-.658 1.078-1.575.488-4.991.275-7.75.271-9.357a37.606 37.606 0 01-6.718-1.698zm31.505-13.594a47.734 47.734 0 01-2.308 3.646c.747.559 1.759 1.443 3.492 2.533 1.701 1.066 3.354 1.525 4.915 1.058.919-.276 1.813-.873 2.662-1.86 1.338-1.549-.064.099-8.761-5.377zm-3.46 5.217c-1.607 2.091-3.205 3.77-4.697 5.11.88 1.345 2.224 3.767 5.361 7.651.581.719 1.181.9 1.77.725 2.186-.655 4.139-6.327 3.873-7.721-.336-1.766-2.65-3.245-5.34-5.123-.349-.247-.673-.454-.967-.642zm-19.207 10.327c-.066 2.899-.514 7.532.244 10.526.404 1.604-.383-.016 1.613-.614.123-.036.826-1.035.91-1.098-.104-.196-1.144-1.325-1.209-1.548m21.61-30.221c.008-.03.023-.061.032-.086.054-.142.108-.287.163-.427a44.851 44.851 0 002.186-7.873l.001-.005c.016-.086.03-.163.042-.248.189-1.056.334-2.109.447-3.169.031-.255.064-.508.087-.763l.001-.009a49.15 49.15 0 00.199-4.268.066.066 0 00.004-.025c-.002-.316-.004-.633-.008-.947a55.176 55.176 0 00-.048-1.868l-.003-.014c-.008-.212-.024-.432-.037-.646a53.875 53.875 0 00-.16-2.167v-.003c-.014-.146-.033-.289-.046-.431a63.546 63.546 0 00-.288-2.37v-.007c-.025-.161-.053-.321-.078-.482a66.061 66.061 0 00-1.217-6.084c-.043-.164-.08-.325-.124-.487-.003-.014-.003-.026-.007-.037-.1-.399-.2-.796-.305-1.193l-.002-.006c-.049-.181-.104-.357-.158-.535a74.06 74.06 0 00-1.521-4.817l-.002-.009a89.393 89.393 0 00-.969-2.615c-4.348-11.123-12.104-16.217-15.305-17.925-3.275 3.559-6.932 5.968-9.443 7.371-3.967 2.22-8.096 3.608-10.203 4.239l-.547.164-.548.165c-2.106.63-6.321 1.742-10.853 2.069-2.869.208-7.25.206-11.945-.967-1.731 3.188-5.411 11.71-2.925 23.388a80.067 80.067 0 001.778 6.836c.127.429.256.858.396 1.286v.006c.424 1.294.89 2.577 1.387 3.849.004.007.006.015.009.026.184.471.371.947.567 1.414v.006c.174.41.356.816.535 1.223v.006c.161.358.321.715.484 1.067.239.51.48 1.013.73 1.517l.003.005c.128.263.265.52.4.779.302.587.61 1.168.933 1.745.234.409.468.82.709 1.226l.004.011c.244.407.49.813.747 1.216.245.391.499.777.754 1.166l.01.007a49.978 49.978 0 001.553 2.199c.027.033.051.07.076.102.294.393.588.785.893 1.168.004.004.004.007.009.007.159.201.325.399.491.596a49.076 49.076 0 001.983 2.257c.099.103.194.207.292.312l.005.006c.49.513.989 1.017 1.504 1.505.178.167.354.334.532.496.007.01.014.014.024.025.373.344.739.696 1.128 1.025l.002.004c.107.092.214.179.327.265a43.834 43.834 0 006.959 4.845c10.4 5.813 17.879 5.423 20.699 4.967l.63-.118.586-.247c2.605-1.166 9.069-4.956 14.563-15.529.719-1.383 1.324-2.783 1.878-4.189zm-48.892-48.041c4.381-.318 8.514-1.431 10.307-1.97.221-.065.398-.121.547-.167l.547-.159c1.792-.537 5.855-1.88 9.692-4.021 5.114-2.859 20.228-12.914 14.274-32.793-5.957-19.879-21.432-22.097-26.911-20.454-5.3 1.589-7.817 8.335-11.835 9.923-4.232.883-10.041-3.368-15.345-1.78C81.852 15.261 70.145 25.623 76.1 45.5c5.953 19.879 24.108 19.966 29.951 19.542z" />
    </defs>
    <clipPath id="h">
        <use xlink:href="#g" overflow="visible" />
    </clipPath>
    <g clip-path="url(#h)">
        <path fill="#7E553B"
              d="M83.319 70.708s.609 2.03 2.057 2.813c1.45.779 4.464-.233 4.464-.233l2.963-8.182-5.953-1.422-3.531 7.024z" />
    </g>
    <defs>
        <path id="i"
              d="M119.57 137.475c-.834 1.825-1.963 3.117-3.525 3.587-.916.273-1.99.266-3.241-.093-1.975-.557.112.051 4.375-9.339a49.359 49.359 0 003.929 1.777c-.321.883-.682 2.18-1.538 4.068zm-22.987-25.669c-2.382-4.062-4.629-9.518-5.934-13.686a5.674 5.674 0 01-.053-.186 74.617 74.617 0 01-.71-2.389c-.073-.266-.133-.523-.204-.785a69.07 69.07 0 01-1.012-4.19c-2.372-11.271.595-20.885 2.923-24.759a30.827 30.827 0 01-2.197-.853c-1.156 2.85-3.66 6.124-7.836 7.749-2.867 1.118.106 5.424-1.156 12.534 0 0 8.776 27.653 9.624 27.718.847.068 6.555-1.153 6.555-1.153zm26.354 22.282c-.147.327-.308.684-.47 1.092-1.211 3.053-2.334 5.561-1.643 7.22.546 1.312 5.297 4.974 7.482 4.318.584-.176.987-.658 1.078-1.575.488-4.991.275-7.75.271-9.357a37.606 37.606 0 01-6.718-1.698zm31.505-13.594a47.734 47.734 0 01-2.308 3.646c.747.559 1.759 1.443 3.492 2.533 1.701 1.066 3.354 1.525 4.915 1.058.919-.276 1.813-.873 2.662-1.86 1.338-1.549-.064.099-8.761-5.377zm-3.46 5.217c-1.607 2.091-3.205 3.77-4.697 5.11.88 1.345 2.224 3.767 5.361 7.651.581.719 1.181.9 1.77.725 2.186-.655 4.139-6.327 3.873-7.721-.336-1.766-2.65-3.245-5.34-5.123-.349-.247-.673-.454-.967-.642zm-19.207 10.327c-.066 2.899-.514 7.532.244 10.526.404 1.604-.383-.016 1.613-.614.123-.036.826-1.035.91-1.098-.104-.196-1.144-1.325-1.209-1.548m21.61-30.221c.008-.03.023-.061.032-.086.054-.142.108-.287.163-.427a44.851 44.851 0 002.186-7.873l.001-.005c.016-.086.03-.163.042-.248.189-1.056.334-2.109.447-3.169.031-.255.064-.508.087-.763l.001-.009a49.15 49.15 0 00.199-4.268.066.066 0 00.004-.025c-.002-.316-.004-.633-.008-.947a55.176 55.176 0 00-.048-1.868l-.003-.014c-.008-.212-.024-.432-.037-.646a53.875 53.875 0 00-.16-2.167v-.003c-.014-.146-.033-.289-.046-.431a63.546 63.546 0 00-.288-2.37v-.007c-.025-.161-.053-.321-.078-.482a66.061 66.061 0 00-1.217-6.084c-.043-.164-.08-.325-.124-.487-.003-.014-.003-.026-.007-.037-.1-.399-.2-.796-.305-1.193l-.002-.006c-.049-.181-.104-.357-.158-.535a74.06 74.06 0 00-1.521-4.817l-.002-.009a89.393 89.393 0 00-.969-2.615c-4.348-11.123-12.104-16.217-15.305-17.925-3.275 3.559-6.932 5.968-9.443 7.371-3.967 2.22-8.096 3.608-10.203 4.239l-.547.164-.548.165c-2.106.63-6.321 1.742-10.853 2.069-2.869.208-7.25.206-11.945-.967-1.731 3.188-5.411 11.71-2.925 23.388a80.067 80.067 0 001.778 6.836c.127.429.256.858.396 1.286v.006c.424 1.294.89 2.577 1.387 3.849.004.007.006.015.009.026.184.471.371.947.567 1.414v.006c.174.41.356.816.535 1.223v.006c.161.358.321.715.484 1.067.239.51.48 1.013.73 1.517l.003.005c.128.263.265.52.4.779.302.587.61 1.168.933 1.745.234.409.468.82.709 1.226l.004.011c.244.407.49.813.747 1.216.245.391.499.777.754 1.166l.01.007a49.978 49.978 0 001.553 2.199c.027.033.051.07.076.102.294.393.588.785.893 1.168.004.004.004.007.009.007.159.201.325.399.491.596a49.076 49.076 0 001.983 2.257c.099.103.194.207.292.312l.005.006c.49.513.989 1.017 1.504 1.505.178.167.354.334.532.496.007.01.014.014.024.025.373.344.739.696 1.128 1.025l.002.004c.107.092.214.179.327.265a43.834 43.834 0 006.959 4.845c10.4 5.813 17.879 5.423 20.699 4.967l.63-.118.586-.247c2.605-1.166 9.069-4.956 14.563-15.529.719-1.383 1.324-2.783 1.878-4.189zm-48.892-48.041c4.381-.318 8.514-1.431 10.307-1.97.221-.065.398-.121.547-.167l.547-.159c1.792-.537 5.855-1.88 9.692-4.021 5.114-2.859 20.228-12.914 14.274-32.793-5.957-19.879-21.432-22.097-26.911-20.454-5.3 1.589-7.817 8.335-11.835 9.923-4.232.883-10.041-3.368-15.345-1.78C81.852 15.261 70.145 25.623 76.1 45.5c5.953 19.879 24.108 19.966 29.951 19.542z" />
    </defs>
    <clipPath id="j">
        <use xlink:href="#i" overflow="visible" />
    </clipPath>
    <path clip-path="url(#j)" fill="#7E553B"
          d="M122.484 62.88c2.629-1.67 5.408-1.795 5.408-1.795s1.287-1.979 7.618-3.212c6.335-1.235 17.385-6.379 17.385-6.379l-10.929-1.471-4.574 2.314-7.095 6.211-13.129 5.794-12.804 2.087-10.676-1.332-1.978 3.577-2.003 6.015s2.928-3.641 8.896-6.091c5.97-2.453 7.819-1.08 7.819-1.08s2.325-1.627 5.439-1.678l10.623-2.96z" />
    <defs>
        <path id="k"
              d="M106 65.058c4.385-.32 8.514-1.433 10.307-1.97.217-.066.4-.123.543-.168.148-.041.332-.094.549-.158 1.793-.538 5.859-1.882 9.693-4.023 5.111-2.857 20.226-12.911 14.271-32.789-5.956-19.88-21.431-22.096-26.906-20.456-5.302 1.587-7.819 8.335-11.838 9.923-4.23.882-10.041-3.369-15.341-1.781-5.478 1.64-17.186 12.004-11.232 31.88 5.957 19.879 24.11 19.965 29.954 19.542z" />
    </defs>
    <clipPath id="l">
        <use xlink:href="#k" overflow="visible" />
    </clipPath>
    <g clip-path="url(#l)">
        <path fill="#7E553B"
              d="M104.099 50.042s8.836 15.588 13.3 14.25c4.46-1.335 3.027-19.141 3.027-19.141l-16.327 4.891z" />
    </g>
    <path fill="#482A2B"
          d="M109.814 39.435c-4.501 1.349-7.067 6.107-5.716 10.607.994 3.322 7.34 11.021 11.797 9.685 4.546-1.36 5.554-11.155 4.53-14.575-1.348-4.5-6.109-7.067-10.611-5.717zm5.032 16.794c-1.131.339-6.342-4.209-7.248-7.234a4.873 4.873 0 013.264-6.06 4.875 4.875 0 016.065 3.265c.917 3.057-.687 9.611-2.081 10.029z" />
    <path fill="#DD7A26"
          d="M110.652 42.235a5.599 5.599 0 00-3.756 6.971c.887 2.961 6.297 8.281 8.161 7.723 2.098-.629 3.456-7.976 2.568-10.937a5.6 5.6 0 00-6.973-3.757z" />
    <defs>
        <path id="m"
              d="M106.896 49.206c.887 2.961 6.297 8.281 8.161 7.723 2.098-.629 3.456-7.976 2.568-10.937a5.6 5.6 0 00-10.729 3.214z" />
    </defs>
    <clipPath id="n">
        <use xlink:href="#m" overflow="visible" />
    </clipPath>
    <path clip-path="url(#n)" fill="#B05E27"
          d="M106.896 49.206s5.787 6.274 7.71 5.697c1.927-.576 2.891-9.444 2.891-9.444s2.603 11.229-1.946 12.593c-4.551 1.363-8.655-8.846-8.655-8.846z" />
    <path fill="#D0AB7B"
          d="M133.363 117.975c5.297-1.647 18.025-18.651 13.011-35.383-4.929-16.455-23.734-12.087-24.517-11.895l-4.908 1.472c-.76.269-18.874 6.96-13.944 23.415 5.012 16.733 24.993 23.938 30.322 22.402l.036-.011z" />
    <path fill="#EEB380"
          d="M115.582 49.021c.223-1.47.615-3.565.723-3.987.107-.424-2.133-1.989-2.103-1.555.653 9.2.791 9.519 1.38 5.542z" />
    <path fill="#FFF"
          d="M90.384 24.795c6.529-1.955 13.409 1.749 15.365 8.279 1.955 6.526-1.754 13.404-8.283 15.361-6.526 1.955-13.404-1.753-15.359-8.28-1.956-6.529 1.753-13.404 8.277-15.36z" />
    <path fill="#482A2B"
          d="M100.527 48.805c-.83.448-1.713.814-2.625 1.087a13.77 13.77 0 01-10.553-1.076 13.772 13.772 0 01-6.7-8.225c-1.875-6.263.931-13.061 6.675-16.165a14.01 14.01 0 012.623-1.087c7.323-2.193 15.064 1.978 17.258 9.299 1.876 6.262-.932 13.062-6.678 16.167zM88.771 27.103c-4.481 2.422-6.672 7.728-5.208 12.616a10.749 10.749 0 005.23 6.419 10.741 10.741 0 008.236.84c.714-.214 1.403-.5 2.05-.851 4.484-2.423 6.676-7.729 5.211-12.617-1.711-5.713-7.756-8.969-13.471-7.258-.711.214-1.4.5-2.048.851z" />
    <path fill="#FFF"
          d="M117.996 16.526c6.527-1.956 13.404 1.749 15.361 8.278 1.954 6.526-1.753 13.405-8.279 15.358-6.529 1.955-13.406-1.751-15.361-8.277-1.953-6.53 1.751-13.405 8.279-15.359z" />
    <path fill="#482A2B"
          d="M128.139 40.533a14.05 14.05 0 01-2.626 1.087c-7.319 2.193-15.059-1.979-17.252-9.299-1.876-6.264.932-13.061 6.674-16.164a13.959 13.959 0 012.626-1.088c7.318-2.192 15.059 1.979 17.253 9.298 1.875 6.262-.932 13.061-6.675 16.166zm-11.758-21.7c-4.481 2.422-6.669 7.728-5.206 12.616 1.711 5.713 7.753 8.968 13.468 7.258a10.923 10.923 0 002.05-.85c4.482-2.422 6.671-7.729 5.208-12.618-1.713-5.712-7.756-8.968-13.469-7.257-.713.214-1.404.5-2.051.851z" />
    <path fill="#332412" d="M89.227 36.108a3.869 3.869 0 112.221 7.412 3.869 3.869 0 01-2.221-7.412z" />
    <circle fill="#332412" cx="117.867" cy="31.566" r="3.868" />
    <path fill="#A68362"
          d="M140.144 143.625a611.79 611.79 0 00-2.668-8.834c-1.27.173-3.174.297-5.61.099-.057 2.996-.504 7.772.288 10.854.421 1.66 7.741 5.52 9.798 4.896.129-.04.234-.095.316-.157a3.782 3.782 0 01-.262-.648c-.444-1.475-1.333-4.434-1.862-6.21zm.256-9.715a634.225 634.225 0 002.684 8.822c.547 1.771 1.451 4.726 1.898 6.201.068.227.114.455.14.683.107.005.224-.007.349-.045 2.061-.624 6.004-7.895 5.438-9.51-1.054-2.999-4.067-6.715-5.781-9.175-1.912 1.509-3.565 2.461-4.728 3.024z" />
    <path fill="#B05E27"
          d="M121.586 147.553c-.454.137-1.632.369-2.752-.395-1.194-.82-1.898-2.483-2.098-4.943-.488-6.132 3.557-9.47 3.729-9.606a.827.827 0 01.293-.157.884.884 0 01.484-.004l5.173 1.459a.862.862 0 01.61.649.856.856 0 01-.283.84c-.928.797-3.26 3.306-2.867 5.352.639 3.325-.959 6.134-1.78 6.596a2.424 2.424 0 01-.509.209z" />
    <path fill="#482A2B"
          d="M121.008 133.283l5.174 1.455s-3.731 3.175-3.158 6.173c.577 2.996-.889 5.418-1.357 5.682a1.55 1.55 0 01-.328.133c-.947.284-3.342.372-3.74-4.58-.46-5.746 3.409-8.863 3.409-8.863m-.497-1.658a1.647 1.647 0 00-.587.311c-.188.148-4.574 3.769-4.049 10.349.219 2.735 1.051 4.611 2.473 5.585 1.006.689 2.275.876 3.486.513a3.37 3.37 0 00.686-.285c1.34-.762 2.864-4.066 2.205-7.512-.293-1.519 1.609-3.707 2.578-4.528a1.727 1.727 0 00.566-1.688 1.727 1.727 0 00-1.219-1.296l-5.174-1.455a1.72 1.72 0 00-.965.006z" />
    <path fill="#B05E27"
          d="M127.679 147.735c-1.32.395-3.309.142-5.277-3.297-3.569-6.233 1.235-11.055 1.284-11.104a.872.872 0 01.846-.215l4.854 1.405a.864.864 0 01.405 1.407c-.023.024-2.49 2.866-1.316 4.581 1.769 2.577 1.562 5.707.566 6.479-.23.178-.695.545-1.362.744z" />
    <path fill="#482A2B"
          d="M124.289 133.95l4.857 1.404s-2.982 3.314-1.386 5.647c1.599 2.331 1.245 4.924.749 5.306-.145.11-.527.433-1.078.598-1.008.303-2.578.084-4.28-2.896-3.273-5.725 1.138-10.059 1.138-10.059m-.494-1.656a1.725 1.725 0 00-.715.423c-1.859 1.821-4.547 6.705-1.431 12.15 2.372 4.143 4.952 4.092 6.278 3.693a4.763 4.763 0 001.613-.866l.029-.019c1.438-1.114 1.589-4.774-.381-7.651-.611-.892.602-2.791 1.247-3.519a1.735 1.735 0 00.371-1.632 1.736 1.736 0 00-1.18-1.18l-4.854-1.404a1.772 1.772 0 00-.977.005z" />
    <path fill="#B05E27"
          d="M133.342 147.207c-1.498.449-3.169-.165-4.963-1.827-4.127-3.825-1.522-10.621-1.406-10.908a.85.85 0 01.558-.511.887.887 0 01.389-.027l4.187.705a.85.85 0 01.627.473.852.852 0 01-.008.783c-.014.025-1.396 2.74.171 3.87 2.38 1.716 3.312 4.439 2.556 5.729-.293.491-.953 1.367-2.111 1.713z" />
    <path fill="#482A2B"
          d="M127.775 134.79l4.185.703s-1.776 3.382.435 4.974c2.205 1.595 2.748 3.848 2.313 4.586-.137.228-.646 1.038-1.611 1.329-.934.279-2.288.071-4.131-1.637-3.742-3.467-1.191-9.955-1.191-9.955m-.495-1.661a1.722 1.722 0 00-1.112 1.024c-.123.31-2.932 7.639 1.625 11.856 2.034 1.888 3.986 2.567 5.799 2.025 1.439-.431 2.252-1.506 2.607-2.105.964-1.646.073-4.796-2.797-6.865-.932-.672.081-2.756.092-2.775.251-.491.254-1.075.008-1.568s-.71-.842-1.253-.935l-4.187-.705a1.812 1.812 0 00-.782.048z" />
    <path fill="#B05E27"
          d="M159.434 136.216c.452-.137 1.563-.589 2.074-1.843.551-1.342.227-3.118-.963-5.282-2.963-5.391-8.176-5.955-8.396-5.974a.835.835 0 00-.329.027.892.892 0 00-.407.265l-3.521 4.063a.859.859 0 00-.152.876c.113.298.383.51.701.547 1.211.155 4.539.971 5.337 2.894 1.294 3.128 4.173 4.596 5.112 4.532.156-.011.346-.047.539-.105h.005z" />
    <path fill="#482A2B"
          d="M152.068 123.977s4.945.477 7.719 5.529c2.393 4.355.342 5.599-.604 5.881a1.505 1.505 0 01-.349.069c-.533.037-3.091-1.178-4.256-3.996-1.172-2.82-6.034-3.422-6.034-3.422l3.524-4.061m-.496-1.657a1.721 1.721 0 00-.812.524l-3.521 4.062a1.73 1.73 0 001.094 2.851c1.259.154 4.055.935 4.643 2.362 1.346 3.242 4.433 5.167 5.972 5.065.223-.016.473-.063.73-.14 1.21-.362 2.168-1.218 2.632-2.344.652-1.596.313-3.62-1.01-6.025-3.178-5.786-8.829-6.397-9.069-6.421a1.713 1.713 0 00-.659.066z" />
    <path fill="#B05E27"
          d="M154.441 139.717c1.317-.396 2.84-1.7 2.597-5.657-.448-7.166-7.114-8.553-7.181-8.566a.872.872 0 00-.822.286l-3.285 3.844a.861.861 0 00.437 1.397c.035.008 3.656 1.025 3.614 3.104-.055 3.125 1.84 5.623 3.097 5.721.285.025.873.073 1.54-.127h.003z" />
    <path fill="#482A2B"
          d="M149.691 126.34s6.073 1.192 6.482 7.775c.215 3.426-.975 4.471-1.981 4.771-.552.166-1.048.106-1.231.094-.625-.046-2.344-2.018-2.291-4.844.049-2.826-4.262-3.953-4.262-3.953l3.283-3.843m-.496-1.655a1.718 1.718 0 00-.816.534l-3.285 3.842a1.72 1.72 0 00-.336 1.635 1.739 1.739 0 001.205 1.16c.943.252 2.996 1.17 2.978 2.252-.063 3.486 2.077 6.461 3.89 6.599l.033.002a4.849 4.849 0 001.824-.163c1.326-.396 3.509-1.775 3.213-6.538-.392-6.261-5.324-8.863-7.878-9.361a1.714 1.714 0 00-.828.038z" />
    <path fill="#B05E27"
          d="M149.418 142.392c1.502-.449 2.557-1.881 3.141-4.258 1.344-5.463-4.566-9.707-4.82-9.884a.86.86 0 00-.746-.12.852.852 0 00-.338.19l-3.111 2.891a.862.862 0 00-.267.741.855.855 0 00.438.648c.026.017 2.672 1.521 1.984 3.327-1.043 2.742-.324 5.529 1.018 6.188.512.254 1.544.623 2.701.277z" />
    <path fill="#482A2B"
          d="M147.24 128.958s5.702 4.014 4.48 8.968c-.598 2.438-1.619 3.356-2.549 3.636-.963.289-1.841-.108-2.075-.224-.772-.378-1.56-2.553-.587-5.101.967-2.546-2.378-4.393-2.378-4.393l3.109-2.886m-.496-1.659a1.7 1.7 0 00-.678.39l-3.109 2.89a1.73 1.73 0 00-.537 1.471c.064.547.391 1.033.871 1.307.019.01 2.008 1.193 1.602 2.267-1.26 3.306-.271 6.427 1.441 7.271.625.308 1.895.758 3.333.327 1.813-.543 3.068-2.186 3.732-4.881 1.485-6.028-4.892-10.605-5.161-10.797a1.73 1.73 0 00-1.494-.245z" />
    <path fill="#7E553B"
          d="M148.811 52.058l-4.837 2.741-4.181-2.931 2.033-1.712s1.82 1.004 2.479 1.207c.422.128 1.564.492 2.592.599 1.093.112 1.914.096 1.914.096z" />
</svg>
