<svg xmlns="http://www.w3.org/2000/svg" xmlns:xlink="http://www.w3.org/1999/xlink" viewBox="0 0 246.647 469.775">
    <path fill="#EB8258"
          d="M81.05 351.531c.503 5.749-3.751 10.819-9.501 11.322l-33.144 2.899c-5.75.503-10.82-3.75-11.322-9.5L.041 47.167c-.502-5.75 3.751-10.82 9.501-11.323l33.144-2.899c5.75-.503 10.82 3.751 11.323 9.5L81.05 351.531z" />
    <path fill="#B05B9F"
          d="M150.195 429.228c0 6.627-5.373 12-12 12h-38.2c-6.627 0-12-5.373-12-12V72.988c0-6.627 5.373-12 12-12h38.2c6.627 0 12 5.373 12 12v356.24z" />
    <path fill="#5BB06C"
          d="M215.552 371.261c-.577 6.602-6.398 11.485-13 10.908l-38.055-3.329c-6.603-.578-11.486-6.398-10.909-13.001l31.049-354.884c.577-6.603 6.398-11.486 13-10.909l38.055 3.33c6.602.577 11.486 6.398 10.909 13l-31.049 354.885z" />
    <path fill="#472A2B"
          d="M240.686 275.718c-9.861-25.564-26.582-40.914-39.064-49.363 8.707-10.973 14.998-25.941 14.998-46.348 0-56.084-39.699-74.959-57.811-74.959-10.492 0-18.766 5.34-25.414 9.629-2.26 1.461-5.482 3.537-7.408 4.273-1.926-.736-5.15-2.813-7.41-4.273-6.646-4.289-14.922-9.629-25.412-9.629-18.111 0-57.814 18.875-57.814 74.959 0 20.406 6.291 35.375 14.998 46.348-12.482 8.451-29.203 23.799-39.061 49.363-12.102 31.381-.584 79.648 16.389 109.127 7.93 13.77 16.326 22.324 25.016 25.549a11.856 11.856 0 00-.797 4.791c.246 6.508 5.205 9.662 6.85 10.711 4.117 2.623 8.371 3.98 12.662 4.137 3.336 8.354 13.045 20.582 24.004 20.727 1.289 1.996 3.07 4.248 5.523 6.809 7.754 8.1 14.775 12.207 20.867 12.207 1.412 0 2.793-.242 4.125-.65 1.334.408 2.715.65 4.131.65 6.09 0 13.113-4.104 20.865-12.207 2.455-2.561 4.236-4.813 5.523-6.809 10.961-.145 20.67-12.369 24.006-20.727 4.287-.156 8.547-1.514 12.682-4.148 1.627-1.037 6.586-4.197 6.83-10.699a11.882 11.882 0 00-.781-4.754c8.727-3.195 17.154-11.764 25.111-25.586 16.976-29.483 28.49-77.747 16.392-109.128z" />
    <g fill="#A68462">
        <path d="M88.491 404.736a112.587 112.587 0 01-7.523-6.551c-15.686 17.982-19.908 15.246-15.904 17.795 2.541 1.619 4.912 2.354 7.133 2.354 3.773 0 7.125-2.113 10.189-5.611 3.154-3.61 4.812-6.251 6.105-7.987zM75.36 392.398c-23.84-25.986-30.594-58.643-30.947-86.104-.004-.15.002-.297.002-.449-.021-1.945-.02-3.875.018-5.764.014-.637.051-1.246.068-1.875.045-1.395.082-2.793.15-4.146.104-1.98.236-3.92.391-5.811 2.295-28.154 15.834-45.611 22.918-52.939a67.999 67.999 0 01-4.295-3.342c-11.402 6.275-30.783 20.434-41.404 47.982-15.682 40.662 15.186 116.6 36.742 120.031 1.514.242 2.92.361 4.221.361 6.122.001 9.937-2.706 12.136-7.944zm16.73 15.064a56.362 56.362 0 00-1.766 2.109c-4.711 5.955-8.859 10.768-8.432 14.908.34 3.27 8.432 14.539 13.717 14.539 1.412 0 2.623-.803 3.434-2.781 4.391-10.738 5.758-16.996 6.814-20.561-4.185-1.981-8.829-4.641-13.767-8.214zm78.856-9.216a111.136 111.136 0 01-7.535 6.545c1.287 1.738 2.945 4.369 6.063 7.932 3.061 3.498 6.414 5.611 10.186 5.611 2.225 0 4.596-.734 7.137-2.354 3.995-2.545-.213.178-15.851-17.734zm-11.133 9.267c-4.947 3.572-9.602 6.227-13.801 8.209 1.053 3.566 2.426 9.82 6.803 20.516.811 1.979 2.021 2.781 3.434 2.781 5.285 0 13.377-11.27 13.715-14.539.428-4.141-3.719-8.953-8.43-14.908a54.659 54.659 0 00-1.721-2.059zm69.9-127.562c-10.625-27.549-30.004-41.707-41.406-47.982a67.794 67.794 0 01-4.295 3.342c7.082 7.328 20.623 24.785 22.924 52.939.154 1.891.283 3.83.387 5.811.074 1.408.115 2.867.158 4.318.014.568.049 1.119.059 1.697.041 1.973.047 3.984.021 6.02 0 .063.002.127 0 .189-.354 27.449-7.1 60.094-30.916 86.076l-.033.037c2.197 5.238 6.014 7.945 12.139 7.945 1.299 0 2.705-.119 4.219-.361 21.556-3.432 52.423-79.369 36.743-120.031zM122.485 441.779c.037-6.902.076-14.512.018-20.703-2.84-.453-7.01-1.426-12.109-3.438-2.072 6.393-6.143 16.361-6.453 23.5-.166 3.83 13.039 16.879 17.861 16.879.299 0 .557-.049.783-.129a8.495 8.495 0 01-.143-1.564c0-3.453.019-10.387.043-14.545zm6.869-20.69c-.059 6.189-.018 13.793.02 20.689.023 4.158.043 11.092.043 14.545 0 .539-.051 1.063-.143 1.564.229.08.484.129.783.129 4.826 0 18.027-13.049 17.861-16.879-.311-7.129-4.367-17.072-6.445-23.463-5.084 1.992-9.254 2.96-12.119 3.415z" />
        <path d="M176.981 382.146c.039-.059.086-.115.129-.168.215-.277.428-.553.645-.826a103.377 103.377 0 0010.076-16.02c.09-.174.17-.346.258-.518a111.12 111.12 0 003.1-6.729c.234-.543.473-1.084.693-1.631l.01-.025a116.737 116.737 0 003.279-9.318.645.645 0 01.02-.057c.211-.705.412-1.408.615-2.109.396-1.385.781-2.773 1.129-4.17.004-.008.006-.02.008-.029.121-.482.23-.975.346-1.459.387-1.635.758-3.27 1.084-4.914v-.006c.066-.328.117-.656.182-.984.344-1.807.666-3.617.939-5.438l.002-.021c.055-.373.1-.746.148-1.121a154.174 154.174 0 001.342-14.289c.016-.391.039-.777.057-1.17 0-.027.004-.057.004-.082.039-.949.088-1.898.111-2.844v-.02c.01-.43.006-.857.01-1.289.063-3.904.016-7.811-.17-11.684v-.02a195.436 195.436 0 00-.416-6.439c-2.252-27.545-16.059-43.984-22.02-49.891-9.621 5.707-19.326 8.625-25.822 10.068-10.26 2.281-20.34 2.621-25.432 2.621-.518 0-.959-.004-1.32-.01-.361.006-.805.01-1.32.01-5.094 0-15.172-.34-25.432-2.621-6.496-1.443-16.201-4.361-25.824-10.068-5.963 5.908-19.77 22.35-22.018 49.891a186.74 186.74 0 00-.6 16.33c0 1.039 0 2.074.023 3.115v.014c.074 3.146.258 6.297.514 9.445.002.021.002.041.006.064.094 1.17.191 2.346.316 3.514l.002.014c.105 1.025.238 2.045.367 3.066v.012c.113.895.236 1.793.361 2.689.188 1.283.391 2.564.611 3.844.004.004.004.01.004.014.115.664.24 1.326.367 1.99.281 1.5.58 2.996.912 4.486a135.037 135.037 0 00.758 3.215c.27 1.064.549 2.127.846 3.188.285 1.031.59 2.061.904 3.088.002.008.008.02.008.031.607 1.98 1.273 3.947 1.986 5.898.031.088.063.182.098.273v.002c.391 1.066.783 2.125 1.205 3.18.006.008.006.014.012.021.221.551.463 1.098.697 1.643.896 2.133 1.863 4.24 2.896 6.324.15.291.293.588.441.883.004.004.008.012.014.018.74 1.461 1.514 2.908 2.33 4.342.287.482.563.969.85 1.455.012.02.023.039.037.059.6 1.014 1.18 2.033 1.816 3.029l.006.008c.174.271.363.535.547.805 3.502 5.377 7.525 10.527 12.205 15.357 19.193 19.789 36.035 23.895 42.582 24.75l1.471.162 1.469-.162c6.549-.855 23.391-4.961 42.58-24.75 2.51-2.585 4.78-5.288 6.946-8.036z" />
        <path d="M100.512 243.207c9.924 2.205 19.824 2.48 24.154 2.48.527 0 .971-.004 1.32-.01.35.006.795.01 1.32.01 4.328 0 14.23-.275 24.154-2.48 13.227-2.941 53.402-15.186 53.402-63.199s-32.826-63.199-46.055-63.199c-12.805 0-22.859 13.279-32.822 14.125-9.965-.846-20.018-14.125-32.822-14.125-13.229 0-46.057 15.186-46.057 63.199s40.18 60.257 53.406 63.199z" />
    </g>
    <path fill="#CFAB7A"
          d="M152.711 139.957c-10.426 0-18.613 8.51-26.725 9.051-8.113-.541-16.293-9.051-26.727-9.051-10.764 0-37.496 9.73-37.496 40.494 0 30.766 32.715 38.615 43.486 40.498 9.053 1.584 18.09 1.613 20.736 1.584 2.652.029 11.684 0 20.742-1.584 10.766-1.883 43.48-9.732 43.48-40.498.002-30.764-26.724-40.494-37.496-40.494z" />
    <defs>
        <path id="a"
              d="M100.512 243.207c9.924 2.205 19.824 2.48 24.154 2.48.527 0 .971-.004 1.32-.01.35.006.795.01 1.32.01 4.328 0 14.23-.275 24.154-2.48 13.227-2.941 53.402-15.186 53.402-63.199s-32.826-63.199-46.055-63.199c-12.805 0-22.859 13.279-32.822 14.125-9.965-.846-20.018-14.125-32.822-14.125-13.229 0-46.057 15.186-46.057 63.199s40.18 60.257 53.406 63.199z" />
    </defs>
    <clipPath id="b">
        <use xlink:href="#a" overflow="visible" />
    </clipPath>
    <g clip-path="url(#b)">
        <path fill="#7E543A"
              d="M106.268 208.667s9.238 40.414 20.018 40.414c10.775 0 19.42-40.414 19.42-40.414h-39.438z" />
    </g>
    <path fill="#472A2B"
          d="M125.987 188.951c-10.873 0-19.719 8.846-19.719 19.717 0 8.025 8.957 29.297 19.719 29.297 10.975 0 19.719-21.039 19.719-29.297 0-10.872-8.846-19.717-19.719-19.717zm0 40.562c-2.736 0-11.268-13.535-11.268-20.846 0-6.213 5.055-11.268 11.268-11.268 6.211 0 11.268 5.055 11.268 11.268-.001 7.387-7.901 20.846-11.268 20.846z" />
    <path fill="#DF7A1C"
          d="M125.987 195.71c-7.156 0-12.957 5.803-12.957 12.957 0 7.156 8.449 22.537 12.957 22.537 5.068 0 12.959-15.381 12.959-22.537 0-7.154-5.805-12.957-12.959-12.957z" />
    <defs>
        <path id="c"
              d="M113.03 208.667c0 7.156 8.449 22.537 12.957 22.537 5.068 0 12.959-15.381 12.959-22.537 0-7.154-5.805-12.957-12.959-12.957-7.156 0-12.957 5.803-12.957 12.957z" />
    </defs>
    <clipPath id="d">
        <use xlink:href="#c" overflow="visible" />
    </clipPath>
    <path clip-path="url(#d)" fill="#B15C12"
          d="M113.03 208.667s8.656 17.746 13.307 17.746c4.646 0 12.678-19.014 12.678-19.014s-1.691 26.621-12.678 26.621c-10.989.001-13.307-25.353-13.307-25.353z" />
    <path fill="#CFAB7A"
          d="M126.034 378.667c12.824-.131 52.33-29.375 52.33-69.785 0-39.746-44.586-42.551-46.451-42.643h-11.852c-1.865.092-46.453 2.896-46.453 42.643 0 40.41 39.506 69.654 52.332 69.785h.094z" />
    <defs>
        <path id="e"
              d="M82.385 412.722c-3.064 3.498-6.416 5.611-10.189 5.611-2.221 0-4.592-.734-7.133-2.354-4.004-2.549.219.188 15.904-17.795a112.838 112.838 0 007.523 6.551c-1.292 1.737-2.95 4.378-6.105 7.987zm-7.025-20.324c-23.84-25.986-30.594-58.643-30.947-86.104-.004-.15.002-.297.002-.449-.021-1.945-.02-3.875.018-5.764.014-.637.051-1.246.068-1.875.045-1.395.082-2.793.15-4.146.104-1.98.236-3.92.391-5.811 2.295-28.154 15.834-45.611 22.918-52.939a67.999 67.999 0 01-4.295-3.342c-11.402 6.275-30.783 20.434-41.404 47.982-15.682 40.662 15.186 116.6 36.742 120.031 1.514.242 2.92.361 4.221.361 6.122.001 9.937-2.706 12.136-7.944zm16.73 15.064a56.362 56.362 0 00-1.766 2.109c-4.711 5.955-8.859 10.768-8.432 14.908.34 3.27 8.432 14.539 13.717 14.539 1.412 0 2.623-.803 3.434-2.781 4.391-10.738 5.758-16.996 6.814-20.561-4.185-1.981-8.829-4.641-13.767-8.214zm78.856-9.216a111.136 111.136 0 01-7.535 6.545c1.287 1.738 2.945 4.369 6.063 7.932 3.061 3.498 6.414 5.611 10.186 5.611 2.225 0 4.596-.734 7.137-2.354 3.995-2.545-.213.178-15.851-17.734zm-11.133 9.267c-4.947 3.572-9.602 6.227-13.801 8.209 1.053 3.566 2.426 9.82 6.803 20.516.811 1.979 2.021 2.781 3.434 2.781 5.285 0 13.377-11.27 13.715-14.539.428-4.141-3.719-8.953-8.43-14.908a54.659 54.659 0 00-1.721-2.059zm69.9-127.562c-10.625-27.549-30.004-41.707-41.406-47.982a67.794 67.794 0 01-4.295 3.342c7.082 7.328 20.623 24.785 22.924 52.939.154 1.891.283 3.83.387 5.811.074 1.408.115 2.867.158 4.318.014.568.049 1.119.059 1.697.041 1.973.047 3.984.021 6.02 0 .063.002.127 0 .189-.354 27.449-7.1 60.094-30.916 86.076l-.033.037c2.197 5.238 6.014 7.945 12.139 7.945 1.299 0 2.705-.119 4.219-.361 21.556-3.432 52.423-79.369 36.743-120.031zM122.485 441.779c.037-6.902.076-14.512.018-20.703-2.84-.453-7.01-1.426-12.109-3.438-2.072 6.393-6.143 16.361-6.453 23.5-.166 3.83 13.039 16.879 17.861 16.879.299 0 .557-.049.783-.129a8.495 8.495 0 01-.143-1.564c0-3.453.019-10.387.043-14.545zm6.869-20.69c-.059 6.189-.018 13.793.02 20.689.023 4.158.043 11.092.043 14.545 0 .539-.051 1.063-.143 1.564.229.08.484.129.783.129 4.826 0 18.027-13.049 17.861-16.879-.311-7.129-4.367-17.072-6.445-23.463-5.084 1.992-9.254 2.96-12.119 3.415zm47.627-38.943c.039-.059.086-.115.129-.168.215-.277.428-.553.645-.826a103.377 103.377 0 0010.076-16.02c.09-.174.17-.346.258-.518a111.12 111.12 0 003.1-6.729c.234-.543.473-1.084.693-1.631l.01-.025a116.737 116.737 0 003.279-9.318.645.645 0 01.02-.057c.211-.705.412-1.408.615-2.109.396-1.385.781-2.773 1.129-4.17.004-.008.006-.02.008-.029.121-.482.23-.975.346-1.459.387-1.635.758-3.27 1.084-4.914v-.006c.066-.328.117-.656.182-.984.344-1.807.666-3.617.939-5.438l.002-.021c.055-.373.1-.746.148-1.121a154.174 154.174 0 001.342-14.289c.016-.391.039-.777.057-1.17 0-.027.004-.057.004-.082.039-.949.088-1.898.111-2.844v-.02c.01-.43.006-.857.01-1.289.063-3.904.016-7.811-.17-11.684v-.02a195.436 195.436 0 00-.416-6.439c-2.252-27.545-16.059-43.984-22.02-49.891-9.621 5.707-19.326 8.625-25.822 10.068-10.26 2.281-20.34 2.621-25.432 2.621-.518 0-.959-.004-1.32-.01-.361.006-.805.01-1.32.01-5.094 0-15.172-.34-25.432-2.621-6.496-1.443-16.201-4.361-25.824-10.068-5.963 5.908-19.77 22.35-22.018 49.891a186.74 186.74 0 00-.6 16.33c0 1.039 0 2.074.023 3.115v.014c.074 3.146.258 6.297.514 9.445.002.021.002.041.006.064.094 1.17.191 2.346.316 3.514l.002.014c.105 1.025.238 2.045.367 3.066v.012c.113.895.236 1.793.361 2.689.188 1.283.391 2.564.611 3.844.004.004.004.01.004.014.115.664.24 1.326.367 1.99.281 1.5.58 2.996.912 4.486a135.037 135.037 0 00.758 3.215c.27 1.064.549 2.127.846 3.188.285 1.031.59 2.061.904 3.088.002.008.008.02.008.031.607 1.98 1.273 3.947 1.986 5.898.031.088.063.182.098.273v.002c.391 1.066.783 2.125 1.205 3.18.006.008.006.014.012.021.221.551.463 1.098.697 1.643.896 2.133 1.863 4.24 2.896 6.324.15.291.293.588.441.883.004.004.008.012.014.018.74 1.461 1.514 2.908 2.33 4.342.287.482.563.969.85 1.455.012.02.023.039.037.059.6 1.014 1.18 2.033 1.816 3.029l.006.008c.174.271.363.535.547.805 3.502 5.377 7.525 10.527 12.205 15.357 19.193 19.789 36.035 23.895 42.582 24.75l1.471.162 1.469-.162c6.549-.855 23.391-4.961 42.58-24.75 2.51-2.585 4.78-5.288 6.946-8.036zm-76.469-138.939c9.924 2.205 19.824 2.48 24.154 2.48.527 0 .971-.004 1.32-.01.35.006.795.01 1.32.01 4.328 0 14.23-.275 24.154-2.48 13.227-2.941 53.402-15.186 53.402-63.199s-32.826-63.199-46.055-63.199c-12.805 0-22.859 13.279-32.822 14.125-9.965-.846-20.018-14.125-32.822-14.125-13.229 0-46.057 15.186-46.057 63.199s40.18 60.257 53.406 63.199z" />
    </defs>
    <clipPath id="f">
        <use xlink:href="#e" overflow="visible" />
    </clipPath>
    <g clip-path="url(#f)">
        <path fill="#7E543A"
              d="M56.786 346.855s29.816 59.006 68.219 59.006c43.902 0 70.166-58.949 70.166-58.949l.383 8.482-18.125 32.338-22.537 18.129-15.678 8.818s-7.836 2.939-13.227 2.939c-5.393 0-20.086-2.449-27.926-9.797-7.84-7.35-25.477-22.543-29.887-28.91-4.408-6.367-11.758-29.396-11.758-29.396l.37-2.66z" />
    </g>
    <path clip-path="url(#f)" fill="#7E543A"
          d="M171.733 396.306l-11.207 7.35-9.738 6.982-24.801 8.871-24.803-8.871-9.736-6.982-11.207-7.35-4.41 6.982.615.309s2.936-.494 6.855 1.957 3.434 7.348 3.434 7.348 5.631-.244 11.51 2.697c5.879 2.938 7.533 6.797 7.533 6.797l2.389.736s3.674-1.289 7.898-.369c4.227.918 6.799 4.777 6.799 4.777l2.756.143v.041l.367-.021.367.021v-.041l2.756-.143s2.572-3.859 6.797-4.777c4.227-.92 7.9.369 7.9.369l2.389-.736s1.654-3.859 7.531-6.797c5.881-2.941 11.512-2.697 11.512-2.697s-.488-4.896 3.434-7.348c3.918-2.451 6.855-1.957 6.855-1.957l.615-.309-4.41-6.982z" />
    <g clip-path="url(#f)">
        <path fill="#7E543A"
              d="M46.497 280.437s-8.328 35.275 1.961 75.449c10.287 40.178 24.002 47.525 24.002 47.525l6.371-10.779s-22.537-24.502-28.904-66.141c-6.37-41.644-3.43-46.054-3.43-46.054zm158.98 0s8.328 35.275-1.961 75.449c-10.289 40.178-24.004 47.525-24.004 47.525l-6.371-10.779s22.539-24.502 28.904-66.141c6.372-41.644 3.432-46.054 3.432-46.054z" />
    </g>
    <path clip-path="url(#f)" fill="#7E543A"
          d="M138.37 249.33c6.934-1.961 13.178-.385 13.178-.385s4.168-3.533 19.02-2.064c14.859 1.469 23.275 7.35 23.275 7.35l-8.922-12.494-6.512-5.879-19.84 9.063-32.949 4.113-29.764-3.869-22.781-10.041-6.758 6.613-8.428 12.002s8.902-6.123 23.758-7.592c14.857-1.471 18.045 2.799 18.045 2.799s6.242-2.064 13.176-.107l25.502.491z" />
    <g clip-path="url(#f)" fill="#7E543A">
        <path d="M46.62 240.753s0 4.904 2.691 7.596c2.697 2.693 10.049 2.451 10.049 2.451l12-16.168-12.248-7.105-12.492 13.226zm149.179 11.76s4.898 1.225 7.596-1.471c2.693-2.693 1.711-7.102 1.711-7.102l.494-5.635-14.455-10.045-9.309 6.127 3.676 8.818 10.287 9.308z" />
    </g>
    <path fill="#EEB480"
          d="M132.405 214.023c1.459-3.105 3.725-7.494 4.244-8.359.521-.865-3.408-5.822-3.629-4.836-4.654 20.82-4.568 21.619-.615 13.195z" />
    <path fill="#B15C12"
          d="M80.284 436.404c-1.096 0-3.855-.264-5.83-2.707-2.107-2.607-2.568-6.76-1.371-12.342 2.984-13.92 14.166-18.627 14.641-18.82a1.981 1.981 0 011.826.165l10.5 6.666a2 2 0 01-.267 3.52c-2.588 1.145-9.42 5.164-9.906 9.955-.793 7.789-6.195 12.951-8.326 13.439a6.007 6.007 0 01-1.267.124z" />
    <path fill="#472A2B"
          d="M88.479 404.386l10.5 6.666s-10.379 4.559-11.094 11.584-5.574 11.416-6.783 11.693a3.94 3.94 0 01-.818.074c-2.285 0-7.654-1.396-5.246-12.631 2.796-13.044 13.441-17.386 13.441-17.386m-.002-4a3.99 3.99 0 00-1.51.297c-.514.209-12.637 5.311-15.84 20.252-1.33 6.203-.734 10.92 1.77 14.018 1.773 2.193 4.465 3.451 7.387 3.451.621 0 1.213-.061 1.711-.174 3.477-.797 9.049-7.109 9.869-15.189.363-3.555 6.033-7.145 8.723-8.326a4 4 0 00.535-7.039l-10.5-6.666a4 4 0 00-2.145-.624z" />
    <path fill="#B15C12"
          d="M93.668 440.851c-3.189 0-7.43-1.877-9.51-10.813-3.768-16.182 10.082-23.682 10.221-23.756a2.001 2.001 0 012.016.088l9.832 6.334c.58.373.926 1.02.918 1.707a2.004 2.004 0 01-.961 1.684c-.07.043-7.416 4.701-5.953 9.277 2.201 6.891-.336 13.688-3.055 14.734-.625.246-1.895.744-3.506.744l-.002.001z" />
    <path fill="#472A2B"
          d="M95.311 408.052l9.834 6.334s-8.811 5.365-6.82 11.596c1.99 6.227-.514 11.738-1.865 12.258-.396.152-1.459.611-2.789.611-2.434 0-5.764-1.531-7.564-9.266-3.462-14.865 9.204-21.533 9.204-21.533m0-4c-.639 0-1.277.152-1.861.461-5.328 2.803-14.531 11.842-11.24 25.979 2.506 10.754 8.256 12.359 11.461 12.359 1.99 0 3.563-.617 4.152-.85l.072-.027c3.928-1.512 6.695-9.525 4.24-17.211-.762-2.383 3.184-5.781 5.102-6.967a4.01 4.01 0 001.902-3.369 3.999 3.999 0 00-1.828-3.402l-9.834-6.334a3.99 3.99 0 00-2.166-.639z" />
    <path fill="#B15C12"
          d="M106.571 443.445c-3.619 0-6.91-2.473-9.785-7.352-6.611-11.217 3.678-24.547 4.119-25.109a2.003 2.003 0 012.457-.559l8.809 4.34c.574.283.979.826 1.088 1.459a2.004 2.004 0 01-.543 1.734c-.047.049-4.916 5.143-2.188 8.693 4.133 5.383 4.387 12.035 1.854 14.387-.969.899-3.014 2.407-5.811 2.407z" />
    <path fill="#472A2B"
          d="M102.479 412.22l8.807 4.34s-6.182 6.313-2.346 11.311c3.84 4.998 3.539 10.35 2.08 11.701-.445.414-2.121 1.873-4.449 1.873-2.252 0-5.115-1.365-8.063-6.367-5.992-10.17 3.971-22.858 3.971-22.858m.002-4a3.999 3.999 0 00-3.148 1.529c-.477.605-11.566 14.979-4.27 27.359 3.26 5.531 7.131 8.336 11.508 8.336 3.48 0 5.986-1.842 7.17-2.939 3.238-3.006 3.357-10.582-1.627-17.072-1.615-2.104 2.006-6.051 2.043-6.09.883-.92 1.281-2.213 1.061-3.469s-1.02-2.34-2.164-2.902l-8.807-4.34a3.984 3.984 0 00-1.766-.412z" />
    <path fill="#B15C12"
          d="M171.692 436.404c1.094 0 3.854-.264 5.83-2.707 2.105-2.607 2.566-6.76 1.369-12.342-2.984-13.92-14.166-18.627-14.641-18.82a1.983 1.983 0 00-1.826.165l-10.5 6.666a2.001 2.001 0 00.267 3.52c2.588 1.145 9.42 5.164 9.908 9.955.791 7.789 6.195 12.951 8.326 13.439.35.08.799.125 1.264.125h.003z" />
    <path fill="#472A2B"
          d="M163.497 404.386s10.643 4.342 13.439 17.387c2.408 11.234-2.961 12.631-5.244 12.631-.369 0-.656-.037-.82-.074-1.209-.277-6.068-4.668-6.783-11.693s-11.092-11.584-11.092-11.584l10.5-6.667m0-4c-.75 0-1.494.211-2.145.623l-10.5 6.666a3.999 3.999 0 00-1.844 3.682 3.99 3.99 0 002.379 3.357c2.689 1.182 8.361 4.771 8.723 8.326.82 8.08 6.393 14.393 9.871 15.189a7.888 7.888 0 001.711.174c2.92 0 5.613-1.258 7.385-3.451 2.504-3.098 3.1-7.814 1.77-14.018-3.203-14.941-15.326-20.043-15.84-20.252a4.012 4.012 0 00-1.51-.296z" />
    <path fill="#B15C12"
          d="M158.305 440.851c3.189 0 7.43-1.877 9.51-10.813 3.77-16.182-10.08-23.682-10.221-23.756a2.001 2.001 0 00-2.016.088l-9.832 6.334a2.003 2.003 0 00-.918 1.707c.01.689.373 1.324.961 1.684.072.043 7.418 4.701 5.955 9.277-2.203 6.891.334 13.688 3.053 14.734.627.247 1.895.745 3.508.745z" />
    <path fill="#472A2B"
          d="M156.663 408.052s12.666 6.668 9.205 21.533c-1.801 7.734-5.131 9.266-7.563 9.266-1.332 0-2.395-.459-2.789-.611-1.354-.52-3.857-6.031-1.867-12.258 1.992-6.23-6.82-11.596-6.82-11.596l9.834-6.334m0-4a3.99 3.99 0 00-2.166.639l-9.834 6.334a3.999 3.999 0 00-1.828 3.402 4.015 4.015 0 001.904 3.369c1.916 1.186 5.861 4.584 5.1 6.967-2.455 7.686.313 15.699 4.24 17.211l.072.027c.592.232 2.162.85 4.154.85 3.205 0 8.955-1.605 11.459-12.359 3.291-14.137-5.912-23.176-11.238-25.979a4 4 0 00-1.863-.461z" />
    <path fill="#B15C12"
          d="M145.405 443.445c3.617 0 6.908-2.473 9.783-7.352 6.611-11.217-3.678-24.547-4.119-25.109a1.998 1.998 0 00-2.457-.559l-8.807 4.34a1.999 1.999 0 00-.545 3.193c.045.049 4.914 5.143 2.188 8.693-4.135 5.383-4.389 12.035-1.855 14.387.971.898 3.014 2.406 5.811 2.406h.001z" />
    <path fill="#472A2B"
          d="M149.497 412.22s9.963 12.688 3.969 22.857c-2.947 5.002-5.809 6.367-8.061 6.367-2.33 0-4.006-1.459-4.451-1.873-1.457-1.352-1.758-6.703 2.08-11.701s-2.346-11.311-2.346-11.311l8.809-4.339m-.002-4c-.598 0-1.201.133-1.768.412l-8.807 4.34c-1.145.563-1.943 1.646-2.164 2.902s.178 2.549 1.061 3.469c.037.039 3.66 3.986 2.045 6.09-4.984 6.49-4.867 14.066-1.629 17.072 1.184 1.098 3.689 2.939 7.17 2.939 4.377 0 8.248-2.805 11.51-8.336 7.295-12.381-3.795-26.754-4.271-27.359a3.996 3.996 0 00-3.147-1.529z" />
    <g fill="#FFF" stroke="#472A2B" stroke-width="7.038" stroke-miterlimit="10">
        <circle cx="92.645" cy="172.15" r="28.549" />
        <circle cx="159.329" cy="172.15" r="28.549" />
    </g>
    <circle fill="#342209" cx="93.597" cy="163.417" r="8.95" />
    <circle fill="#342209" cx="159.329" cy="163.417" r="8.951" />
</svg>
