<svg xmlns="http://www.w3.org/2000/svg" xmlns:xlink="http://www.w3.org/1999/xlink" viewBox="0 0 326.258 364.727">
    <g opacity=".19">
        <path fill="#472A2B"
              d="M178.874 163.27c-7.524-19.508-20.284-31.221-29.81-37.668 6.645-8.373 11.445-19.795 11.445-35.367 0-42.796-30.294-57.199-44.114-57.199-8.007 0-14.319 4.074-19.393 7.348-1.725 1.115-4.184 2.699-5.653 3.261-1.47-.562-3.931-2.146-5.654-3.261-5.072-3.273-11.387-7.348-19.392-7.348-13.82 0-44.117 14.403-44.117 57.199 0 15.572 4.801 26.994 11.444 35.367-9.524 6.449-22.284 18.16-29.806 37.668-9.235 23.946-.446 60.778 12.506 83.273 6.051 10.507 12.458 17.035 19.089 19.495a9.036 9.036 0 00-.608 3.656c.188 4.966 3.972 7.373 5.227 8.173 3.142 2.002 6.388 3.038 9.662 3.157 2.546 6.374 9.954 15.705 18.317 15.815.983 1.523 2.343 3.242 4.215 5.195 5.917 6.182 11.274 9.315 15.923 9.315 1.078 0 2.132-.185 3.147-.496 1.019.312 2.072.496 3.152.496 4.647 0 10.007-3.132 15.922-9.315 1.874-1.953 3.233-3.672 4.215-5.195 8.364-.11 15.773-9.438 18.318-15.815 3.271-.119 6.522-1.155 9.678-3.166 1.241-.791 5.025-3.202 5.212-8.164a9.037 9.037 0 00-.597-3.628c6.659-2.438 13.09-8.977 19.162-19.523 12.955-22.498 21.741-59.327 12.51-83.273z" />
        <g fill="#A68462">
            <path d="M62.737 261.721a85.758 85.758 0 01-5.741-4.999c-11.97 13.722-15.191 11.634-12.137 13.579 1.939 1.235 3.749 1.796 5.443 1.796 2.879 0 5.437-1.612 7.775-4.282 2.408-2.754 3.673-4.769 4.66-6.094zm-10.02-9.415c-18.191-19.829-23.346-44.749-23.615-65.704-.003-.114.002-.227.002-.343-.017-1.484-.016-2.956.014-4.397.01-.486.038-.951.052-1.431.034-1.064.063-2.132.114-3.165.079-1.511.181-2.99.299-4.434 1.751-21.483 12.082-34.805 17.488-40.396a51.964 51.964 0 01-3.277-2.551c-8.701 4.789-23.49 15.593-31.595 36.615-11.967 31.028 11.587 88.975 28.037 91.593a20.43 20.43 0 003.221.276c4.671 0 7.582-2.066 9.26-6.063zm12.766 11.495c-.415.475-.862 1-1.347 1.61-3.595 4.544-6.761 8.216-6.435 11.376.26 2.495 6.435 11.095 10.468 11.095 1.077 0 2.001-.613 2.619-2.123 3.351-8.194 4.395-12.969 5.2-15.688-3.192-1.514-6.736-3.544-10.505-6.27zm60.173-7.033a84.376 84.376 0 01-5.749 4.995c.981 1.326 2.247 3.334 4.626 6.052 2.335 2.67 4.895 4.282 7.772 4.282 1.697 0 3.507-.561 5.445-1.796 3.051-1.943-.16.136-12.094-13.533zm-8.495 7.072c-3.774 2.727-7.326 4.752-10.53 6.264.803 2.722 1.851 7.494 5.19 15.655.618 1.51 1.543 2.123 2.62 2.123 4.033 0 10.208-8.6 10.466-11.095.326-3.16-2.838-6.832-6.433-11.376a40.684 40.684 0 00-1.313-1.571zm53.34-97.34c-8.107-21.022-22.896-31.826-31.596-36.615a51.695 51.695 0 01-3.278 2.551c5.404 5.592 15.737 18.913 17.493 40.396.118 1.443.216 2.923.295 4.434.057 1.075.088 2.188.121 3.296.011.434.037.854.045 1.295.031 1.505.035 3.04.017 4.594v.145c-.271 20.945-5.418 45.856-23.592 65.683l-.025.028c1.677 3.997 4.589 6.063 9.263 6.063.991 0 2.064-.092 3.22-.276 16.448-2.619 40.002-60.566 28.037-91.594zM88.678 289.987c.027-5.267.058-11.073.013-15.798-2.167-.346-5.349-1.088-9.24-2.623-1.581 4.878-4.688 12.484-4.924 17.932-.127 2.923 9.949 12.881 13.629 12.881.229 0 .425-.038.598-.099a6.546 6.546 0 01-.108-1.194c-.001-2.635.013-7.926.032-11.099zm5.241-15.788c-.045 4.724-.014 10.525.015 15.788.018 3.173.033 8.464.033 11.099 0 .412-.039.812-.109 1.194.175.061.37.099.598.099 3.684 0 13.757-9.958 13.63-12.881-.237-5.439-3.332-13.027-4.918-17.903-3.881 1.518-7.063 2.258-9.249 2.604z" />
            <path d="M130.262 244.482c.03-.045.066-.088.099-.128.164-.212.326-.422.492-.63a79.046 79.046 0 007.685-12.217l.004-.008c.068-.133.13-.264.197-.395a84.808 84.808 0 002.365-5.135c.179-.414.36-.827.528-1.244l.008-.02a89.228 89.228 0 002.518-7.154c.161-.538.314-1.074.47-1.609a95.16 95.16 0 00.861-3.182c.003-.006.004-.016.006-.022.092-.368.176-.744.264-1.113.295-1.248.578-2.495.827-3.75v-.005c.051-.25.089-.501.139-.751.262-1.379.508-2.76.717-4.149l.001-.017c.042-.284.076-.569.113-.855a117.13 117.13 0 001.024-10.903c.012-.298.029-.593.043-.893l.003-.063c.03-.725.067-1.449.085-2.17v-.016c.008-.327.005-.654.008-.983.048-2.979.012-5.96-.13-8.915v-.016a150.207 150.207 0 00-.317-4.913c-1.719-21.02-12.254-33.563-16.803-38.071-7.342 4.355-14.747 6.582-19.704 7.684-7.829 1.74-15.521 2-19.406 2-.396 0-.732-.003-1.008-.008-.275.005-.614.008-1.008.008-3.887 0-11.577-.26-19.406-2-4.957-1.102-12.363-3.328-19.706-7.684-4.55 4.509-15.086 17.055-16.801 38.071-.336 4.113-.484 8.28-.458 12.461 0 .793 0 1.583.018 2.377v.011c.057 2.4.197 4.805.393 7.207l.004.05c.072.893.146 1.79.242 2.681l.001.011c.081.782.183 1.561.28 2.34v.009c.087.683.181 1.368.275 2.053.144.979.299 1.957.467 2.933.003.003.003.008.003.011.088.507.184 1.012.28 1.519.215 1.145.443 2.286.696 3.423a107.21 107.21 0 00.578 2.454 100.194 100.194 0 001.335 4.788c.002.006.007.015.007.024a89.758 89.758 0 001.516 4.501c.023.066.048.139.074.208v.002c.298.813.598 1.621.92 2.426.004.007.004.011.009.017.168.42.354.838.532 1.254a85.398 85.398 0 002.21 4.825c.115.223.224.449.337.674l.011.014a76.683 76.683 0 001.777 3.313c.22.367.43.738.648 1.109a.68.68 0 00.028.045c.458.773.9 1.552 1.386 2.312.004.003.004.003.005.007.133.207.277.408.417.613 2.673 4.104 5.743 8.033 9.313 11.719 14.646 15.102 27.498 18.234 32.494 18.887l1.122.124 1.121-.124c4.997-.652 17.849-3.785 32.491-18.887 1.915-1.974 3.647-4.037 5.3-6.135z" />
            <path d="M71.91 138.461c7.573 1.683 15.128 1.893 18.432 1.893.402 0 .741-.003 1.008-.008.267.005.606.008 1.008.008 3.303 0 10.858-.21 18.432-1.893 10.093-2.244 40.75-11.588 40.75-48.227 0-36.638-25.049-48.226-35.144-48.226-9.771 0-17.443 10.133-25.046 10.778-7.604-.646-15.275-10.778-25.046-10.778-10.095 0-35.146 11.588-35.146 48.226 0 36.639 30.659 45.983 40.752 48.227z" />
        </g>
        <path fill="#CFAB7A"
              d="M111.742 59.673c-7.955 0-14.203 6.493-20.393 6.906-6.191-.413-12.433-6.906-20.395-6.906-8.214 0-28.612 7.425-28.612 30.9 0 23.477 24.964 29.467 33.184 30.903 6.907 1.209 13.804 1.23 15.823 1.209 2.023.021 8.915 0 15.828-1.209 8.215-1.437 33.179-7.427 33.179-30.903 0-23.475-20.394-30.9-28.614-30.9z" />
        <defs>
            <path id="a"
                  d="M71.91 138.461c7.573 1.683 15.128 1.893 18.432 1.893.402 0 .741-.003 1.008-.008.267.005.606.008 1.008.008 3.303 0 10.858-.21 18.432-1.893 10.093-2.244 40.75-11.588 40.75-48.227 0-36.638-25.049-48.226-35.144-48.226-9.771 0-17.443 10.133-25.046 10.778-7.604-.646-15.275-10.778-25.046-10.778-10.095 0-35.146 11.588-35.146 48.226 0 36.639 30.659 45.983 40.752 48.227z" />
        </defs>
        <clipPath id="b">
            <use xlink:href="#a" overflow="visible" />
        </clipPath>
        <g clip-path="url(#b)">
            <path fill="#7E543A"
                  d="M76.303 112.104s7.049 30.84 15.274 30.84c8.223 0 14.819-30.84 14.819-30.84H76.303z" />
        </g>
        <path fill="#472A2B"
              d="M91.35 97.06c-8.297 0-15.047 6.75-15.047 15.045 0 6.124 6.835 22.356 15.047 22.356 8.374 0 15.047-16.055 15.047-22.356-.001-8.295-6.751-15.045-15.047-15.045zm0 30.952c-2.088 0-8.598-10.328-8.598-15.907 0-4.74 3.856-8.598 8.598-8.598 4.739 0 8.598 3.857 8.598 8.598-.001 5.636-6.029 15.907-8.598 15.907z" />
        <path fill="#DF7A1C"
              d="M91.35 102.218c-5.461 0-9.888 4.428-9.888 9.887 0 5.461 6.448 17.198 9.888 17.198 3.867 0 9.889-11.737 9.889-17.198-.001-5.459-4.43-9.887-9.889-9.887z" />
        <defs>
            <path id="c"
                  d="M81.462 112.104c0 5.461 6.448 17.198 9.888 17.198 3.867 0 9.889-11.737 9.889-17.198 0-5.459-4.43-9.887-9.889-9.887-5.461.001-9.888 4.429-9.888 9.887z" />
        </defs>
        <clipPath id="d">
            <use xlink:href="#c" overflow="visible" />
        </clipPath>
        <path clip-path="url(#d)" fill="#B15C12"
              d="M81.462 112.104s6.605 13.542 10.154 13.542c3.546 0 9.674-14.509 9.674-14.509S100 131.45 91.616 131.45c-8.385.001-10.154-19.346-10.154-19.346z" />
        <path fill="#CFAB7A"
              d="M91.385 241.828c9.786-.1 39.933-22.415 39.933-53.251 0-30.33-34.022-32.47-35.446-32.54h-9.043c-1.424.07-35.448 2.21-35.448 32.54 0 30.836 30.146 53.151 39.934 53.251h.07z" />
        <defs>
            <path id="e"
                  d="M58.078 267.814c-2.339 2.67-4.896 4.282-7.775 4.282-1.694 0-3.504-.561-5.443-1.796-3.055-1.945.167.143 12.137-13.579a85.758 85.758 0 005.741 4.999c-.988 1.326-2.253 3.341-4.66 6.094zm-5.361-15.508c-18.191-19.829-23.346-44.749-23.615-65.704-.003-.114.002-.227.002-.343-.017-1.484-.016-2.956.014-4.397.01-.486.038-.951.052-1.431.034-1.064.063-2.132.114-3.165.079-1.511.181-2.99.299-4.434 1.751-21.483 12.082-34.805 17.488-40.396a51.964 51.964 0 01-3.277-2.551c-8.701 4.789-23.49 15.593-31.595 36.615-11.967 31.028 11.587 88.975 28.037 91.593a20.43 20.43 0 003.221.276c4.671 0 7.582-2.066 9.26-6.063zm12.766 11.495c-.415.475-.862 1-1.347 1.61-3.595 4.544-6.761 8.216-6.435 11.376.26 2.495 6.435 11.095 10.468 11.095 1.077 0 2.001-.613 2.619-2.123 3.351-8.194 4.395-12.969 5.2-15.688-3.192-1.514-6.736-3.544-10.505-6.27zm60.173-7.033a84.376 84.376 0 01-5.749 4.995c.981 1.326 2.247 3.334 4.626 6.052 2.335 2.67 4.895 4.282 7.772 4.282 1.697 0 3.507-.561 5.445-1.796 3.051-1.943-.16.136-12.094-13.533zm-8.495 7.072c-3.774 2.727-7.326 4.752-10.53 6.264.803 2.722 1.851 7.494 5.19 15.655.618 1.51 1.543 2.123 2.62 2.123 4.033 0 10.208-8.6 10.466-11.095.326-3.16-2.838-6.832-6.433-11.376a40.684 40.684 0 00-1.313-1.571zm53.34-97.34c-8.107-21.022-22.896-31.826-31.596-36.615a51.695 51.695 0 01-3.278 2.551c5.404 5.592 15.737 18.913 17.493 40.396.118 1.443.216 2.923.295 4.434.057 1.075.088 2.188.121 3.296.011.434.037.854.045 1.295.031 1.505.035 3.04.017 4.594v.145c-.271 20.945-5.418 45.856-23.592 65.683l-.025.028c1.677 3.997 4.589 6.063 9.263 6.063.991 0 2.064-.092 3.22-.276 16.448-2.619 40.002-60.566 28.037-91.594zM88.678 289.987c.027-5.267.058-11.073.013-15.798-2.167-.346-5.349-1.088-9.24-2.623-1.581 4.878-4.688 12.484-4.924 17.932-.127 2.923 9.949 12.881 13.629 12.881.229 0 .425-.038.598-.099a6.546 6.546 0 01-.108-1.194c-.001-2.635.013-7.926.032-11.099zm5.241-15.788c-.045 4.724-.014 10.525.015 15.788.018 3.173.033 8.464.033 11.099 0 .412-.039.812-.109 1.194.175.061.37.099.598.099 3.684 0 13.757-9.958 13.63-12.881-.237-5.439-3.332-13.027-4.918-17.903-3.881 1.518-7.063 2.258-9.249 2.604zm36.343-29.717c.03-.045.066-.088.099-.128.164-.212.326-.422.492-.63a79.046 79.046 0 007.685-12.217l.004-.008c.068-.133.13-.264.197-.395a84.808 84.808 0 002.365-5.135c.179-.414.36-.827.528-1.244l.008-.02a89.228 89.228 0 002.518-7.154c.161-.538.314-1.074.47-1.609a95.16 95.16 0 00.861-3.182c.003-.006.004-.016.006-.022.092-.368.176-.744.264-1.113.295-1.248.578-2.495.827-3.75v-.005c.051-.25.089-.501.139-.751.262-1.379.508-2.76.717-4.149l.001-.017c.042-.284.076-.569.113-.855a117.13 117.13 0 001.024-10.903c.012-.298.029-.593.043-.893l.003-.063c.03-.725.067-1.449.085-2.17v-.016c.008-.327.005-.654.008-.983.048-2.979.012-5.96-.13-8.915v-.016a150.207 150.207 0 00-.317-4.913c-1.719-21.02-12.254-33.563-16.803-38.071-7.342 4.355-14.747 6.582-19.704 7.684-7.829 1.74-15.521 2-19.406 2-.396 0-.732-.003-1.008-.008-.275.005-.614.008-1.008.008-3.887 0-11.577-.26-19.406-2-4.957-1.102-12.363-3.328-19.706-7.684-4.55 4.509-15.086 17.055-16.801 38.071-.336 4.113-.484 8.28-.458 12.461 0 .793 0 1.583.018 2.377v.011c.057 2.4.197 4.805.393 7.207l.004.05c.072.893.146 1.79.242 2.681l.001.011c.081.782.183 1.561.28 2.34v.009c.087.683.181 1.368.275 2.053.144.979.299 1.957.467 2.933.003.003.003.008.003.011.088.507.184 1.012.28 1.519.215 1.145.443 2.286.696 3.423a107.21 107.21 0 00.578 2.454 100.194 100.194 0 001.335 4.788c.002.006.007.015.007.024a89.758 89.758 0 001.516 4.501c.023.066.048.139.074.208v.002c.298.813.598 1.621.92 2.426.004.007.004.011.009.017.168.42.354.838.532 1.254a85.398 85.398 0 002.21 4.825c.115.223.224.449.337.674l.011.014a76.683 76.683 0 001.777 3.313c.22.367.43.738.648 1.109a.68.68 0 00.028.045c.458.773.9 1.552 1.386 2.312.004.003.004.003.005.007.133.207.277.408.417.613 2.673 4.104 5.743 8.033 9.313 11.719 14.646 15.102 27.498 18.234 32.494 18.887l1.122.124 1.121-.124c4.997-.652 17.849-3.785 32.491-18.887 1.915-1.974 3.647-4.037 5.3-6.135zM71.91 138.461c7.573 1.683 15.128 1.893 18.432 1.893.402 0 .741-.003 1.008-.008.267.005.606.008 1.008.008 3.303 0 10.858-.21 18.432-1.893 10.093-2.244 40.75-11.588 40.75-48.227 0-36.638-25.049-48.226-35.144-48.226-9.771 0-17.443 10.133-25.046 10.778-7.604-.646-15.275-10.778-25.046-10.778-10.095 0-35.146 11.588-35.146 48.226 0 36.639 30.659 45.983 40.752 48.227z" />
        </defs>
        <clipPath id="f">
            <use xlink:href="#e" overflow="visible" />
        </clipPath>
        <g clip-path="url(#f)">
            <path fill="#7E543A"
                  d="M38.543 217.553s22.753 45.026 52.057 45.026c33.501 0 53.543-44.983 53.543-44.983l.292 6.473-13.831 24.677-17.197 13.834-11.964 6.729s-5.979 2.242-10.093 2.242c-4.115 0-15.327-1.868-21.31-7.476-5.982-5.608-19.44-17.202-22.806-22.061-3.364-4.858-8.973-22.432-8.973-22.432l.282-2.029z" />
        </g>
        <path clip-path="url(#f)" fill="#7E543A"
              d="M126.258 255.288l-8.553 5.608-7.431 5.328-18.925 6.77-18.927-6.77-7.43-5.328-8.552-5.608-3.365 5.328.47.235s2.24-.377 5.231 1.493c2.991 1.871 2.62 5.607 2.62 5.607s4.296-.187 8.782 2.058c4.486 2.242 5.749 5.187 5.749 5.187l1.822.563s2.804-.983 6.027-.282c3.226.701 5.188 3.646 5.188 3.646l2.103.109v.031l.28-.017.28.017v-.031l2.103-.109s1.963-2.944 5.187-3.646c3.226-.701 6.028.282 6.028.282l1.823-.563s1.263-2.944 5.747-5.187c4.487-2.244 8.784-2.058 8.784-2.058s-.372-3.736 2.62-5.607c2.99-1.87 5.231-1.493 5.231-1.493l.47-.235-3.362-5.328z" />
        <g clip-path="url(#f)">
            <path fill="#7E543A"
                  d="M30.692 166.871s-6.355 26.918 1.496 57.573c7.85 30.659 18.315 36.266 18.315 36.266l4.861-8.226s-17.197-18.696-22.056-50.471c-4.859-31.777-2.616-35.142-2.616-35.142zm121.315 0s6.355 26.918-1.496 57.573c-7.852 30.659-18.317 36.266-18.317 36.266l-4.861-8.226s17.199-18.696 22.057-50.471c4.86-31.777 2.617-35.142 2.617-35.142z" />
        </g>
        <path clip-path="url(#f)" fill="#7E543A"
              d="M100.799 143.133c5.291-1.496 10.056-.293 10.056-.293s3.181-2.696 14.513-1.575c11.34 1.12 17.762 5.608 17.762 5.608l-6.809-9.534-4.969-4.486-15.14 6.915-25.143 3.139-22.712-2.952-17.384-7.662-5.157 5.047-6.431 9.158s6.793-4.673 18.129-5.793c11.337-1.122 13.77 2.136 13.77 2.136s4.764-1.575 10.055-.082l19.46.374z" />
        <g clip-path="url(#f)" fill="#7E543A">
            <path d="M30.786 136.589s0 3.742 2.054 5.796c2.059 2.056 7.668 1.871 7.668 1.871l9.157-12.338-9.347-5.422-9.532 10.093zm113.836 8.974s3.737.935 5.796-1.122c2.056-2.056 1.306-5.419 1.306-5.419l.377-4.3-11.03-7.665-7.104 4.675 2.806 6.729 7.849 7.102z" />
        </g>
        <path fill="#EEB480"
              d="M96.247 116.191c1.113-2.369 2.842-5.719 3.238-6.379.398-.66-2.601-4.442-2.769-3.69-3.551 15.888-3.486 16.497-.469 10.069z" />
        <path fill="#B15C12"
              d="M56.475 285.886c-.836 0-2.942-.201-4.449-2.065-1.608-1.99-1.96-5.158-1.046-9.418 2.277-10.622 10.81-14.214 11.172-14.361a1.52 1.52 0 011.393.125l8.012 5.087a1.523 1.523 0 01-.204 2.685c-1.975.873-7.188 3.94-7.559 7.597-.605 5.943-4.728 9.883-6.354 10.255a4.51 4.51 0 01-.965.095z" />
        <path fill="#472A2B"
              d="M62.729 261.454l8.012 5.087s-7.92 3.479-8.465 8.839c-.546 5.361-4.254 8.712-5.177 8.923a3.015 3.015 0 01-.624.057c-1.744 0-5.841-1.065-4.004-9.638 2.134-9.955 10.258-13.268 10.258-13.268m-.002-3.053a3.04 3.04 0 00-1.152.227c-.392.159-9.643 4.053-12.087 15.454-1.015 4.733-.561 8.333 1.351 10.696 1.354 1.674 3.407 2.634 5.637 2.634.474 0 .926-.047 1.306-.133 2.652-.608 6.904-5.425 7.53-11.591.277-2.712 4.604-5.452 6.656-6.354a3.051 3.051 0 00.408-5.372l-8.012-5.087a3.08 3.08 0 00-1.637-.474z" />
        <path fill="#B15C12"
              d="M66.688 289.279c-2.434 0-5.669-1.432-7.256-8.251-2.875-12.348 7.693-18.07 7.799-18.127a1.525 1.525 0 011.538.066l7.503 4.834a1.527 1.527 0 01-.033 2.587c-.054.033-5.659 3.588-4.543 7.079 1.68 5.259-.256 10.445-2.33 11.244-.478.188-1.446.567-2.676.567l-.002.001z" />
        <path fill="#472A2B"
              d="M67.941 264.251l7.504 4.834s-6.723 4.094-5.204 8.849c1.519 4.751-.392 8.957-1.424 9.354-.302.116-1.113.466-2.128.466-1.857 0-4.398-1.168-5.772-7.07-2.641-11.344 7.024-16.433 7.024-16.433m0-3.052c-.487 0-.975.116-1.42.352-4.066 2.139-11.089 9.036-8.578 19.823 1.913 8.206 6.301 9.432 8.746 9.432 1.519 0 2.719-.471 3.169-.648l.055-.021c2.997-1.154 5.109-7.269 3.235-13.134-.581-1.818 2.43-4.411 3.894-5.316a3.061 3.061 0 001.451-2.57 3.053 3.053 0 00-1.395-2.597l-7.505-4.833a3.032 3.032 0 00-1.652-.488z" />
        <path fill="#B15C12"
              d="M76.533 291.259c-2.762 0-5.272-1.887-7.467-5.61-5.045-8.559 2.807-18.73 3.144-19.16a1.526 1.526 0 011.875-.426l6.722 3.312a1.528 1.528 0 01.416 2.436c-.036.037-3.752 3.924-1.67 6.634 3.154 4.107 3.348 9.184 1.415 10.979-.739.684-2.3 1.835-4.435 1.835z" />
        <path fill="#472A2B"
              d="M73.411 267.432l6.72 3.312s-4.717 4.817-1.789 8.631c2.93 3.814 2.7 7.897 1.587 8.929-.34.316-1.618 1.43-3.396 1.43-1.718 0-3.903-1.042-6.152-4.858-4.572-7.763 3.03-17.444 3.03-17.444m.001-3.052c-.913 0-1.808.409-2.402 1.167-.363.462-8.826 11.43-3.258 20.877 2.487 4.221 5.441 6.361 8.781 6.361 2.656 0 4.568-1.406 5.472-2.243 2.471-2.294 2.562-8.075-1.241-13.027-1.233-1.605 1.53-4.617 1.559-4.647a3.065 3.065 0 00.81-2.646 3.052 3.052 0 00-1.651-2.215l-6.721-3.312a3.02 3.02 0 00-1.349-.315z" />
        <path fill="#B15C12"
              d="M126.227 285.886c.834 0 2.94-.201 4.448-2.065 1.606-1.99 1.958-5.158 1.045-9.418-2.277-10.622-10.81-14.214-11.172-14.361a1.518 1.518 0 00-1.393.125l-8.013 5.087a1.524 1.524 0 00.204 2.685c1.975.873 7.188 3.94 7.561 7.597.604 5.943 4.729 9.883 6.354 10.255.267.062.609.096.964.096h.002z" />
        <path fill="#472A2B"
              d="M119.973 261.454s8.121 3.313 10.255 13.268c1.838 8.572-2.259 9.638-4.001 9.638a2.98 2.98 0 01-.627-.057c-.922-.211-4.63-3.562-5.176-8.923-.545-5.36-8.464-8.839-8.464-8.839l8.013-5.087m0-3.053c-.572 0-1.141.161-1.637.476l-8.013 5.087a3.048 3.048 0 00-1.406 2.81 3.05 3.05 0 001.815 2.562c2.052.901 6.38 3.642 6.655 6.354.626 6.166 4.878 10.982 7.533 11.591.38.086.83.133 1.306.133 2.228 0 4.283-.96 5.635-2.634 1.91-2.363 2.365-5.963 1.351-10.696-2.444-11.401-11.695-15.295-12.087-15.454a3.027 3.027 0 00-1.152-.229z" />
        <path fill="#B15C12"
              d="M116.011 289.279c2.435 0 5.67-1.432 7.257-8.251 2.877-12.348-7.691-18.07-7.799-18.127a1.528 1.528 0 00-1.538.066l-7.503 4.834a1.527 1.527 0 00.033 2.587c.055.033 5.66 3.588 4.544 7.079-1.682 5.259.255 10.445 2.329 11.244.479.188 1.446.568 2.677.568z" />
        <path fill="#472A2B"
              d="M114.758 264.251s9.665 5.089 7.023 16.432c-1.374 5.902-3.915 7.07-5.771 7.07-1.017 0-1.827-.35-2.128-.466-1.033-.396-2.943-4.603-1.425-9.354 1.521-4.755-5.204-8.849-5.204-8.849l7.505-4.833m0-3.052a3.05 3.05 0 00-1.653.487l-7.504 4.833a3.055 3.055 0 00.057 5.167c1.463.905 4.473 3.498 3.892 5.316-1.873 5.865.239 11.979 3.236 13.134l.055.021c.452.178 1.649.648 3.17.648 2.446 0 6.834-1.226 8.744-9.432 2.512-10.787-4.511-17.685-8.575-19.823a3.055 3.055 0 00-1.422-.351z" />
        <path fill="#B15C12"
              d="M106.167 291.259c2.76 0 5.271-1.887 7.466-5.61 5.045-8.559-2.807-18.73-3.144-19.16a1.523 1.523 0 00-1.875-.426l-6.72 3.312a1.524 1.524 0 00-.416 2.436c.034.037 3.75 3.924 1.669 6.634-3.155 4.107-3.349 9.184-1.416 10.979.741.686 2.3 1.836 4.434 1.836h.002z" />
        <path fill="#472A2B"
              d="M109.289 267.432s7.603 9.682 3.028 17.442c-2.249 3.816-4.432 4.858-6.15 4.858-1.778 0-3.057-1.113-3.396-1.43-1.112-1.031-1.342-5.114 1.587-8.929 2.929-3.813-1.79-8.631-1.79-8.631l6.721-3.31m-.001-3.052c-.456 0-.917.101-1.349.314l-6.721 3.312a3.052 3.052 0 00-1.651 2.215 3.065 3.065 0 00.81 2.646c.028.03 2.793 3.042 1.561 4.647-3.804 4.952-3.715 10.733-1.243 13.027.903.837 2.815 2.243 5.471 2.243 3.341 0 6.294-2.141 8.783-6.361 5.566-9.447-2.896-20.415-3.26-20.877a3.047 3.047 0 00-2.401-1.166z" />
        <g fill="#FFF" stroke="#472A2B" stroke-width="7.038" stroke-miterlimit="10">
            <circle cx="65.907" cy="84.239" r="21.785" />
            <circle cx="116.792" cy="84.239" r="21.785" />
        </g>
        <circle fill="#342209" cx="69.277" cy="92.311" r="6.83" />
        <circle fill="#342209" cx="120.775" cy="92.311" r="6.83" />
    </g>
    <path fill="#472A2B"
          d="M321.247 170.67c-9.861-25.564-26.582-40.914-39.064-49.363 8.707-10.973 14.998-25.941 14.998-46.348C297.181 18.875 257.481 0 239.37 0c-10.492 0-18.766 5.34-25.414 9.629-2.26 1.461-5.482 3.537-7.408 4.273-1.926-.736-5.15-2.813-7.41-4.273C192.491 5.34 184.216 0 173.726 0c-18.111 0-57.814 18.875-57.814 74.959 0 20.406 6.291 35.375 14.998 46.348-12.482 8.451-29.203 23.799-39.061 49.363-12.102 31.381-.584 79.648 16.389 109.127 7.93 13.77 16.326 22.324 25.016 25.549a11.856 11.856 0 00-.797 4.791c.246 6.508 5.205 9.662 6.85 10.711 4.117 2.623 8.371 3.98 12.662 4.137 3.336 8.354 13.045 20.582 24.004 20.727 1.289 1.996 3.07 4.248 5.523 6.809 7.754 8.1 14.775 12.207 20.867 12.207 1.412 0 2.793-.242 4.125-.65 1.334.408 2.715.65 4.131.65 6.09 0 13.113-4.104 20.865-12.207 2.455-2.561 4.236-4.813 5.523-6.809 10.961-.145 20.67-12.369 24.006-20.727 4.287-.156 8.547-1.514 12.682-4.148 1.627-1.037 6.586-4.197 6.83-10.699a11.882 11.882 0 00-.781-4.754c8.727-3.195 17.154-11.764 25.111-25.586 16.976-29.484 28.49-77.747 16.392-109.128z" />
    <g fill="#A68462">
        <path d="M169.052 299.688a112.587 112.587 0 01-7.523-6.551c-15.686 17.982-19.908 15.246-15.904 17.795 2.541 1.619 4.912 2.354 7.133 2.354 3.773 0 7.125-2.113 10.189-5.611 3.154-3.611 4.812-6.251 6.105-7.987zm-13.131-12.338c-23.84-25.986-30.594-58.643-30.947-86.104-.004-.15.002-.297.002-.449-.021-1.945-.02-3.875.018-5.764.014-.637.051-1.246.068-1.875.045-1.395.082-2.793.15-4.146.104-1.98.236-3.92.391-5.811 2.295-28.154 15.834-45.611 22.918-52.939a67.999 67.999 0 01-4.295-3.342c-11.402 6.275-30.783 20.434-41.404 47.982-15.682 40.662 15.186 116.6 36.742 120.031 1.514.242 2.92.361 4.221.361 6.122.001 9.937-2.706 12.136-7.944zm16.73 15.064a56.362 56.362 0 00-1.766 2.109c-4.711 5.955-8.859 10.768-8.432 14.908.34 3.27 8.432 14.539 13.717 14.539 1.412 0 2.623-.803 3.434-2.781 4.391-10.738 5.758-16.996 6.814-20.561-4.185-1.982-8.829-4.642-13.767-8.214zm78.856-9.217a111.136 111.136 0 01-7.535 6.545c1.287 1.738 2.945 4.369 6.063 7.932 3.061 3.498 6.414 5.611 10.186 5.611 2.225 0 4.596-.734 7.137-2.354 3.995-2.544-.212.178-15.851-17.734zm-11.133 9.268c-4.947 3.572-9.602 6.227-13.801 8.209 1.053 3.566 2.426 9.82 6.803 20.516.811 1.979 2.021 2.781 3.434 2.781 5.285 0 13.377-11.27 13.715-14.539.428-4.141-3.719-8.953-8.43-14.908a53.87 53.87 0 00-1.721-2.059zm69.9-127.563c-10.625-27.549-30.004-41.707-41.406-47.982a67.794 67.794 0 01-4.295 3.342c7.082 7.328 20.623 24.785 22.924 52.939.154 1.891.283 3.83.387 5.811.074 1.408.115 2.867.158 4.318.014.568.049 1.119.059 1.697.041 1.973.047 3.984.021 6.02 0 .063.002.127 0 .189-.354 27.449-7.1 60.094-30.916 86.076l-.033.037c2.197 5.238 6.014 7.945 12.139 7.945 1.299 0 2.705-.119 4.219-.361 21.556-3.431 52.423-79.369 36.743-120.031zM203.046 336.73c.037-6.902.076-14.512.018-20.703-2.84-.453-7.01-1.426-12.109-3.438-2.072 6.393-6.143 16.361-6.453 23.5-.166 3.83 13.039 16.879 17.861 16.879.299 0 .557-.049.783-.129a8.495 8.495 0 01-.143-1.564c0-3.453.019-10.386.043-14.545zm6.869-20.689c-.059 6.189-.018 13.793.02 20.689.023 4.158.043 11.092.043 14.545 0 .539-.051 1.063-.143 1.564.229.08.484.129.783.129 4.826 0 18.027-13.049 17.861-16.879-.311-7.129-4.367-17.072-6.445-23.463-5.084 1.991-9.254 2.96-12.119 3.415z" />
        <path d="M257.542 277.098c.039-.059.086-.115.129-.168.215-.277.428-.553.645-.826a103.377 103.377 0 0010.076-16.02c.09-.174.17-.346.258-.518a111.12 111.12 0 003.1-6.729c.234-.543.473-1.084.693-1.631l.01-.025a116.737 116.737 0 003.279-9.318.645.645 0 01.02-.057c.211-.705.412-1.408.615-2.109.396-1.385.781-2.773 1.129-4.17.004-.008.006-.02.008-.029.121-.482.23-.975.346-1.459.387-1.635.758-3.27 1.084-4.914v-.006c.066-.328.117-.656.182-.984.344-1.807.666-3.617.939-5.438l.002-.021c.055-.373.1-.746.148-1.121a154.174 154.174 0 001.342-14.289c.016-.391.039-.777.057-1.17 0-.027.004-.057.004-.082.039-.949.088-1.898.111-2.844v-.02c.01-.43.006-.857.01-1.289.063-3.904.016-7.811-.17-11.684v-.02a195.436 195.436 0 00-.416-6.439c-2.252-27.545-16.059-43.984-22.02-49.891-9.621 5.707-19.326 8.625-25.822 10.068-10.26 2.281-20.34 2.621-25.432 2.621-.518 0-.959-.004-1.32-.01-.361.006-.805.01-1.32.01-5.094 0-15.172-.34-25.432-2.621-6.496-1.443-16.201-4.361-25.824-10.068-5.963 5.908-19.77 22.35-22.018 49.891a186.74 186.74 0 00-.6 16.33c0 1.039 0 2.074.023 3.115v.014c.074 3.146.258 6.297.514 9.445.002.021.002.041.006.064.094 1.17.191 2.346.316 3.514l.002.014c.105 1.025.238 2.045.367 3.066v.012c.113.895.236 1.793.361 2.689.188 1.283.391 2.564.611 3.844.004.004.004.01.004.014.115.664.24 1.326.367 1.99.281 1.5.58 2.996.912 4.486a135.037 135.037 0 00.758 3.215c.27 1.064.549 2.127.846 3.188.285 1.031.59 2.061.904 3.088.002.008.008.02.008.031.607 1.98 1.273 3.947 1.986 5.898.031.088.063.182.098.273v.002c.391 1.066.783 2.125 1.205 3.18.006.008.006.014.012.021.221.551.463 1.098.697 1.643.896 2.133 1.863 4.24 2.896 6.324.15.291.293.588.441.883.004.004.008.012.014.018.74 1.461 1.514 2.908 2.33 4.342.287.482.563.969.85 1.455.012.02.023.039.037.059.6 1.014 1.18 2.033 1.816 3.029l.006.008c.174.271.363.535.547.805 3.502 5.377 7.525 10.527 12.205 15.357 19.193 19.789 36.035 23.895 42.582 24.75l1.471.162 1.469-.162c6.549-.855 23.391-4.961 42.58-24.75 2.51-2.585 4.78-5.288 6.946-8.036z" />
        <path d="M181.073 138.158c9.924 2.205 19.824 2.48 24.154 2.48.527 0 .971-.004 1.32-.01.35.006.795.01 1.32.01 4.328 0 14.23-.275 24.154-2.48 13.227-2.941 53.402-15.186 53.402-63.199S252.599 11.76 239.37 11.76c-12.805 0-22.859 13.279-32.822 14.125-9.965-.846-20.018-14.125-32.822-14.125-13.229 0-46.057 15.186-46.057 63.199s40.178 60.258 53.404 63.199z" />
    </g>
    <path fill="#CFAB7A"
          d="M233.272 34.908c-10.426 0-18.613 8.51-26.725 9.051-8.113-.541-16.293-9.051-26.727-9.051-10.764 0-37.496 9.73-37.496 40.494 0 30.766 32.715 38.615 43.486 40.498 9.053 1.584 18.09 1.613 20.736 1.584 2.652.029 11.684 0 20.742-1.584 10.766-1.883 43.48-9.732 43.48-40.498.003-30.763-26.724-40.494-37.496-40.494z" />
    <defs>
        <path id="g"
              d="M181.073 138.158c9.924 2.205 19.824 2.48 24.154 2.48.527 0 .971-.004 1.32-.01.35.006.795.01 1.32.01 4.328 0 14.23-.275 24.154-2.48 13.227-2.941 53.402-15.186 53.402-63.199S252.599 11.76 239.37 11.76c-12.805 0-22.859 13.279-32.822 14.125-9.965-.846-20.018-14.125-32.822-14.125-13.229 0-46.057 15.186-46.057 63.199s40.178 60.258 53.404 63.199z" />
    </defs>
    <clipPath id="h">
        <use xlink:href="#g" overflow="visible" />
    </clipPath>
    <g clip-path="url(#h)">
        <path fill="#7E543A"
              d="M186.829 103.619s9.238 40.414 20.018 40.414c10.775 0 19.42-40.414 19.42-40.414h-39.438z" />
    </g>
    <path fill="#472A2B"
          d="M206.548 83.902c-10.873 0-19.719 8.846-19.719 19.717 0 8.025 8.957 29.297 19.719 29.297 10.975 0 19.719-21.039 19.719-29.297 0-10.871-8.846-19.717-19.719-19.717zm0 40.563c-2.736 0-11.268-13.535-11.268-20.846 0-6.213 5.055-11.268 11.268-11.268 6.211 0 11.268 5.055 11.268 11.268-.001 7.387-7.901 20.846-11.268 20.846z" />
    <path fill="#DF7A1C"
          d="M206.548 90.662c-7.156 0-12.957 5.803-12.957 12.957 0 7.156 8.449 22.537 12.957 22.537 5.068 0 12.959-15.381 12.959-22.537 0-7.154-5.805-12.957-12.959-12.957z" />
    <defs>
        <path id="i"
              d="M193.591 103.619c0 7.156 8.449 22.537 12.957 22.537 5.068 0 12.959-15.381 12.959-22.537 0-7.154-5.805-12.957-12.959-12.957-7.156 0-12.957 5.803-12.957 12.957z" />
    </defs>
    <clipPath id="j">
        <use xlink:href="#i" overflow="visible" />
    </clipPath>
    <path clip-path="url(#j)" fill="#B15C12"
          d="M193.591 103.619s8.656 17.746 13.307 17.746c4.646 0 12.678-19.014 12.678-19.014s-1.691 26.621-12.678 26.621c-10.989.001-13.307-25.353-13.307-25.353z" />
    <path fill="#CFAB7A"
          d="M206.595 273.619c12.824-.131 52.33-29.375 52.33-69.785 0-39.746-44.586-42.551-46.451-42.643h-11.852c-1.865.092-46.453 2.896-46.453 42.643 0 40.41 39.506 69.654 52.332 69.785h.094z" />
    <defs>
        <path id="k"
              d="M162.946 307.674c-3.064 3.498-6.416 5.611-10.189 5.611-2.221 0-4.592-.734-7.133-2.354-4.004-2.549.219.188 15.904-17.795a112.838 112.838 0 007.523 6.551c-1.292 1.737-2.95 4.377-6.105 7.987zm-7.025-20.324c-23.84-25.986-30.594-58.643-30.947-86.104-.004-.15.002-.297.002-.449-.021-1.945-.02-3.875.018-5.764.014-.637.051-1.246.068-1.875.045-1.395.082-2.793.15-4.146.104-1.98.236-3.92.391-5.811 2.295-28.154 15.834-45.611 22.918-52.939a67.999 67.999 0 01-4.295-3.342c-11.402 6.275-30.783 20.434-41.404 47.982-15.682 40.662 15.186 116.6 36.742 120.031 1.514.242 2.92.361 4.221.361 6.122.001 9.937-2.706 12.136-7.944zm16.73 15.064a56.362 56.362 0 00-1.766 2.109c-4.711 5.955-8.859 10.768-8.432 14.908.34 3.27 8.432 14.539 13.717 14.539 1.412 0 2.623-.803 3.434-2.781 4.391-10.738 5.758-16.996 6.814-20.561-4.185-1.982-8.829-4.642-13.767-8.214zm78.856-9.217a111.136 111.136 0 01-7.535 6.545c1.287 1.738 2.945 4.369 6.063 7.932 3.061 3.498 6.414 5.611 10.186 5.611 2.225 0 4.596-.734 7.137-2.354 3.995-2.544-.212.178-15.851-17.734zm-11.133 9.268c-4.947 3.572-9.602 6.227-13.801 8.209 1.053 3.566 2.426 9.82 6.803 20.516.811 1.979 2.021 2.781 3.434 2.781 5.285 0 13.377-11.27 13.715-14.539.428-4.141-3.719-8.953-8.43-14.908a53.87 53.87 0 00-1.721-2.059zm69.9-127.563c-10.625-27.549-30.004-41.707-41.406-47.982a67.794 67.794 0 01-4.295 3.342c7.082 7.328 20.623 24.785 22.924 52.939.154 1.891.283 3.83.387 5.811.074 1.408.115 2.867.158 4.318.014.568.049 1.119.059 1.697.041 1.973.047 3.984.021 6.02 0 .063.002.127 0 .189-.354 27.449-7.1 60.094-30.916 86.076l-.033.037c2.197 5.238 6.014 7.945 12.139 7.945 1.299 0 2.705-.119 4.219-.361 21.556-3.431 52.423-79.369 36.743-120.031zM203.046 336.73c.037-6.902.076-14.512.018-20.703-2.84-.453-7.01-1.426-12.109-3.438-2.072 6.393-6.143 16.361-6.453 23.5-.166 3.83 13.039 16.879 17.861 16.879.299 0 .557-.049.783-.129a8.495 8.495 0 01-.143-1.564c0-3.453.019-10.386.043-14.545zm6.869-20.689c-.059 6.189-.018 13.793.02 20.689.023 4.158.043 11.092.043 14.545 0 .539-.051 1.063-.143 1.564.229.08.484.129.783.129 4.826 0 18.027-13.049 17.861-16.879-.311-7.129-4.367-17.072-6.445-23.463-5.084 1.991-9.254 2.96-12.119 3.415zm47.627-38.943c.039-.059.086-.115.129-.168.215-.277.428-.553.645-.826a103.377 103.377 0 0010.076-16.02c.09-.174.17-.346.258-.518a111.12 111.12 0 003.1-6.729c.234-.543.473-1.084.693-1.631l.01-.025a116.737 116.737 0 003.279-9.318.645.645 0 01.02-.057c.211-.705.412-1.408.615-2.109.396-1.385.781-2.773 1.129-4.17.004-.008.006-.02.008-.029.121-.482.23-.975.346-1.459.387-1.635.758-3.27 1.084-4.914v-.006c.066-.328.117-.656.182-.984.344-1.807.666-3.617.939-5.438l.002-.021c.055-.373.1-.746.148-1.121a154.174 154.174 0 001.342-14.289c.016-.391.039-.777.057-1.17 0-.027.004-.057.004-.082.039-.949.088-1.898.111-2.844v-.02c.01-.43.006-.857.01-1.289.063-3.904.016-7.811-.17-11.684v-.02a195.436 195.436 0 00-.416-6.439c-2.252-27.545-16.059-43.984-22.02-49.891-9.621 5.707-19.326 8.625-25.822 10.068-10.26 2.281-20.34 2.621-25.432 2.621-.518 0-.959-.004-1.32-.01-.361.006-.805.01-1.32.01-5.094 0-15.172-.34-25.432-2.621-6.496-1.443-16.201-4.361-25.824-10.068-5.963 5.908-19.77 22.35-22.018 49.891a186.74 186.74 0 00-.6 16.33c0 1.039 0 2.074.023 3.115v.014c.074 3.146.258 6.297.514 9.445.002.021.002.041.006.064.094 1.17.191 2.346.316 3.514l.002.014c.105 1.025.238 2.045.367 3.066v.012c.113.895.236 1.793.361 2.689.188 1.283.391 2.564.611 3.844.004.004.004.01.004.014.115.664.24 1.326.367 1.99.281 1.5.58 2.996.912 4.486a135.037 135.037 0 00.758 3.215c.27 1.064.549 2.127.846 3.188.285 1.031.59 2.061.904 3.088.002.008.008.02.008.031.607 1.98 1.273 3.947 1.986 5.898.031.088.063.182.098.273v.002c.391 1.066.783 2.125 1.205 3.18.006.008.006.014.012.021.221.551.463 1.098.697 1.643.896 2.133 1.863 4.24 2.896 6.324.15.291.293.588.441.883.004.004.008.012.014.018.74 1.461 1.514 2.908 2.33 4.342.287.482.563.969.85 1.455.012.02.023.039.037.059.6 1.014 1.18 2.033 1.816 3.029l.006.008c.174.271.363.535.547.805 3.502 5.377 7.525 10.527 12.205 15.357 19.193 19.789 36.035 23.895 42.582 24.75l1.471.162 1.469-.162c6.549-.855 23.391-4.961 42.58-24.75 2.51-2.585 4.78-5.288 6.946-8.036zm-76.469-138.94c9.924 2.205 19.824 2.48 24.154 2.48.527 0 .971-.004 1.32-.01.35.006.795.01 1.32.01 4.328 0 14.23-.275 24.154-2.48 13.227-2.941 53.402-15.186 53.402-63.199S252.599 11.76 239.37 11.76c-12.805 0-22.859 13.279-32.822 14.125-9.965-.846-20.018-14.125-32.822-14.125-13.229 0-46.057 15.186-46.057 63.199s40.178 60.258 53.404 63.199z" />
    </defs>
    <clipPath id="l">
        <use xlink:href="#k" overflow="visible" />
    </clipPath>
    <g clip-path="url(#l)">
        <path fill="#7E543A"
              d="M137.347 241.807s29.816 59.006 68.219 59.006c43.902 0 70.166-58.949 70.166-58.949l.383 8.482-18.125 32.338-22.537 18.129-15.678 8.818s-7.836 2.939-13.227 2.939c-5.393 0-20.086-2.449-27.926-9.797-7.84-7.35-25.477-22.543-29.887-28.91-4.408-6.367-11.758-29.396-11.758-29.396l.37-2.66z" />
    </g>
    <path clip-path="url(#l)" fill="#7E543A"
          d="M252.294 291.258l-11.207 7.35-9.738 6.982-24.801 8.871-24.803-8.871-9.736-6.982-11.207-7.35-4.41 6.982.615.309s2.936-.494 6.855 1.957 3.434 7.348 3.434 7.348 5.631-.244 11.51 2.697c5.879 2.938 7.533 6.797 7.533 6.797l2.389.736s3.674-1.289 7.898-.369c4.227.918 6.799 4.777 6.799 4.777l2.756.143v.041l.367-.021.367.021v-.041l2.756-.143s2.572-3.859 6.797-4.777c4.227-.92 7.9.369 7.9.369l2.389-.736s1.654-3.859 7.531-6.797c5.881-2.941 11.512-2.697 11.512-2.697s-.488-4.896 3.434-7.348c3.918-2.451 6.855-1.957 6.855-1.957l.615-.309-4.41-6.982z" />
    <g clip-path="url(#l)">
        <path fill="#7E543A"
              d="M127.058 175.389s-8.328 35.275 1.961 75.449c10.287 40.178 24.002 47.525 24.002 47.525l6.371-10.779s-22.537-24.502-28.904-66.141c-6.37-41.644-3.43-46.054-3.43-46.054zm158.98 0s8.328 35.275-1.961 75.449c-10.289 40.178-24.004 47.525-24.004 47.525l-6.371-10.779s22.539-24.502 28.904-66.141c6.372-41.644 3.432-46.054 3.432-46.054z" />
    </g>
    <path clip-path="url(#l)" fill="#7E543A"
          d="M218.931 144.281c6.934-1.961 13.178-.385 13.178-.385s4.168-3.533 19.02-2.064c14.859 1.469 23.275 7.35 23.275 7.35l-8.922-12.494-6.512-5.879-19.84 9.063-32.949 4.113-29.764-3.869-22.781-10.041-6.758 6.613-8.428 12.002s8.902-6.123 23.758-7.592c14.857-1.471 18.045 2.799 18.045 2.799s6.242-2.064 13.176-.107l25.502.491z" />
    <g clip-path="url(#l)" fill="#7E543A">
        <path d="M127.181 135.705s0 4.904 2.691 7.596c2.697 2.693 10.049 2.451 10.049 2.451l12-16.168-12.248-7.105-12.492 13.226zm149.179 11.76s4.898 1.225 7.596-1.471c2.693-2.693 1.711-7.102 1.711-7.102l.494-5.635-14.455-10.045-9.309 6.127 3.676 8.818 10.287 9.308z" />
    </g>
    <path fill="#EEB480"
          d="M212.966 108.975c1.459-3.105 3.725-7.494 4.244-8.359.521-.865-3.408-5.822-3.629-4.836-4.654 20.82-4.568 21.618-.615 13.195z" />
    <path fill="#B15C12"
          d="M160.845 331.355c-1.096 0-3.855-.264-5.83-2.707-2.107-2.607-2.568-6.76-1.371-12.342 2.984-13.92 14.166-18.627 14.641-18.82a1.981 1.981 0 011.826.165l10.5 6.666a2 2 0 01-.267 3.52c-2.588 1.145-9.42 5.164-9.906 9.955-.793 7.789-6.195 12.951-8.326 13.439-.351.08-.8.124-1.267.124z" />
    <path fill="#472A2B"
          d="M169.04 299.338l10.5 6.666s-10.379 4.559-11.094 11.584-5.574 11.416-6.783 11.693a3.94 3.94 0 01-.818.074c-2.285 0-7.654-1.396-5.246-12.631 2.797-13.044 13.441-17.386 13.441-17.386m-.002-4a3.99 3.99 0 00-1.51.297c-.514.209-12.637 5.311-15.84 20.252-1.33 6.203-.734 10.92 1.77 14.018 1.773 2.193 4.465 3.451 7.387 3.451.621 0 1.213-.061 1.711-.174 3.477-.797 9.049-7.109 9.869-15.189.363-3.555 6.033-7.145 8.723-8.326a4 4 0 00.535-7.039l-10.5-6.666a4 4 0 00-2.145-.624z" />
    <path fill="#B15C12"
          d="M174.229 335.803c-3.189 0-7.43-1.877-9.51-10.813-3.768-16.182 10.082-23.682 10.221-23.756a2.001 2.001 0 012.016.088l9.832 6.334c.58.373.926 1.02.918 1.707a2.004 2.004 0 01-.961 1.684c-.07.043-7.416 4.701-5.953 9.277 2.201 6.891-.336 13.688-3.055 14.734-.625.246-1.895.744-3.506.744l-.002.001z" />
    <path fill="#472A2B"
          d="M175.872 303.004l9.834 6.334s-8.811 5.365-6.82 11.596c1.99 6.227-.514 11.738-1.865 12.258-.396.152-1.459.611-2.789.611-2.434 0-5.764-1.531-7.564-9.266-3.462-14.865 9.204-21.533 9.204-21.533m0-4c-.639 0-1.277.152-1.861.461-5.328 2.803-14.531 11.842-11.24 25.979 2.506 10.754 8.256 12.359 11.461 12.359 1.99 0 3.563-.617 4.152-.85l.072-.027c3.928-1.512 6.695-9.525 4.24-17.211-.762-2.383 3.184-5.781 5.102-6.967a4.01 4.01 0 001.902-3.369 3.999 3.999 0 00-1.828-3.402l-9.834-6.334a3.99 3.99 0 00-2.166-.639z" />
    <path fill="#B15C12"
          d="M187.132 338.396c-3.619 0-6.91-2.473-9.785-7.352-6.611-11.217 3.678-24.547 4.119-25.109a2.003 2.003 0 012.457-.559l8.809 4.34c.574.283.979.826 1.088 1.459a2.004 2.004 0 01-.543 1.734c-.047.049-4.916 5.143-2.188 8.693 4.133 5.383 4.387 12.035 1.854 14.387-.969.9-3.014 2.407-5.811 2.407z" />
    <path fill="#472A2B"
          d="M183.04 307.172l8.807 4.34s-6.182 6.313-2.346 11.311c3.84 4.998 3.539 10.35 2.08 11.701-.445.414-2.121 1.873-4.449 1.873-2.252 0-5.115-1.365-8.063-6.367-5.992-10.171 3.971-22.858 3.971-22.858m.002-4a3.999 3.999 0 00-3.148 1.529c-.477.605-11.566 14.979-4.27 27.359 3.26 5.531 7.131 8.336 11.508 8.336 3.48 0 5.986-1.842 7.17-2.939 3.238-3.006 3.357-10.582-1.627-17.072-1.615-2.104 2.006-6.051 2.043-6.09.883-.92 1.281-2.213 1.061-3.469s-1.02-2.34-2.164-2.902l-8.807-4.34a3.984 3.984 0 00-1.766-.412z" />
    <path fill="#B15C12"
          d="M252.253 331.355c1.094 0 3.854-.264 5.83-2.707 2.105-2.607 2.566-6.76 1.369-12.342-2.984-13.92-14.166-18.627-14.641-18.82a1.983 1.983 0 00-1.826.165l-10.5 6.666a2.001 2.001 0 00.267 3.52c2.588 1.145 9.42 5.164 9.908 9.955.791 7.789 6.195 12.951 8.326 13.439.35.08.799.125 1.264.125h.003z" />
    <path fill="#472A2B"
          d="M244.058 299.338s10.643 4.342 13.439 17.387c2.408 11.234-2.961 12.631-5.244 12.631-.369 0-.656-.037-.82-.074-1.209-.277-6.068-4.668-6.783-11.693s-11.092-11.584-11.092-11.584l10.5-6.667m0-4c-.75 0-1.494.211-2.145.623l-10.5 6.666a3.999 3.999 0 00-1.844 3.682 3.99 3.99 0 002.379 3.357c2.689 1.182 8.361 4.771 8.723 8.326.82 8.08 6.393 14.393 9.871 15.189a7.888 7.888 0 001.711.174c2.92 0 5.613-1.258 7.385-3.451 2.504-3.098 3.1-7.814 1.77-14.018-3.203-14.941-15.326-20.043-15.84-20.252a4.012 4.012 0 00-1.51-.296z" />
    <path fill="#B15C12"
          d="M238.866 335.803c3.189 0 7.43-1.877 9.51-10.813 3.77-16.182-10.08-23.682-10.221-23.756a2.001 2.001 0 00-2.016.088l-9.832 6.334a2.003 2.003 0 00-.918 1.707c.01.689.373 1.324.961 1.684.072.043 7.418 4.701 5.955 9.277-2.203 6.891.334 13.688 3.053 14.734.627.247 1.895.745 3.508.745z" />
    <path fill="#472A2B"
          d="M237.224 303.004s12.666 6.668 9.205 21.533c-1.801 7.734-5.131 9.266-7.563 9.266-1.332 0-2.395-.459-2.789-.611-1.354-.52-3.857-6.031-1.867-12.258 1.992-6.23-6.82-11.596-6.82-11.596l9.834-6.334m0-4a3.99 3.99 0 00-2.166.639l-9.834 6.334a3.999 3.999 0 00-1.828 3.402 4.015 4.015 0 001.904 3.369c1.916 1.186 5.861 4.584 5.1 6.967-2.455 7.686.313 15.699 4.24 17.211l.072.027c.592.232 2.162.85 4.154.85 3.205 0 8.955-1.605 11.459-12.359 3.291-14.137-5.912-23.176-11.238-25.979a3.988 3.988 0 00-1.863-.461z" />
    <path fill="#B15C12"
          d="M225.966 338.396c3.617 0 6.908-2.473 9.783-7.352 6.611-11.217-3.678-24.547-4.119-25.109a1.998 1.998 0 00-2.457-.559l-8.807 4.34a1.999 1.999 0 00-.545 3.193c.045.049 4.914 5.143 2.188 8.693-4.135 5.383-4.389 12.035-1.855 14.387.971.898 3.014 2.406 5.811 2.406h.001z" />
    <path fill="#472A2B"
          d="M230.058 307.172s9.963 12.688 3.969 22.857c-2.947 5.002-5.809 6.367-8.061 6.367-2.33 0-4.006-1.459-4.451-1.873-1.457-1.352-1.758-6.703 2.08-11.701s-2.346-11.311-2.346-11.311l8.809-4.339m-.002-4c-.598 0-1.201.133-1.768.412l-8.807 4.34c-1.145.563-1.943 1.646-2.164 2.902s.178 2.549 1.061 3.469c.037.039 3.66 3.986 2.045 6.09-4.984 6.49-4.867 14.066-1.629 17.072 1.184 1.098 3.689 2.939 7.17 2.939 4.377 0 8.248-2.805 11.51-8.336 7.295-12.381-3.795-26.754-4.271-27.359a3.996 3.996 0 00-3.147-1.529z" />
    <g fill="#FFF" stroke="#472A2B" stroke-width="7.038" stroke-miterlimit="10">
        <circle cx="173.206" cy="67.102" r="28.549" />
        <circle cx="239.89" cy="67.102" r="28.549" />
    </g>
    <circle fill="#342209" cx="171.07" cy="65.885" r="8.95" />
    <circle fill="#342209" cx="238.558" cy="65.885" r="8.951" />
</svg>
