<svg xmlns="http://www.w3.org/2000/svg" xmlns:xlink="http://www.w3.org/1999/xlink" viewBox="0 0 310.749 390.722">
    <path fill="#2C2A40"
          d="M37.268 374.926c0 8.727 61.22 15.796 136.739 15.796s136.742-7.069 136.742-15.796c0-8.719-61.224-15.795-136.742-15.795-75.52 0-136.739 7.076-136.739 15.795"
          opacity=".15" />
    <path fill="#A68362"
          d="M103.678 161.061c13.815-1.154 12.734 2.76 21.245-3.237 11.232-8.345 37.544-36.979 37.544-36.979-4.438-7.668-24.188-30.222-25.792-32.898-1.606-2.675-4.649 4.878-15.611 3.453-10.961-1.425-14.077-3.048-23.374-5.236-10.178-2.396-33.262-10.935-45.539-18.344-12.278-7.406-15.541-18.109-27.873-27.716C11.948 30.5-1.963 23.931 5.053 42.69c3.997 10.687 13.63 18.798 16.311 23.499-7.355-1.713-3.793 4.656-1.913 7.417 3.223 4.726 15.493 17.671 22.015 21.31-15.43-1.281 13.054 22.863 18.979 25.288-8.151-.321-3.084 6.086-.291 8.642 3.817 3.492 16.061 11.48 21.703 12.846-3.996 3.14-3.048 10.525 21.821 19.369z" />
    <path fill="#47292B"
          d="M103.404 163.178l-.426-.149c-15.597-5.548-23.977-11.245-24.908-16.935a6.04 6.04 0 01.395-3.354c-6.65-2.736-16.461-9.374-19.721-12.354-1.438-1.316-6.012-5.889-4.518-9.525a3.77 3.77 0 01.983-1.398c-3.032-2.137-6.808-5.203-10.198-8.349-11.182-10.37-10.326-13.938-10.044-15.11.175-.731.561-1.508 1.341-2.113-6.877-5.407-15.752-14.957-18.582-19.107-2.84-4.168-3.594-7.289-2.23-9.277a3.603 3.603 0 011.786-1.369 180.154 180.154 0 00-2.13-2.507c-3.918-4.555-9.279-10.793-12.054-18.207C.584 36.695.42 32.489 2.588 30.191c1.578-1.678 4.064-2.012 7.386-.992 5.314 1.631 12.046 6.504 15.59 9.26 5.862 4.57 9.676 9.293 13.362 13.866 4.11 5.091 7.99 9.899 14.301 13.708 9.824 5.928 27.433 12.9 39.011 16.455 2.292.703 4.286 1.257 5.929 1.645 3.061.72 5.508 1.393 7.663 1.984 4.61 1.269 8.247 2.268 15.503 3.214 5.841.759 9.068-1.313 11.203-2.683 1.359-.875 2.646-1.701 4.146-1.24.505.155 1.224.535 1.782 1.463.499.832 3.693 4.695 7.079 8.782 6.67 8.058 15.808 19.095 18.73 24.146l.768 1.328-1.037 1.127c-1.081 1.178-26.576 28.879-37.835 37.244-5.779 4.071-7.786 4.076-12.173 3.688-2.185-.194-5.176-.458-10.145-.046l-.447.038zm-16.878-22.5l-3.381 2.657c-1.147.902-1.003 1.793-.954 2.085.232 1.432 2.496 6.61 21.768 13.525 5.054-.393 8.137-.117 10.405.084 3.566.316 4.642.412 9.356-2.911 9.635-7.161 31.093-30.091 36.137-35.526-3.414-5.229-11.496-14.988-17.527-22.277-3.65-4.41-5.893-7.125-6.929-8.543-.201.125-.417.264-.612.387-2.322 1.49-6.644 4.266-13.996 3.31-7.541-.979-11.492-2.065-16.071-3.325-2.225-.612-4.526-1.245-7.51-1.947-1.733-.407-3.821-.987-6.199-1.717C78.9 82.76 61.291 75.771 51.072 69.605 44.129 65.42 40.025 60.33 35.68 54.946c-3.539-4.388-7.197-8.924-12.682-13.195-5.724-4.458-10.783-7.501-14.249-8.563-1.862-.572-2.847-.43-3.123-.137-.144.15-1.315 1.689 1.382 8.91 2.512 6.715 7.389 12.387 11.309 16.945 2.068 2.404 3.854 4.481 4.861 6.249l2.363 4.147-4.649-1.08c-.998-.234-1.579-.25-1.879-.227.09.662.636 2.197 2.163 4.436 3.096 4.543 15.164 17.234 21.307 20.662l8.42 4.698-9.609-.798c-1.39-.113-2.027.033-2.271.123.074.969 1.729 4.381 8.983 11.08 5.424 5.009 11.217 9.253 13.225 10.074l10.948 4.481-11.819-.464c-1.413-.056-2.031.132-2.256.232.078.775 1.36 2.865 3.457 4.785 3.334 3.049 14.537 10.457 20.186 12.191.209.064.409.121.602.168l4.177 1.015z" />
    <path fill="#482A2B"
          d="M252.542 118.705c-6.858-17.779-18.49-28.457-27.17-34.334 6.056-7.631 10.431-18.041 10.431-32.234C235.803 13.129 208.191 0 195.594 0c-7.298 0-13.053 3.715-17.676 6.697-1.57 1.016-3.812 2.46-5.152 2.974-1.341-.514-3.582-1.958-5.154-2.974C162.986 3.715 157.234 0 149.936 0c-12.596 0-40.211 13.129-40.211 52.137 0 9.603 2.009 17.467 5.18 23.919l.125.028c3.425 6.401 8.746 12.49 14.941 17.072 0 0-12.391 12.314-13.695 38.918-2.065 42.105 16.614 62.119 21.07 67.467.578.696-.93 3.361-4.695 5.391-4.204 2.266-7.247 4.521-10.863 7.443a8.236 8.236 0 00-.555 3.334c.17 4.525 3.621 6.721 4.766 7.449 2.861 1.824 5.82 2.769 8.807 2.878 2.32 5.809 9.072 14.314 16.693 14.415.898 1.389 2.135 2.955 3.842 4.735 5.395 5.634 10.276 8.492 14.514 8.492.984 0 1.943-.168 2.871-.452a9.78 9.78 0 002.872.452c4.236 0 9.122-2.856 14.512-8.492 1.708-1.779 2.946-3.347 3.843-4.735 7.622-.101 14.377-8.604 16.696-14.415 2.98-.109 5.944-1.054 8.819-2.886 1.131-.721 4.582-2.918 4.75-7.441a8.267 8.267 0 00-.54-3.307c6.066-2.222 11.93-8.182 17.463-17.795 11.807-20.505 19.813-54.076 11.401-75.902z" />
    <path fill="#A68362"
          d="M146.686 208.443a77.324 77.324 0 01-5.232-4.56c-10.908 12.509-13.846 10.604-11.063 12.378 1.769 1.127 3.418 1.638 4.963 1.638 2.624 0 4.954-1.47 7.087-3.902 2.192-2.511 3.348-4.349 4.245-5.554zm2.503 1.897c-.379.432-.786.908-1.228 1.464-3.274 4.144-6.163 7.491-5.865 10.37.238 2.273 5.865 10.112 9.541 10.112.981 0 1.825-.557 2.388-1.934 3.053-7.47 4.004-11.82 4.738-14.301-2.909-1.377-6.137-3.231-9.574-5.711zm54.846-6.412a77.45 77.45 0 01-5.24 4.553c.896 1.207 2.047 3.039 4.217 5.517 2.128 2.433 4.461 3.903 7.085 3.903 1.546 0 3.196-.512 4.962-1.639 2.781-1.77-.145.124-11.024-12.334zm-7.742 6.446c-3.441 2.484-6.68 4.329-9.6 5.708.732 2.48 1.688 6.83 4.732 14.271.563 1.377 1.406 1.934 2.388 1.934 3.676 0 9.303-7.839 9.538-10.112.298-2.879-2.586-6.227-5.862-10.37a39.717 39.717 0 00-1.196-1.431zm48.616-88.728c-7.389-19.159-20.866-29.006-28.799-33.37a47.01 47.01 0 01-2.987 2.323c4.926 5.098 14.344 17.24 15.943 36.82.108 1.316.199 2.666.271 4.043.049.981.079 1.995.109 3.004.01.396.033.779.039 1.18.029 1.371.033 2.771.017 4.188v.131c-.248 19.092-4.938 41.797-21.504 59.869-.01.007-.014.02-.022.026 1.528 3.644 4.183 5.526 8.441 5.526.905 0 1.885-.084 2.936-.252 14.994-2.386 36.462-55.203 25.556-83.488zm-74.579 112.56c.027-4.8.053-10.095.01-14.4-1.973-.314-4.875-.991-8.42-2.391-1.439 4.445-4.271 11.382-4.486 16.346-.117 2.663 9.066 11.738 12.42 11.738.209 0 .386-.032.545-.089-.064-.35-.1-.713-.1-1.089 0-2.401.014-7.223.031-10.115zm4.776-14.392c-.04 4.307-.011 9.596.014 14.392.017 2.892.03 7.714.03 10.115 0 .376-.033.739-.098 1.089.158.057.336.089.544.089 3.357 0 12.539-9.075 12.425-11.738-.217-4.96-3.041-11.874-4.484-16.318-3.536 1.383-6.436 2.057-8.431 2.371z" />
    <path fill="#3D423B"
          d="M262.928 238.393c-2.982-1.32-5.719-2.121-8.503-2.949a206.882 206.882 0 00-8.282-2.184c-5.507-1.336-11.007-2.496-16.509-3.543-10.999-2.086-22.013-3.729-33.042-4.877-11.032-1.127-22.084-1.795-33.173-1.469-5.546.176-11.1.602-16.671 1.557-5.598.977-11.072 2.582-16.535 4.283-10.912 3.457-21.727 7.537-32.535 11.617-10.807 4.096-21.599 8.26-32.402 12.201-10.807 3.932-21.627 7.688-32.494 10.75-5.432 1.518-10.879 2.863-16.342 3.826-5.465.93-10.951 1.578-16.439 1.051 5.475.98 10.989.785 16.481.301 5.493-.512 10.978-1.41 16.454-2.482 10.948-2.168 21.858-5.041 32.75-8.084 10.891-3.055 21.765-6.328 32.631-9.529 10.868-3.184 21.736-6.359 32.593-8.893 5.425-1.236 10.856-2.363 16.22-2.855 5.391-.479 10.822-.451 16.259-.178 10.874.578 21.771 2.133 32.647 4.145 10.877 2.035 21.74 4.553 32.564 7.512a351.871 351.871 0 0116.183 4.824c2.685.881 5.364 1.797 8.014 2.789 2.634.996 5.317 2.035 7.68 3.303l2.451-21.116z" />
    <path fill="#65B069"
          d="M76.803 260.863c.133 17.189-11.637 32.557-32.722 32.066-.133-17.193 11.64-32.562 32.722-32.066z" />
    <path fill="#3D423B"
          d="M220.749 364.508c-.034 0-.071.008-.104.008-1.652-7.541-8.369-13.197-16.391-13.197h-21.765v-37.354h-3.318v-80.098h-2.196v-.666h-3.24v.666h-5.18v80.098h-2.647v37.354h-19.454c-8.049 0-14.782 5.693-16.406 13.262-3.77.381-6.73 3.523-6.73 7.396a7.477 7.477 0 007.475 7.48c4.128 0 7.473-3.35 7.473-7.48a7.464 7.464 0 00-5.922-7.303c1.549-6.367 7.281-11.111 14.111-11.111h26.288v11.055c-3.591.549-6.352 3.619-6.352 7.359a7.48 7.48 0 007.479 7.48c4.127 0 7.472-3.35 7.472-7.48 0-3.74-2.761-6.811-6.354-7.359v-11.055h29.267c6.918 0 12.715 4.865 14.176 11.348-2.985.979-5.152 3.758-5.152 7.066 0 4.131 3.34 7.48 7.472 7.48 4.121 0 7.466-3.35 7.466-7.48a7.472 7.472 0 00-7.468-7.469" />
    <path fill="#A68362"
          d="M208.232 192.73c.029-.041.061-.082.091-.115.149-.195.297-.386.448-.577a72.14 72.14 0 007.004-11.134l.002-.008c.064-.121.121-.24.182-.361a79.847 79.847 0 002.155-4.68c.163-.378.331-.754.483-1.135 0 0 .005-.011.006-.018a80.175 80.175 0 002.279-6.48l.015-.04c.147-.489.286-.978.429-1.468.275-.963.545-1.928.785-2.898l.003-.021c.087-.334.163-.677.243-1.015a97.24 97.24 0 00.754-3.417v-.004c.046-.229.081-.457.125-.686.238-1.256.465-2.518.654-3.781 0-.008.003-.009.003-.009.037-.267.069-.524.102-.786.472-3.301.772-6.619.934-9.938.011-.271.028-.542.039-.814 0-.019.003-.039.003-.056.026-.66.061-1.32.078-1.98v-.012c.006-.299.003-.598.006-.896.045-2.717.012-5.432-.119-8.127v-.008a139.739 139.739 0 00-.287-4.482c-1.568-19.16-11.172-30.596-15.316-34.704-6.691 3.972-13.441 6-17.959 7.004-7.135 1.587-14.148 1.824-17.689 1.824-.358 0-.668-.003-.918-.007-.25.004-.559.007-.922.007-3.539 0-10.551-.237-17.687-1.824-4.515-1.004-11.267-3.032-17.96-7.005-4.146 4.111-13.75 15.548-15.313 34.705a129.279 129.279 0 00-.418 11.355c0 .723 0 1.444.017 2.167v.009c.051 2.189.179 4.382.355 6.57.005.016.005.029.007.046.065.815.133 1.632.219 2.442v.01c.074.714.168 1.423.256 2.133v.004c.078.628.164 1.25.253 1.875.13.892.272 1.783.425 2.674l.002.01c.08.461.168.922.254 1.383a88.888 88.888 0 001.75 7.576c.201.715.413 1.432.629 2.145.003.008.008.015.008.015a76.514 76.514 0 001.381 4.11c.021.061.044.126.065.191v.002c.276.74.548 1.479.841 2.21l.004.009c.158.39.324.77.489 1.148a76.607 76.607 0 002.013 4.399c.106.203.206.408.309.613 0 0 .004.009.01.012a73.158 73.158 0 001.618 3.021c.203.337.394.676.593 1.014l.025.039c.417.707.822 1.416 1.264 2.109l.004.002c.121.191.251.375.379.563 2.438 3.739 5.236 7.322 8.49 10.682 13.349 13.764 25.064 16.619 29.618 17.214l1.022.112 1.02-.112c4.557-.595 16.27-3.45 29.619-17.214 1.742-1.801 3.323-3.68 4.826-5.592z" />
    <path fill="#A68362"
          d="M155.047 96.092c6.901 1.533 13.789 1.726 16.797 1.726.369 0 .676-.002.922-.007.244.005.554.007.918.007 3.012.001 9.897-.192 16.801-1.726 9.198-2.047 37.142-10.562 37.142-43.955 0-33.395-22.831-43.957-32.032-43.957-8.904 0-15.898 9.236-22.828 9.824-6.934-.588-13.924-9.824-22.83-9.824-9.198 0-32.033 10.563-32.033 43.957-.002 33.393 27.945 41.908 37.143 43.955z" />
    <path fill="#D0AB7B"
          d="M191.352 24.279c-7.249 0-12.944 5.92-18.586 6.296-5.645-.376-11.334-6.296-18.588-6.296-7.49 0-26.08 6.768-26.08 28.164 0 21.398 22.752 26.859 30.242 28.166 6.3 1.103 12.584 1.123 14.426 1.103 1.844.021 8.127 0 14.427-1.102 7.486-1.308 30.241-6.769 30.241-28.167 0-21.396-18.588-28.164-26.082-28.164z" />
    <defs>
        <path id="a"
              d="M155.047 96.092c6.901 1.533 13.789 1.726 16.797 1.726.369 0 .676-.002.922-.007.244.005.554.007.918.007 3.012.001 9.897-.192 16.801-1.726 9.198-2.047 37.142-10.562 37.142-43.955 0-33.395-22.831-43.957-32.032-43.957-8.904 0-15.898 9.236-22.828 9.824-6.934-.588-13.924-9.824-22.83-9.824-9.198 0-32.033 10.563-32.033 43.957-.002 33.393 27.945 41.908 37.143 43.955z" />
    </defs>
    <clipPath id="b">
        <use xlink:href="#a" overflow="visible" />
    </clipPath>
    <g clip-path="url(#b)">
        <path fill="#7E543A"
              d="M159.049 72.069s6.426 28.109 13.924 28.109c7.495 0 13.51-28.109 13.51-28.109h-27.434z" />
    </g>
    <path fill="#482A2B"
          d="M172.766 58.357c-7.564 0-13.717 6.15-13.717 13.712 0 5.581 6.232 20.378 13.717 20.378 7.635 0 13.717-14.634 13.717-20.378-.001-7.561-6.155-13.712-13.717-13.712zm0 28.211c-1.903 0-7.836-9.414-7.836-14.499 0-4.321 3.514-7.836 7.836-7.836 4.32 0 7.838 3.515 7.838 7.836 0 5.138-5.498 14.499-7.838 14.499z" />
    <path fill="#DF7A1C"
          d="M172.766 63.059c-4.979 0-9.013 4.034-9.013 9.011s5.878 15.675 9.013 15.675c3.526 0 9.013-10.698 9.013-15.675s-4.04-9.011-9.013-9.011z" />
    <defs>
        <path id="c"
              d="M163.753 72.069c0 4.977 5.878 15.675 9.013 15.675 3.526 0 9.013-10.698 9.013-15.675s-4.039-9.011-9.013-9.011c-4.979.001-9.013 4.035-9.013 9.011z" />
    </defs>
    <clipPath id="d">
        <use xlink:href="#c" overflow="visible" />
    </clipPath>
    <path clip-path="url(#d)" fill="#B05E27"
          d="M163.753 72.069s6.021 12.344 9.257 12.344c3.229 0 8.817-13.225 8.817-13.225s-1.178 18.515-8.817 18.515c-7.643 0-9.257-17.634-9.257-17.634z" />
    <path fill="#D0AB7B"
          d="M172.797 190.31c8.921-.092 36.4-20.431 36.4-48.536 0-27.645-31.014-29.595-32.311-29.66h-8.242c-1.297.065-32.309 2.016-32.309 29.66 0 28.105 27.475 48.444 36.398 48.536h.064z" />
    <path fill="#EEB380"
          d="M177.23 75.795c1.014-2.16 2.588-5.211 2.95-5.813.364-.602-2.371-4.051-2.525-3.365-3.235 14.481-3.176 15.036-.425 9.178z" />
    <path fill="#FFF"
          d="M169.434 46.672c0 10.967-8.894 19.855-19.86 19.855-10.964 0-19.854-8.889-19.854-19.855 0-10.969 8.891-19.857 19.854-19.857 10.966-.001 19.86 8.888 19.86 19.857z" />
    <path fill="#482A2B"
          d="M149.573 68.975c-12.298 0-22.302-10.004-22.302-22.303s10.004-22.305 22.302-22.305c12.302 0 22.306 10.006 22.306 22.305s-10.004 22.303-22.306 22.303zm0-39.713c-9.597 0-17.407 7.811-17.407 17.41s7.811 17.408 17.407 17.408c9.603 0 17.411-7.81 17.411-17.408 0-9.6-7.808-17.41-17.411-17.41z" />
    <path fill="#FFF"
          d="M215.813 46.672c0 10.967-8.892 19.855-19.857 19.855-10.967 0-19.855-8.889-19.855-19.855 0-10.969 8.889-19.857 19.855-19.857 10.965-.001 19.857 8.888 19.857 19.857z" />
    <path fill="#482A2B"
          d="M195.955 68.975c-12.3 0-22.305-10.004-22.305-22.303s10.005-22.305 22.305-22.305c12.297 0 22.305 10.006 22.305 22.305s-10.008 22.303-22.305 22.303zm0-39.713c-9.601 0-17.41 7.811-17.41 17.41s7.81 17.408 17.41 17.408c9.6 0 17.408-7.81 17.408-17.408 0-9.6-7.808-17.41-17.408-17.41z" />
    <defs>
        <path id="e"
              d="M142.526 213.997c-2.132 2.433-4.463 3.902-7.087 3.902-1.545 0-3.193-.511-4.963-1.638-2.782-1.773.155.131 11.063-12.378a77.599 77.599 0 005.231 4.56c-.897 1.205-2.048 3.043-4.244 5.554zm-23.585-50.188c-1.797-7.361-2.735-16.811-2.828-23.838 0-.102.004-.204.004-.309-.016-1.355-.012-2.697.014-4.01.006-.445.033-.869.047-1.305.029-.972.056-1.943.104-2.885.069-1.377.161-2.727.271-4.043 1.549-18.473 10.561-31.922 15.939-36.82a47.343 47.343 0 01-2.985-2.323c-3.104 3.856-8.479 7.745-15.666 8.325-4.934.396-2.341 8.408-7.569 18.787 0 0 .759 46.68 2.035 47.174 1.275.493 10.634 1.247 10.634 1.247zm30.336 46.531c-.379.432-.789.908-1.229 1.464-3.275 4.144-6.161 7.491-5.862 10.37.236 2.273 5.862 10.112 9.539 10.112.982 0 1.823-.557 2.387-1.934 3.056-7.47 4.008-11.82 4.742-14.301-2.915-1.377-6.143-3.231-9.577-5.711zm54.846-6.412a77.941 77.941 0 01-5.24 4.553c.893 1.207 2.048 3.039 4.215 5.517 2.128 2.433 4.463 3.903 7.086 3.903 1.547 0 3.195-.512 4.963-1.639 2.779-1.77-.147.124-11.024-12.334zm-7.742 6.446c-3.441 2.484-6.678 4.329-9.601 5.708.732 2.48 1.688 6.83 4.73 14.271.564 1.377 1.407 1.934 2.39 1.934 3.676 0 9.305-7.839 9.539-10.112.297-2.879-2.588-6.227-5.863-10.37a40.838 40.838 0 00-1.195-1.431zm48.617-88.728c-7.391-19.159-20.869-29.006-28.801-33.37a47.86 47.86 0 01-2.986 2.323c4.924 5.098 14.346 17.24 15.943 36.82.106 1.316.197 2.666.271 4.043.05.981.078 1.995.107 3.004.011.396.036.779.044 1.18.027 1.371.029 2.771.014 4.188 0 .042.002.089 0 .131-.244 19.092-4.938 41.797-21.504 59.869-.008.007-.014.02-.023.026 1.531 3.644 4.184 5.526 8.445 5.526.902 0 1.879-.084 2.932-.252 14.994-2.386 36.461-55.203 25.558-83.488zm-74.58 112.56c.025-4.8.052-10.095.012-14.4-1.975-.314-4.879-.991-8.424-2.391-1.439 4.445-4.272 11.382-4.486 16.346-.117 2.663 9.068 11.738 12.422 11.738.207 0 .389-.032.545-.089a5.864 5.864 0 01-.102-1.089c0-2.401.016-7.223.033-10.115zm4.777-14.392c-.041 4.307-.012 9.596.012 14.392.016 2.892.03 7.714.03 10.115 0 .376-.036.739-.098 1.089.158.057.336.089.543.089 3.356 0 12.539-9.075 12.425-11.738-.217-4.96-3.039-11.874-4.484-16.318-3.535 1.383-6.435 2.057-8.428 2.371zm33.124-27.084a.98.98 0 01.091-.115c.149-.195.297-.386.448-.577a71.832 71.832 0 007.003-11.134l.005-.008c.062-.121.118-.24.181-.361.771-1.543 1.49-3.1 2.153-4.68.164-.378.329-.754.485-1.139l.006-.014a81.347 81.347 0 002.279-6.48c.008-.014.009-.026.014-.04.146-.489.287-.978.429-1.468.275-.963.544-1.928.788-2.904 0 0 0-.01.004-.016.082-.334.159-.677.239-1.015.268-1.136.528-2.272.753-3.417v-.004c.046-.229.082-.457.126-.686.241-1.256.466-2.518.653-3.781 0-.008.002-.014.002-.014.038-.262.07-.52.104-.781.471-3.301.773-6.619.934-9.938.012-.271.027-.542.039-.814l.002-.056c.029-.66.061-1.32.076-1.98v-.012c.008-.299.006-.598.008-.896a127.1 127.1 0 00-.116-8.127v-.012c-.071-1.5-.169-2.993-.29-4.479-1.566-19.16-11.168-30.596-15.314-34.704-6.692 3.972-13.442 6-17.961 7.004-7.136 1.587-14.146 1.824-17.689 1.824-.359 0-.664-.003-.916-.007-.252.004-.561.007-.92.007-3.543 0-10.551-.237-17.688-1.824-4.52-1.004-11.27-3.032-17.959-7.005-4.148 4.111-13.753 15.548-15.316 34.705a130.454 130.454 0 00-.416 11.355c0 .723 0 1.444.015 2.167v.009c.052 2.189.181 4.382.356 6.57.004.016.004.029.005.046a93.803 93.803 0 00.222 2.452c.073.714.166 1.423.255 2.133v.01c.079.622.163 1.244.25 1.869.133.892.275 1.783.427 2.674l.002.01c.08.461.168.922.257 1.383a85.007 85.007 0 001.161 5.345v.013c.189.742.38 1.48.586 2.219a93.449 93.449 0 00.638 2.168 80.311 80.311 0 001.382 4.102l.066.191v.002c.271.74.546 1.479.84 2.21.002.007.008.016.008.016.153.383.318.763.484 1.142a77.985 77.985 0 002.012 4.399c.105.203.207.408.309.613l.01.012a75.672 75.672 0 001.619 3.021c.204.337.395.676.594 1.014.006.014.016.025.022.039.419.707.823 1.416 1.267 2.109a.006.006 0 01.002.004c.121.189.252.373.381.561 2.438 3.739 5.233 7.322 8.488 10.682 13.35 13.764 25.064 16.619 29.618 17.214l1.024.112 1.021-.112c4.554-.595 16.269-3.45 29.614-17.214 1.743-1.801 3.323-3.68 4.828-5.592zm-53.182-96.638c6.898 1.533 13.785 1.726 16.797 1.726.367 0 .675-.002.92-.007.242.005.552.007.916.007 3.013.001 9.898-.192 16.802-1.726 9.198-2.047 37.143-10.562 37.143-43.955 0-33.395-22.831-43.957-32.034-43.957-8.904 0-15.898 9.236-22.826 9.824-6.932-.588-13.923-9.824-22.832-9.824-9.198 0-32.032 10.563-32.032 43.957-.002 33.393 27.943 41.908 37.146 43.955z" />
    </defs>
    <clipPath id="f">
        <use xlink:href="#e" overflow="visible" />
    </clipPath>
    <g clip-path="url(#f)">
        <path fill="#7E543A"
              d="M124.721 168.182s20.738 41.043 47.448 41.043c30.534 0 48.802-41.002 48.802-41.002l.268 5.899-12.606 22.493-15.675 12.609-10.906 6.133s-5.449 2.046-9.197 2.046c-3.752 0-13.971-1.705-19.424-6.815-5.454-5.113-17.721-15.678-20.787-20.108-3.064-4.427-8.177-20.446-8.177-20.446l.254-1.852z" />
    </g>
    <path clip-path="url(#f)" fill="#7E543A"
          d="M204.671 202.578l-7.798 5.11-6.771 4.856-17.248 6.172-17.252-6.172-6.774-4.856-7.792-5.11-3.067 4.857.427.214s2.045-.344 4.77 1.362c2.726 1.703 2.386 5.109 2.386 5.109s3.919-.168 8.005 1.875c4.092 2.043 5.24 4.729 5.24 4.729l1.662.512s2.557-.896 5.494-.258c2.939.641 4.73 3.324 4.73 3.324l1.914.099v.028l.258-.015.254.015v-.028l1.918-.099s1.787-2.684 4.729-3.324c2.939-.639 5.493.258 5.493.258l1.66-.512s1.153-2.686 5.238-4.729c4.093-2.043 8.009-1.875 8.009-1.875s-.341-3.406 2.387-5.109c2.725-1.706 4.768-1.362 4.768-1.362l.429-.214-3.069-4.857z" />
    <g clip-path="url(#f)">
        <path fill="#7E543A"
              d="M117.564 121.988s-5.793 24.533 1.363 52.477c7.156 27.945 16.695 33.057 16.695 33.057l4.431-7.498s-15.675-17.043-20.102-46.004c-4.43-28.964-2.387-32.032-2.387-32.032zm110.577 0s5.79 24.533-1.364 52.477c-7.157 27.945-16.696 33.057-16.696 33.057l-4.429-7.498s15.675-17.043 20.103-46.004c4.43-28.964 2.386-32.032 2.386-32.032z" />
    </g>
    <path clip-path="url(#f)" fill="#7E543A"
          d="M181.466 100.352c4.821-1.365 9.167-.269 9.167-.269s2.896-2.458 13.227-1.435c10.336 1.021 16.188 5.113 16.188 5.113l-6.203-8.692-4.53-4.089-13.8 6.303-22.918 2.862-20.697-2.692-15.848-6.984-4.699 4.601-5.862 8.349s6.192-4.259 16.524-5.281c10.334-1.023 12.549 1.946 12.549 1.946s4.343-1.435 9.164-.075l17.738.343z" />
    <g clip-path="url(#f)">
        <path fill="#7E543A"
              d="M221.407 102.567s3.409.852 5.285-1.026c1.873-1.871 1.19-4.939 1.19-4.939l.343-3.918-10.053-6.988-6.477 4.262 2.558 6.135 7.154 6.474z" />
    </g>
    <path fill="#B05E27"
          d="M140.979 230.467c-.762 0-2.683-.183-4.058-1.883-1.463-1.813-1.784-4.7-.952-8.584 2.076-9.682 9.854-12.955 10.184-13.092a1.396 1.396 0 011.27.115l7.302 4.639a1.39 1.39 0 01-.184 2.447c-1.801.795-6.553 3.592-6.891 6.924-.552 5.418-4.312 9.007-5.792 9.348a4.167 4.167 0 01-.879.086z" />
    <path fill="#482A2B"
          d="M146.676 208.197l7.305 4.639s-7.218 3.17-7.714 8.057c-.498 4.886-3.878 7.938-4.72 8.133a2.778 2.778 0 01-.568.051c-1.59 0-5.324-.97-3.649-8.785 1.945-9.073 9.346-12.095 9.346-12.095m0-2.781c-.354 0-.711.068-1.049.207-.357.145-8.791 3.694-11.018 14.084-.925 4.316-.51 7.596 1.231 9.752 1.231 1.523 3.104 2.4 5.138 2.4.433 0 .844-.045 1.188-.121 2.42-.555 6.299-4.946 6.866-10.566.25-2.473 4.196-4.968 6.065-5.789a2.785 2.785 0 00.374-4.897l-7.302-4.636a2.794 2.794 0 00-1.493-.434z" />
    <path fill="#B05E27"
          d="M150.287 233.561c-2.218 0-5.166-1.305-6.611-7.521-2.623-11.254 7.009-16.47 7.105-16.521a1.4 1.4 0 011.403.061l6.837 4.404c.402.262.644.711.641 1.191a1.397 1.397 0 01-.671 1.168c-.048.03-5.157 3.27-4.14 6.452 1.531 4.793-.233 9.521-2.123 10.249-.436.171-1.318.517-2.441.517z" />
    <path fill="#482A2B"
          d="M151.432 210.747l6.839 4.406s-6.131 3.733-4.745 8.065c1.385 4.33-.357 8.164-1.297 8.526-.275.104-1.016.425-1.941.425-1.691 0-4.008-1.066-5.26-6.446-2.409-10.338 6.404-14.976 6.404-14.976m0-2.78c-.446 0-.89.104-1.298.318-3.705 1.951-10.106 8.238-7.813 18.071 1.739 7.479 5.74 8.594 7.967 8.594 1.386 0 2.479-.427 2.892-.59l.048-.019c2.732-1.053 4.657-6.625 2.949-11.971-.529-1.658 2.213-4.021 3.549-4.847a2.784 2.784 0 00.053-4.708l-6.84-4.406a2.79 2.79 0 00-1.507-.442z" />
    <path fill="#B05E27"
          d="M159.26 235.366c-2.515 0-4.805-1.723-6.806-5.113-4.597-7.804 2.562-17.075 2.866-17.465.27-.345.678-.53 1.096-.53.208 0 .418.043.613.141l6.126 3.02a1.39 1.39 0 01.377 2.221c-.029.032-3.418 3.576-1.52 6.047 2.875 3.744 3.052 8.369 1.29 10.005-.674.626-2.096 1.676-4.041 1.676h-.001z" />
    <path fill="#482A2B"
          d="M156.414 213.646l6.125 3.02s-4.3 4.391-1.632 7.865c2.671 3.477 2.463 7.199 1.448 8.141-.311.287-1.475 1.301-3.096 1.301-1.566 0-3.556-.949-5.606-4.428-4.168-7.073 2.761-15.899 2.761-15.899m.002-2.782c-.832 0-1.648.376-2.188 1.063-.332.422-8.047 10.418-2.974 19.031 2.271 3.844 4.962 5.797 8.007 5.797 2.419 0 4.162-1.281 4.986-2.046 2.252-2.09 2.334-7.36-1.132-11.874-1.124-1.463 1.395-4.208 1.423-4.234a2.784 2.784 0 00.734-2.412 2.777 2.777 0 00-1.502-2.02l-6.125-3.02a2.799 2.799 0 00-1.229-.285z" />
    <path fill="#B05E27"
          d="M204.553 230.467c.762 0 2.681-.183 4.059-1.883 1.462-1.812 1.785-4.7.951-8.584-2.076-9.682-9.854-12.955-10.184-13.091a1.402 1.402 0 00-1.271.114l-7.301 4.639a1.392 1.392 0 00-.645 1.278c.04.513.359.964.827 1.169 1.803.795 6.554 3.592 6.896 6.924.549 5.418 4.309 9.007 5.789 9.348.244.055.555.086.879.086z" />
    <path fill="#482A2B"
          d="M198.855 208.197s7.402 3.021 9.347 12.094c1.677 7.815-2.06 8.785-3.649 8.785-.256 0-.456-.025-.568-.051-.842-.195-4.223-3.247-4.719-8.133-.498-4.887-7.716-8.057-7.716-8.057l7.305-4.638m0-2.781c-.523 0-1.041.148-1.493.435l-7.303 4.636a2.783 2.783 0 00.374 4.897c1.868.821 5.813 3.317 6.065 5.789.571 5.62 4.446 10.012 6.865 10.566.347.076.759.121 1.188.121 2.033 0 3.906-.877 5.139-2.4 1.742-2.156 2.155-5.436 1.23-9.751-2.229-10.391-10.66-13.94-11.018-14.085a2.723 2.723 0 00-1.047-.208z" />
    <path fill="#B05E27"
          d="M195.242 233.561c2.22 0 5.17-1.305 6.615-7.521 2.622-11.254-7.014-16.47-7.109-16.521a1.387 1.387 0 00-.645-.16 1.41 1.41 0 00-.758.221l-6.836 4.404a1.4 1.4 0 00-.639 1.191c.006.477.258.918.669 1.168.049.03 5.157 3.27 4.141 6.452-1.53 4.793.233 9.521 2.125 10.249.434.171 1.316.517 2.437.517z" />
    <path fill="#482A2B"
          d="M194.104 210.747s8.808 4.638 6.4 14.978c-1.252 5.379-3.568 6.445-5.262 6.445-.924 0-1.664-.32-1.94-.424-.938-.363-2.683-4.197-1.297-8.527 1.384-4.332-4.742-8.065-4.742-8.065l6.841-4.407m0-2.78c-.527 0-1.052.148-1.508.443l-6.84 4.406c-.805.516-1.281 1.412-1.271 2.365s.512 1.844 1.322 2.343c1.334.826 4.078 3.188 3.549 4.847-1.707 5.346.217 10.918 2.949 11.971l.051.019c.411.163 1.502.59 2.887.59 2.229 0 6.229-1.114 7.971-8.594 2.289-9.833-4.111-16.12-7.817-18.071a2.772 2.772 0 00-1.293-.319z" />
    <path fill="#B05E27"
          d="M186.27 235.366c2.518 0 4.807-1.723 6.807-5.113 4.599-7.804-2.559-17.075-2.864-17.465a1.399 1.399 0 00-1.71-.389l-6.127 3.02c-.4.195-.68.573-.758 1.015-.072.438.067.889.379 1.206.031.032 3.42 3.576 1.523 6.047-2.875 3.744-3.052 8.369-1.291 10.005.675.624 2.094 1.674 4.041 1.674z" />
    <path fill="#482A2B"
          d="M189.114 213.646s6.931 8.825 2.763 15.898c-2.047 3.479-4.039 4.428-5.607 4.428-1.619 0-2.783-1.014-3.094-1.301-1.015-.941-1.225-4.664 1.447-8.141 2.668-3.475-1.632-7.865-1.632-7.865l6.123-3.019m0-2.782c-.416 0-.835.093-1.228.286l-6.127 3.02a2.77 2.77 0 00-1.502 2.02 2.782 2.782 0 00.736 2.412c.025.026 2.543 2.771 1.422 4.234-3.468 4.514-3.386 9.784-1.131 11.874.822.765 2.565 2.046 4.984 2.046 3.045 0 5.738-1.953 8.004-5.797 5.076-8.613-2.637-18.609-2.967-19.031a2.792 2.792 0 00-2.191-1.064z" />
    <circle fill="#342209" cx="142.323" cy="43.205" r="6.225" />
    <circle fill="#342209" cx="189.261" cy="43.205" r="6.226" />
</svg>
