<?xml version="1.0" encoding="utf-8"?>
<!-- Generator: Adobe Illustrator 16.0.0, SVG Export Plug-In . SVG Version: 6.00 Build 0)  -->
<!DOCTYPE svg PUBLIC "-//W3C//DTD SVG 1.1//EN" "http://www.w3.org/Graphics/SVG/1.1/DTD/svg11.dtd">
<svg version="1.1" id="Layer_1" xmlns="http://www.w3.org/2000/svg" xmlns:xlink="http://www.w3.org/1999/xlink" x="0px" y="0px"
	 width="595.281px" height="332.301px" viewBox="0 532.24 595.281 332.301" enable-background="new 0 532.24 595.281 332.301"
	 xml:space="preserve">
<path fill="#694B31" d="M0,532.24h595.236v332.255H0V532.24z"/>
<g opacity="0.4">
	<path fill="#565656" d="M419.208,768.174c-0.461-2.123-1.246-4.153-2.4-5.861l-65.074-98.536c-3.832-5.815-10.063-5.815-13.895,0
		l-65.121,98.536c-1.108,1.708-1.938,3.691-2.4,5.861H419.208z"/>
	<path fill="#FFFFFF" d="M328.193,713.621l9.924-17.631l5.445,5.724l7.199-9.69l26.215,21.737l-3.691-17.353l-21.6-32.678
		c-3.83-5.814-10.063-5.814-13.893,0l-17.814,26.953l7.199-1.938L328.193,713.621z"/>
	<g opacity="0.2">
		<g>
			<defs>
				<rect id="SVGID_1_" x="344.763" y="659.437" width="74.445" height="108.782"/>
			</defs>
			<clipPath id="SVGID_2_">
				<use xlink:href="#SVGID_1_"  overflow="visible"/>
			</clipPath>
			<path clip-path="url(#SVGID_2_)" fill="#28100C" d="M419.208,768.174c-0.461-2.123-1.246-4.153-2.4-5.861l-65.074-98.536
				c-1.939-2.908-4.432-4.339-6.971-4.339v108.782h74.445V768.174z"/>
		</g>
	</g>
	<path fill="#565656" d="M464.9,768.174c-0.369-1.708-1.016-3.322-1.893-4.707l-52.246-78.969c-3.092-4.661-8.076-4.661-11.17,0
		l-52.152,78.969c-0.924,1.385-1.523,2.953-1.893,4.707H464.9L464.9,768.174z"/>
	<path fill="#FFFFFF" d="M390.916,716.713l9.783-13.938l4.479,15.139l8.678-10.894l9.184,10.938l0.832-13.661l-2.725-4.153
		l-10.385-15.646c-3.092-4.661-8.074-4.661-11.168,0l-14.262,21.6l5.77-1.522L390.916,716.713L390.916,716.713z"/>
	<g opacity="0.2">
		<g>
			<defs>
				<rect id="SVGID_3_" x="405.177" y="680.991" width="59.676" height="87.183"/>
			</defs>
			<clipPath id="SVGID_4_">
				<use xlink:href="#SVGID_3_"  overflow="visible"/>
			</clipPath>
			<path clip-path="url(#SVGID_4_)" fill="#28100C" d="M464.9,768.174c-0.369-1.708-1.016-3.322-1.893-4.707l-52.246-78.969
				c-1.523-2.309-3.555-3.508-5.584-3.508v87.183L464.9,768.174L464.9,768.174z"/>
		</g>
	</g>
	<path fill="#565656" d="M531.22,768.174c-0.369-1.708-1.016-3.322-1.893-4.707l-52.199-78.969c-3.092-4.661-8.076-4.661-11.17,0
		l-52.199,78.969c-0.922,1.385-1.521,2.953-1.893,4.707H531.22z"/>
	<path fill="#FFFFFF" d="M455.068,721.974l11.17-11.631l4.105,10.661l8.908-9.508l18.139,13.107l-2.953-13.938l-17.309-26.169
		c-3.092-4.661-8.076-4.661-11.17,0l-14.26,21.6l3.877,2.724L455.068,721.974L455.068,721.974z"/>
	<g opacity="0.2">
		<g>
			<defs>
				<rect id="SVGID_5_" x="471.546" y="680.991" width="59.676" height="87.183"/>
			</defs>
			<clipPath id="SVGID_6_">
				<use xlink:href="#SVGID_5_"  overflow="visible"/>
			</clipPath>
			<path clip-path="url(#SVGID_6_)" fill="#28100C" d="M531.22,768.174c-0.369-1.708-1.016-3.322-1.893-4.707l-52.199-78.969
				c-1.523-2.309-3.553-3.508-5.584-3.508v87.183L531.22,768.174L531.22,768.174z"/>
		</g>
	</g>
</g>
<path fill="#FAA54E" d="M0,768.174h595.236v96.321H0V768.174z"/>
<path fill="#EA6424" d="M563.205,803.758c0.047-0.323-0.047-0.646-0.092-0.923c-0.047-0.14-0.092-0.277-0.186-0.415
	c-0.045-0.14-0.092-0.277-0.184-0.416c-0.188-0.276-0.324-0.508-0.508-0.784l-0.646-0.692c-0.186-0.23-0.461-0.416-0.693-0.601
	c-0.23-0.185-0.506-0.369-0.738-0.554l-1.615-0.923l-1.707-0.971l1.895,0.509c0.83,0.23,1.566,0.508,2.354,0.83
	c0.785,0.323,1.521,0.692,2.215,1.154c0.369,0.23,0.693,0.461,1.016,0.738c0.324,0.275,0.646,0.554,0.971,0.831
	c0.137,0.138,0.275,0.321,0.414,0.461c0.139,0.139,0.277,0.322,0.369,0.508c0.094,0.185,0.277,0.369,0.324,0.554l0.275,0.601
	l-0.783,0.186c-0.324-2.031-0.693-4.107-1.016-6.139l-0.324-2.262l1.107,2.029l2.537,4.616l-0.6-0.093
	c0.324-0.323,0.693-0.646,1.016-0.97c0.369-0.322,0.738-0.601,1.107-0.83c0.186-0.14,0.416-0.23,0.6-0.369
	c0.186-0.14,0.416-0.23,0.646-0.323l0.324-0.139c0.092-0.046,0.23-0.092,0.369-0.14l0.738-0.138l0.736-0.139l-0.508,0.6
	c-0.508,0.602-0.924,1.293-1.199,1.985c-0.139,0.368-0.23,0.737-0.23,1.106v0.277c0,0.092,0.047,0.185,0.047,0.275
	c0.047,0.094,0.047,0.186,0.092,0.277l0.139,0.229h-0.277c0.277-0.276,0.602-0.462,0.924-0.6c0.139-0.093,0.324-0.139,0.508-0.23
	c0.186-0.093,0.322-0.093,0.508-0.186c0.322-0.139,0.693-0.185,1.018-0.229c0.184-0.046,0.367-0.046,0.508-0.046l0.508-0.048
	l-0.508,0.094c-0.188,0.046-0.324,0.046-0.508,0.092c-0.322,0.093-0.693,0.139-1.018,0.323c-0.139,0.047-0.322,0.093-0.461,0.185
	c-0.139,0.093-0.324,0.139-0.463,0.231c-0.273,0.185-0.553,0.368-0.783,0.6l-0.139,0.185l-0.094-0.185l-0.184-0.276
	c-0.092-0.093-0.092-0.186-0.139-0.322c-0.047-0.094-0.092-0.231-0.092-0.323c0-0.093-0.047-0.23-0.047-0.323
	c-0.045-0.462,0.047-0.877,0.186-1.292c0.275-0.831,0.691-1.522,1.199-2.216l0.229,0.462l-0.6,0.138
	c-0.092,0-0.184,0.094-0.277,0.094l-0.275,0.139c-0.186,0.092-0.369,0.185-0.553,0.322c-0.188,0.139-0.369,0.23-0.557,0.37
	c-0.369,0.275-0.689,0.554-1.061,0.829c-0.324,0.277-0.645,0.602-0.969,0.925l-0.371,0.368l-0.23-0.462l-2.582-4.568l0.783-0.276
	c0.369,2.03,0.646,4.107,0.971,6.139l0.461,2.907l-1.246-2.723l-0.23-0.508c-0.047-0.186-0.186-0.323-0.277-0.509
	c-0.09-0.185-0.23-0.322-0.322-0.462c-0.139-0.139-0.229-0.322-0.369-0.462c-0.275-0.275-0.555-0.554-0.877-0.783
	c-0.324-0.23-0.645-0.462-0.971-0.692c-1.338-0.877-2.813-1.568-4.338-2.077l0.188-0.462l1.613,1.063
	c0.275,0.185,0.508,0.415,0.738,0.646c0.23,0.231,0.508,0.416,0.691,0.692l0.602,0.737c0.184,0.277,0.322,0.556,0.461,0.831
	c0.092,0.14,0.092,0.323,0.184,0.462c0.047,0.14,0.094,0.323,0.141,0.461l0.047,0.462
	C563.205,803.434,563.251,803.573,563.205,803.758L563.205,803.758z"/>
<path fill="#7F431C" d="M110.397,791.989c0-0.277-0.092-0.554-0.23-0.831c-0.046-0.139-0.139-0.229-0.185-0.369
	c-0.092-0.139-0.138-0.229-0.23-0.368l-0.554-0.601l-0.692-0.508c-0.23-0.185-0.461-0.277-0.738-0.416
	c-0.277-0.139-0.508-0.229-0.738-0.369l-1.616-0.508l-0.738-0.229l0.692-0.277c0.369-0.138,0.738-0.229,1.106-0.322
	c0.369-0.093,0.785-0.093,1.154-0.093c0.37,0,0.785,0.046,1.154,0.093c0.185,0.046,0.369,0.092,0.554,0.139
	c0.185,0.047,0.369,0.139,0.554,0.185c0.185,0.047,0.37,0.139,0.508,0.277c0.185,0.092,0.369,0.185,0.508,0.322l0.461,0.369
	c0.139,0.139,0.277,0.276,0.416,0.415c0.277,0.277,0.508,0.601,0.738,0.924c0.139,0.138,0.185,0.322,0.277,0.507l0.277,0.508
	l-0.739,0.14c0-0.186-0.046-0.462-0.092-0.738c-0.046-0.276-0.138-0.508-0.23-0.737c-0.092-0.231-0.231-0.463-0.323-0.692
	c-0.092-0.231-0.277-0.416-0.461-0.646L111,787.839c-0.092-0.092-0.185-0.186-0.277-0.276l-0.554-0.555
	c-0.185-0.186-0.416-0.322-0.646-0.461l-0.646-0.462l-1.846-1.292l2.169,0.554c0.785,0.186,1.477,0.462,2.216,0.784
	c0.692,0.323,1.385,0.692,2.077,1.107c0.323,0.23,0.646,0.415,0.969,0.692c0.323,0.23,0.6,0.508,0.877,0.784
	c0.277,0.276,0.554,0.554,0.785,0.877c0.277,0.276,0.461,0.646,0.692,0.97l-0.508,0.046l1.8-3.737l0.277,0.138
	c-0.139,0.231-0.231,0.555-0.185,0.831c0,0.139,0.046,0.276,0.093,0.416c0.046,0.138,0.138,0.229,0.277,0.322
	c0.092,0.093,0.23,0.139,0.415,0.186c0.139,0.046,0.277,0.092,0.462,0.092c0.138,0,0.323,0.046,0.461,0.046h0.461l-0.461,0.047
	h-0.461c-0.139,0-0.323-0.047-0.462-0.047c-0.138-0.046-0.323-0.092-0.461-0.185c-0.138-0.092-0.277-0.23-0.369-0.369
	c-0.092-0.139-0.139-0.323-0.139-0.508c-0.046-0.323,0.046-0.692,0.185-1.016l0.277,0.139c-0.508,1.293-1.062,2.539-1.569,3.83
	l-0.185,0.416l-0.323-0.416c-0.231-0.275-0.416-0.6-0.692-0.877c-0.231-0.275-0.508-0.554-0.785-0.783
	c-0.277-0.231-0.554-0.462-0.877-0.692c-0.277-0.23-0.6-0.416-0.923-0.601c-0.646-0.369-1.292-0.738-1.984-1.017
	c-0.692-0.275-1.385-0.554-2.077-0.691l0.277-0.738l0.739,0.508c0.23,0.186,0.507,0.323,0.692,0.509l0.646,0.6
	c0.092,0.093,0.23,0.186,0.323,0.323l0.277,0.368c0.185,0.231,0.369,0.463,0.508,0.739c0.138,0.276,0.277,0.508,0.369,0.83
	c0.092,0.277,0.23,0.555,0.23,0.877c0.046,0.323,0.092,0.601,0.092,0.924l-0.046,1.477l-0.739-1.339l-0.23-0.461
	c-0.092-0.139-0.139-0.322-0.277-0.462c-0.231-0.275-0.37-0.6-0.646-0.83c-0.138-0.139-0.23-0.276-0.369-0.369l-0.416-0.323
	c-0.138-0.138-0.277-0.185-0.415-0.276c-0.139-0.093-0.277-0.185-0.462-0.229c-0.138-0.047-0.323-0.139-0.461-0.186
	c-0.185-0.047-0.323-0.093-0.508-0.139c-0.323-0.093-0.692-0.139-1.015-0.139c-0.37,0-0.692,0-1.062,0.046
	c-0.369,0.046-0.692,0.139-1.015,0.231l-0.046-0.509l1.662,0.601c0.277,0.139,0.508,0.276,0.785,0.415
	c0.231,0.139,0.508,0.276,0.739,0.462l0.646,0.554l0.554,0.691c0.092,0.14,0.139,0.277,0.185,0.369
	c0.046,0.14,0.138,0.277,0.185,0.416C110.352,791.435,110.397,791.712,110.397,791.989L110.397,791.989z M177.134,803.481
	c-0.738-0.692-1.477-1.385-2.308-1.984c-0.416-0.276-0.831-0.555-1.246-0.784c-0.231-0.093-0.462-0.186-0.646-0.277l-0.323-0.092
	h-0.323l-2.354-0.139l2.308-0.462c0.37-0.093,0.739-0.093,1.108-0.139h1.108c0.738,0.046,1.431,0.186,2.123,0.369
	c0.692,0.185,1.385,0.508,1.985,0.877c0.138,0.092,0.323,0.186,0.461,0.276l0.461,0.323c0.323,0.185,0.554,0.462,0.831,0.691
	l-0.692,0.277c0-0.462,0-1.017-0.092-1.479c-0.046-0.229-0.092-0.508-0.185-0.691c-0.046-0.092-0.046-0.23-0.139-0.323l-0.138-0.276
	l-0.831-1.478l1.338,0.924c0.6,0.415,1.154,0.83,1.616,1.338c0.231,0.277,0.461,0.508,0.692,0.831
	c0.092,0.139,0.23,0.277,0.277,0.462l0.231,0.508l-0.462-0.139c0.416-0.323,0.877-0.646,1.292-0.97
	c0.185-0.186,0.416-0.323,0.6-0.508l0.554-0.509l0.277-0.229v0.969c0,0.229-0.092,0.415-0.138,0.646
	c-0.046,0.231-0.139,0.416-0.277,0.602c-0.092,0.185-0.277,0.323-0.416,0.508c0.092-0.185,0.231-0.323,0.323-0.554
	c0.092-0.186,0.138-0.37,0.185-0.602c0.092-0.415,0.092-0.831,0-1.199l0.277,0.093l-0.554,0.646c-0.185,0.186-0.37,0.369-0.6,0.555
	c-0.416,0.368-0.785,0.691-1.2,1.062l-0.231,0.229l-0.185-0.322l-0.23-0.415c-0.046-0.139-0.185-0.23-0.277-0.369
	c-0.185-0.277-0.415-0.462-0.646-0.692c-0.461-0.416-1.016-0.83-1.569-1.199l0.508-0.602l0.231,0.416
	c0.092,0.14,0.138,0.276,0.185,0.415c0.138,0.277,0.185,0.554,0.23,0.831c0.092,0.554,0.139,1.107,0.139,1.661v0.831l-0.692-0.555
	c-0.277-0.185-0.508-0.414-0.785-0.646l-0.416-0.276c-0.138-0.093-0.277-0.185-0.416-0.276c-0.554-0.369-1.2-0.601-1.846-0.831
	s-1.292-0.369-1.984-0.415c-0.323-0.046-0.692-0.046-1.016-0.046c-0.324,0-0.692,0-1.016,0.046l-0.046-0.6l0.416,0.046l0.415,0.092
	c0.277,0.093,0.508,0.186,0.739,0.323c0.461,0.276,0.877,0.554,1.292,0.924C175.842,801.911,176.536,802.65,177.134,803.481
	L177.134,803.481z M37.845,817.88c-0.415-0.646-0.923-1.152-1.523-1.614c-0.277-0.23-0.6-0.462-0.923-0.646
	c-0.323-0.185-0.646-0.368-0.969-0.508c-0.185-0.092-0.323-0.138-0.508-0.185c-0.185-0.046-0.323-0.139-0.507-0.186
	c-0.37-0.092-0.692-0.185-1.062-0.229c-0.369-0.093-0.738-0.093-1.107-0.093h-1.109l-0.923,0.047L30,814.004
	c0.415-0.277,0.831-0.415,1.292-0.601c0.462-0.139,0.923-0.276,1.385-0.322c0.231-0.047,0.461-0.094,0.692-0.094
	s0.461-0.046,0.692,0c0.461,0,0.923,0.047,1.431,0.14c0.231,0.046,0.462,0.139,0.692,0.185c0.231,0.046,0.462,0.14,0.692,0.23
	c0.231,0.093,0.462,0.185,0.646,0.276l0.6,0.323c0.415,0.23,0.785,0.508,1.2,0.784c0.37,0.276,0.739,0.601,1.062,0.923l-0.554,0.508
	c-0.323-0.415-0.508-0.784-0.785-1.199l-0.646-1.247c-0.231-0.414-0.37-0.829-0.554-1.245l-0.507-1.292l-0.785-1.893l1.477,1.477
	c0.6,0.646,1.292,1.247,1.938,1.801c0.323,0.276,0.692,0.554,1.015,0.831c0.185,0.138,0.37,0.275,0.508,0.369l0.554,0.322
	l-0.6,0.369c0-0.322,0.046-0.555,0.092-0.831c0.046-0.276,0.092-0.554,0.185-0.831c0.046-0.275,0.185-0.508,0.277-0.783
	c0.092-0.231,0.185-0.508,0.369-0.739c0.139-0.229,0.277-0.461,0.461-0.692l0.554-0.646c0.092-0.093,0.185-0.231,0.277-0.277
	l0.323-0.229l0.646-0.508l1.108-0.831l-0.554,1.339c-0.092,0.185-0.138,0.369-0.185,0.6c-0.046,0.186-0.092,0.416-0.138,0.602
	c-0.046,0.229-0.046,0.415-0.092,0.646c-0.046,0.231-0.046,0.416,0,0.646c0,0.229,0,0.416,0.046,0.646l0.092,0.646
	c0,0.23,0.092,0.415,0.139,0.646l0.138,0.646l-0.6-0.046c0.185-0.322,0.415-0.601,0.646-0.877s0.461-0.508,0.692-0.785
	c0.23-0.275,0.508-0.461,0.785-0.691c0.277-0.23,0.554-0.415,0.831-0.6c0.277-0.186,0.554-0.416,0.877-0.555l0.923-0.462
	c0.323-0.185,0.646-0.229,0.969-0.369l0.969-0.322l0.692-0.23l-0.508,0.508c-0.323,0.322-0.692,0.738-0.969,1.153
	c-0.138,0.185-0.277,0.416-0.416,0.646c-0.138,0.23-0.277,0.415-0.369,0.646l-0.277,0.691c-0.092,0.23-0.139,0.461-0.231,0.738
	c-0.092,0.23-0.138,0.508-0.138,0.738l-0.046,0.784v-0.784c0-0.277,0-0.508,0.092-0.738c0.046-0.229,0.092-0.508,0.185-0.738
	l0.277-0.738c0.092-0.23,0.23-0.461,0.323-0.692c0.092-0.229,0.231-0.461,0.37-0.646c0.277-0.462,0.6-0.831,0.923-1.246l0.185,0.322
	l-0.921,0.371c-0.323,0.138-0.646,0.185-0.923,0.368l-0.876,0.461c-0.323,0.14-0.554,0.369-0.831,0.555s-0.554,0.37-0.785,0.601
	s-0.508,0.415-0.739,0.692c-0.231,0.229-0.461,0.462-0.646,0.737c-0.185,0.23-0.416,0.508-0.554,0.785l-0.415,0.692l-0.231-0.739
	l-0.185-0.692c-0.046-0.229-0.139-0.461-0.185-0.691l-0.092-0.692c-0.046-0.229-0.046-0.461-0.046-0.691v-0.692
	c0.046-0.229,0.046-0.461,0.092-0.69c0.046-0.231,0.092-0.462,0.139-0.692c0.046-0.231,0.138-0.462,0.23-0.692l0.554,0.509
	l-0.6,0.461l-0.277,0.229c-0.092,0.093-0.185,0.186-0.231,0.277l-0.508,0.554c-0.138,0.185-0.277,0.416-0.369,0.646
	c-0.139,0.186-0.231,0.462-0.323,0.646c-0.092,0.229-0.185,0.461-0.23,0.691c-0.092,0.23-0.139,0.461-0.185,0.738
	c-0.046,0.23-0.046,0.508-0.092,0.692l-0.046,0.691l-0.554-0.323l-0.646-0.368c-0.185-0.14-0.369-0.277-0.6-0.416
	c-0.369-0.276-0.738-0.555-1.107-0.83c-0.692-0.602-1.339-1.247-1.985-1.894l0.692-0.415l0.508,1.246
	c0.185,0.415,0.323,0.83,0.508,1.246l0.6,1.2c0.231,0.369,0.462,0.784,0.692,1.106l2.077,2.724l-2.631-2.216
	c-0.323-0.276-0.646-0.601-1.016-0.877c-0.369-0.23-0.692-0.508-1.107-0.737c-0.37-0.231-0.785-0.416-1.154-0.555
	c-0.185-0.093-0.415-0.186-0.6-0.23c-0.185-0.046-0.416-0.139-0.646-0.185c-0.416-0.093-0.877-0.186-1.292-0.186
	c-0.23-0.046-0.461,0-0.646,0c-0.231,0-0.416,0.046-0.646,0.046c-0.416,0.046-0.877,0.14-1.292,0.277s-0.831,0.276-1.2,0.508
	l-0.139-0.462h1.154c0.369,0.046,0.785,0.046,1.154,0.139c0.369,0.047,0.738,0.186,1.108,0.323c0.185,0.046,0.369,0.138,0.554,0.23
	c0.185,0.092,0.369,0.139,0.508,0.229C35.953,815.527,37.107,816.542,37.845,817.88L37.845,817.88z"/>
<g>
	<path fill="#1A1A1A" d="M37.937,854.757c22.708-6.093,43.2-11.584,61.845-16.522c16.984-4.522,32.538-8.723,46.846-12.554
		c13.2-3.508,25.384-6.784,36.738-9.83c20.354-5.446,38.168-10.2,53.86-14.4c13.938-3.737,26.4-7.061,37.615-10.062
		c10.107-2.723,19.338-5.169,27.737-7.431c14.77-3.97,27.324-7.293,38.17-10.199c7.799-2.077,14.814-3.97,21.139-5.678h152.35
		c1.523,1.8,3.232,3.831,5.125,6.093c2.584,3.046,5.582,6.601,9.137,10.846c2.031,2.4,4.246,5.077,6.738,8.03
		c2.77,3.277,5.816,6.924,9.324,11.077c1.893,2.262,3.92,4.707,6.137,7.292c2.355,2.77,4.846,5.77,7.568,9
		c2.955,3.508,6.094,7.293,9.602,11.399c3.785,4.522,7.938,9.461,12.506,14.907c2.492,2.953,5.078,6.046,7.801,9.323
		c2.262,2.677,4.615,5.491,7.107,8.445L1.662,864.449C14.4,861.033,26.492,857.803,37.937,854.757L37.937,854.757z"/>
	<path fill="#FAA819" d="M501.267,768.127c0.83,1.801,1.707,3.785,2.723,6.047c1.385,3.046,3,6.601,4.893,10.8
		c1.107,2.399,2.262,5.031,3.6,7.983c1.48,3.231,3.139,6.878,4.986,10.984c1.016,2.262,2.123,4.662,3.277,7.2
		c1.246,2.769,2.584,5.723,4.016,8.907c1.566,3.461,3.229,7.2,5.074,11.262c2.031,4.431,4.201,9.322,6.646,14.677
		c2.492,5.538,5.309,11.723,8.398,18.554h-14.629c-2.354-6.923-4.479-13.153-6.369-18.738c-1.801-5.354-3.463-10.199-4.984-14.631
		c-1.385-4.062-2.631-7.753-3.785-11.215c-1.061-3.185-2.076-6.139-3-8.861c-0.877-2.538-1.66-4.938-2.445-7.199
		c-1.385-4.106-2.631-7.707-3.738-10.938c-0.971-2.906-1.893-5.537-2.725-7.938c-1.43-4.199-2.631-7.753-3.645-10.754
		c-0.783-2.261-1.43-4.246-2.029-6.046h3.738v-0.094H501.267L501.267,768.127z M85.983,855.772
		c20.491-6.185,38.999-11.77,55.753-16.846c15.276-4.615,29.261-8.861,42.138-12.738c11.861-3.601,22.799-6.877,32.953-9.969
		c18.231-5.493,34.2-10.34,48.229-14.585c12.461-3.784,23.584-7.107,33.601-10.153c9.045-2.724,17.26-5.216,24.738-7.478
		c13.152-3.969,24.367-7.338,33.967-10.292c6.969-2.123,13.201-3.969,18.832-5.677h3.6c-5.492,1.708-11.492,3.6-18.275,5.724
		c-9.324,2.906-20.172,6.322-32.908,10.292c-7.246,2.261-15.23,4.754-23.953,7.477c-9.692,3.047-20.493,6.416-32.539,10.153
		c-13.615,4.247-29.077,9.093-46.799,14.631c-9.876,3.093-20.493,6.415-31.984,10.017c-12.461,3.876-26.077,8.122-40.938,12.783
		c-16.292,5.077-34.292,10.708-54.23,16.938c-8.539,2.677-17.492,5.445-26.861,8.399H57.369
		C67.337,861.449,76.89,858.541,85.983,855.772L85.983,855.772z"/>
	<g>
		<path fill="#FFFFFF" d="M403.931,788.435c2.814-1.801,5.4-3.508,7.846-5.124c1.754,0,3.555,0,5.309,0.047
			c-2.262,1.615-4.709,3.276-7.293,5.123C407.808,788.481,405.869,788.435,403.931,788.435z M301.332,864.449h-14.261
			c1.016-0.646,1.985-1.293,2.954-1.938c7.892-5.123,15.186-9.877,21.924-14.262c4.061,0.093,8.074,0.139,12.137,0.23
			c-6.275,4.432-13.061,9.185-20.445,14.354C302.902,863.341,302.117,863.895,301.332,864.449L301.332,864.449z M381.869,802.788
			c4.432-2.907,8.539-5.538,12.322-8.03c2.17,0,4.34,0.046,6.508,0.046c-3.508,2.446-7.291,5.123-11.443,8.031
			C386.808,802.835,384.363,802.788,381.869,802.788z M418.24,779.112c1.938-1.246,3.736-2.445,5.443-3.554h4.477
			c-1.615,1.106-3.273,2.308-5.074,3.554H418.24z M343.794,827.526c8.168-5.308,15.461-10.061,22.014-14.308
			c2.816,0.047,5.678,0.047,8.492,0.093c-6.092,4.246-12.877,9.047-20.492,14.354C350.439,827.618,347.115,827.573,343.794,827.526z
			 M432.5,772.558h-4.154c1.387-0.924,2.725-1.754,4.016-2.585h3.83C434.992,770.758,433.792,771.635,432.5,772.558z"/>
	</g>
</g>
</svg>
